<mxfile host="Electron" modified="2024-07-16T18:58:12.420Z" agent="Mozilla/5.0 (Macintosh; Intel Mac OS X 10_15_7) AppleWebKit/537.36 (KHTML, like Gecko) draw.io/24.6.4 Chrome/124.0.6367.207 Electron/30.0.6 Safari/537.36" etag="ryTAxC79BAUuxhJKmwf8" version="24.6.4" type="device">
  <diagram name="Page-1" id="YRKdXxygHnRnUfFgpEwi">
    <mxGraphModel dx="1964" dy="785" grid="1" gridSize="10" guides="1" tooltips="1" connect="1" arrows="1" fold="1" page="1" pageScale="1" pageWidth="850" pageHeight="1100" math="0" shadow="0">
      <root>
        <mxCell id="0" />
        <mxCell id="1" parent="0" />
        <mxCell id="7OaiBoL9M2Hf6ulV0mE1-23" value="" style="rounded=1;whiteSpace=wrap;html=1;gradientDirection=north;" parent="1" vertex="1">
          <mxGeometry x="-30" y="330" width="830" height="390" as="geometry" />
        </mxCell>
        <mxCell id="7OaiBoL9M2Hf6ulV0mE1-17" value="" style="rounded=1;whiteSpace=wrap;html=1;fillColor=#fad9d5;strokeColor=#ae4132;" parent="1" vertex="1">
          <mxGeometry x="50" y="380" width="150" height="290" as="geometry" />
        </mxCell>
        <mxCell id="7OaiBoL9M2Hf6ulV0mE1-2" value="" style="rounded=1;whiteSpace=wrap;html=1;fillColor=#fad9d5;strokeColor=#ae4132;" parent="1" vertex="1">
          <mxGeometry x="330" y="380" width="230" height="290" as="geometry" />
        </mxCell>
        <mxCell id="ZOunkruZ9jGTkGRTgwFi-1" value="" style="shape=image;verticalLabelPosition=bottom;labelBackgroundColor=default;verticalAlign=top;aspect=fixed;imageAspect=0;image=data:image/png,iVBORw0KGgoAAAANSUhEUgAAARgAAAEYCAYAAACHjumMAAAAAXNSR0IArs4c6QAAAARnQU1BAACxjwv8YQUAAAAJcEhZcwAACxEAAAsRAX9kX5EAAKS+SURBVHhe7f0JuGTZVR6InnMi4k6ZlSWVRoSEkJCQEEhIKk0ggRCSkKpUpdJMN5jBEx4+0233c/f7+ntfv3rYr79nAx4w2LSMMQ00tJEwICGEJLBlbINtjEBGoKE0llBJqikrM2/evFPEOW/9a61/n3V2nIgb9+bNrBziz9xnrb3W2mvP6+4Tw4liiSWWWGKJJZZYYoklllhiiSWWWGKJJZZYYoklllhiiSWWWGKJJZZYYoklllhiiSWWmI3S6RKXGnd+du2GP3jfk4rm/E3lysqN463N+1aG65OVJz6yeNw3Pbt47K03FycfWxTnP1MU+w/tS4E9K7fEXMwdJQzjqChWhOw9tFVs3V9srRQb5z703aceUP0SlxzLAHOJceKN/+wbqv3d7ykne99ST8bPrYpivWga0dRFWQ6KYnVYrD7iRLHyqEcWNz7ra4tT3/BMyZ8s6r1x0UwmyxnCUGEMQDswgV7TpddQxrksJuOJjOnkrLD3D06uf2R/c/d3H/roPT9711955jLYXEIsA8ylwlt+6qZT25v/r2ay91erariBgNJMxrL+a0nYBJKENvVE0lgW/25RVoNi9SseWzzm5d9cPOYlNxeDtWEx2d2TSbpep0nGxzmg1IzJMCZJ63KJJDqmCZoHI5eBhHYkGeNqdSBzURST89ufm1wYv/3Lf/jp/+Puv/W8M1pmiWPFMsBcAtxw+4+9pKzHP1lVg+c2410NIrrIufhrCTLGiAgyS814PKl3xX6835x61tOHT/ruNxcbT3hcUe/sqvV1iRgwBBgvLNpGgkcpfFdrUL2xCTjF+CjrFVbV+noxWBkU4/O7H96598IPfujWm/4jbJc4PiwDzDHj5Bt+4o5qf+fnqmp0qt7flgG2pd7g5GKMJwYZW/C68CdjMZPoU0/qydZWufLYx1ZP/YHvrU997ZOHk+0dM79GgVHQwIAA4sGAAYSLNAUXSemwIhQnG7AHIZ16ULgWKgeasqyK4cmNYu/8zpndL2/95Q/d/uhfdvMljgGcuyWOAafe8E9eVOyPP1CV1Y1yaySr3oKInVKyAIM8CJY88/VEM00tBeUy2dqsVh//mOppf/OvlRuPf3RRy+3SNQsZA4xCCiCQARgbjyY6XIAb0XYWqIs+89tNBq3q5MlivHXhwv658av+66tv/E+mXeJiITF8iWPBbW/faPb3/mk1WLmxmODtC8J3QoRuGAqDsqzk3K5KzQ42TjQ7X/xi+YV3/KrcNsltFl5DuAbQCQoIIEgCjAQ4HREEFMhlOCwAB3g2k3YQdcrLxapCoDLfGlx8tOvzm8XKDRsbgxPFP33yz3x2DUWWuHgsA8wx4WSx/T8MBqsvKMZ2K2N/KXEkN+rbRjdMF7bIVe+rXW4RIBEXVTPc2GjO/uGHmwf/yx82g5URtgaMr2rg1sd3u0sE5IVaEHBEmxmgRaQ6pMLoC8NUCOBOE3hJeDnM8mUx3twqVm489bzHPfnG/0mNl7hoLAPMMeDE7T/1uKqZ/CBuiXTh6uo28EhuMSMg5UHFymMK5A0yzFcD2W2T8t7f+jfF/vmtphoMpQ7UcpUh7WxrO3sA2ia5pnExRLs+QI4SHSoXVMP8FCBkCtCTkpwUq1H1Pz7n5770WBcvcRFYBphjQFnt3F4NVp+gb0Nj1VaVBAmh2Cwywt0tI+AmyjaTltXjiwYcUSI/mgzWN4rtz/9Zef7Tny/L0WDa35UKBpM8qICRZIESjGs0a3zPyPRC7URJqu7Ag01MSDNA28nObrFy06nHrn/V+htMssTFYBlgjgHleHwbFjhCQokhlXO3Ugh14eryNwNCeeaN6mkH8spO9iqCh3LQNONxcea//bG+PYvNcMWeYqRxGlB8x3aCC8S4aPDVTOpoDoipArWBmJbjojIKCeRZaEFos3XuZPaG1W3Fnc1yf1wklgN4kVj7zn/5pLKpv62p922FIkboBatbgPslDyYq1xTBPF6vIdyOPmQbloNBcf4TnyrGZ7dk8Q9cfgVBd6eEj9RmyUrS11vACS1jUAF1m4iYT70PVHkxSm6Rd1CWhFF5CEwu4HNHzate/JIzX2WSJY6KZYC5SAx3t26pBqMbbXVnW0KCC+90DNwiIggbkfZmKwn3R3KK0XeVIKyGk2pltdn5wheK85/8pNw1jdT+YYf2uaV6FT59fiVR62EyN5JoBEcFumTHclEIzOKPCq8At7qjG06uFyfKW0yxxFGxDDAXiWoyeZ1+pwgL00QtEC8wwtw1CrGCPRZzJcoUaEA7yRSNRpyiGIzkkLRfnP3IR7UenIZ6arz0QLslseb89ZX2w3HBxhMR+ZnwQu6+pUZaBjQJj4CeCvDJ63IoEb5q7iiKO5d75CKwHLyLwCPe9BNPLuvxtzWTfVmXdgug/3grIMcQQCMFeIQKUCxmBpYUYAyWlUuF04sVNWHVlHKK2fzEXcX+mbMSo3DEuczwTYir3fq0FDoNKt4o7aKxU6DcSyqUlwvpVNkp42ME+0BIJyZbO0VVDl/6vPf99ae6dIkjYBlgLgLj/clrquHaqaaQv3jYWb679IqLbpRKiGw9feEBQrvr6QSWTpBxPcqCGeAtKZU31cpKuXvv/cXWpz5bCK82CGiXCuoZm09SPKmgtcgnWaK4KKsI7BSoS0XkosMHSplAR4aZqDgq0Ehvb6IRLqvlNml48uTJ0XD0WhUscSQsA8xFYFBP3qgBAdsAMQEkBBqVYUdAjqF2uS5hLu4UbJDCdOCkg0/12nFIPZTVsMaXIc/+idwm4RNi4ZBzrJC2IWjwdIIralHqOoLcvFbQJqfKeNLySSFweajq4gBH0Rn5SKO+lv7LFAxWy9tFcQkG+frAMsAcETe+6Z89VVbgi/CCoAYRbHWsUYwod4v8R8BJQcB1mtfbp7BuNcgoY1fkxbGYlXI7pC8IIKRVK2vN5sfvKvbOnRPRxU0fWq20Z+OxNQw0StEgCEVJPRE89AJ6lIF7LUsqUDkYXJjyCo4KVIgUwbw2RirSfN4aOZdu78it6OglL/yt+5+uqiUOjWWAOSKayd5rq+HKTXiwiAUQWZQymqV/pxF/9PTvHqKOBw893SiTUSCwKVNWUhpG9l9YvU3a/vJ9xbmPfaqoVlekVmyGo6ENHAJsMt1ozgdq/WjFqJJsDsiDmcL8y39J4KeqSZeAPH8YwDETkVcKaGOMbRlQbXFR7+/JbdKJU4PhymtUsMShsQwwR0Q5bu6wxeoLUxerXFLw4DK1v/sIQul1GCF2rqEtKAo4TcDBBUFGAQMRjSbFeL/Y/OjHi8lEgpuUOXSQCZsPtaXSIkPAsQ/zBa9gUmY2oonycglVKSjXxMqD/khgJVOVZTKqMM4qRwNU4JSgoQB3ooNi+aneI2IZYI6AG970k0+XP/8vwZPodLHq+gRNK9hlxuJiaxlyJixjPDaTU2AyAxgJP8xrVnIqwClmVU4wdxX7Z3GbtOCH7nyTxcCRthFkQc7XXlJzepD7ALXWWeogzxOz5IvC25mQ8qTSojTeaJ3LlTDPNA1IJ3u7cttbvuib3nfumSZd4jBYBpgjoJzsv7oarp9q8NxFQFaiLlGJIggkGkz0YhlwQMsJIJfg4jcott5x0Y0QgbejJbpUeDcJhaqmHK3W+w/cX2ze9ZmiHA3FF/73bBJsOCbNtjbKSV7LhTrB0aq1NkQ57RKVC90rcT4BeaaLRehTh6Ifqmv7Y3lQyxqmBFOgtt7fLUanTp1sVsevdtESh8AywBwFdf02fHNaAwZWouwue31FJJLXzaZ/xv22iEGGF6Vk7fYpLWnaeNIXe+0V34bPgymrYVPvj4uzf/wnUkrK67tJAOoyPwwm7tXEmnHG9Za1MIfkUkXkAavDqShJkWhLt5QnxcUCjpkIzYNKYpAkVTvakk4jWiSeGU/6d2Q4vEOuSxwSywBzSJx80888U24hbrbTC1YgFjSSrUYLLJDI0AqvgUfXvOQTj4uEltqpvhsEe8unTeJ2EkEgw+f4TFlW9WB1tTj/iU8Xuw8+VOB7StwMAIILSnoWrZJiItNgp+wUIGIi2AqAcqVyUdtoDCAfK75YaADxxHwExkkbCRsQp6khfT2YBt1q04W34WfQxm0SnvHTvOTmd9+/vE06JLCylzgEyvH511Sj9ZOFPshblqCvQnt7GosSwcBkhjaD4GMBR5LHE/1yYLuqDcoy75vFjinyD/ZChivN/v33Fec/9Vnh29dh1Fr8aVARihMS/mtsAXWbiJhnrVPw8u4ugbIkjMqjAA7VaQ/iGAFab6w49k6VxgYkbTSTYml8hFcqCrWRsW729/GhuxPDk8PXaZklFsYywBwKd1ZlPb4Dt0ctbIWmt6BtdbbQ44IJcKfDEw4WLlYzsngtJhXRTWQ6Az4I4zy/PoBsNarrSa3fTVJ7gdYk9WsN8Avi1RFZVsGaoo7lbJMZr5jFHxWooFOZY0rGPJJcVI7E1gNuMwdpTIQhteACgcsQVHQ+kZAXIeZqUOHLjy5cYhEsA8whcPINj32GrK5v0nePErDesCodCAYhm9ajEgskyuqqFk7+65oGk7+jlIIMYLwcZFSD2yR8XeD8x+8qdu57QF/sTcGlBzEk9kHLoUlIKjFeqZEWEEwJLxKsjNCGSEJvlRemY8OxycoFQEMtiyqVoozzdJ8ESpwP0J+OGRQvfeG7HnyWi5ZYAMsAcwiUTf26ari21j3BAFzssjR1oTLvJxYuXixcDSKix+suMNN4gfAiNF/XKcCAwn6AP61GxVpu1SZ7991fbH3m7nSbxBJAdEd5lCkvF9IE4dU+k3XyFwP0gYkgr3JjFYknA6rd11yOKOXQw6XGfSohI9XXwYzvAgIT6o3mGLdJp9bKE4Pli72HwDLALIo75faoaV7bXamCFAQM6VZJkF5z0Q3B5IALZEWvwSWZeODBRW1MkW6T2reMqqIa6i+3PfRHH1FbmIeWTUF10Q48fGmmhYooS8YXAQ0a7iSOHZF0Rg6GGdI8umZ3TCaBAVcRUjcNNWwRjVBO/zjg9RiZS3w/adC8pviBP7hCHshz5WMZYBbEyf8mt0fN5GX6e0cAVi1X7gzEYNOBF+E7TeYLguCP/vMVX8k9Em6TLOLoIxwufObTxe59p4sKn4lxsFWRqie5+J6xPA0Al8/p0uEAR9EZ+UjJW3eMV2jrAu0ClsnCGbrQ/oEFlWTUgo2W6pkXL2L2yuCwSFuL6eOdbRweX/rCNz7la9VkiQOxDDALQm+PBmurenvEFQ10VnegMyELl4cUhT+NQXaByuSAktDx5TGFG9JQVqOVYufeB4rNT3261g/dBcASHlAkUUn0oBQXpljdxQAVddvZ5rURoSKwnX5pSz0BpF2olZuBJh5KaBEYUqTxCyhSGgR4cdapz4JQ5jTpx4qayQS3SQMJMsvbpAWxDDCL4K3vWJHbI1tUXM26oh1xw0DOfJQH6MkFy1Y3AP46ws5kdqoJ0wIfyY9Q/WqA7B59DUcU5bDGBjj7xx+VA1Yb/PTqzQTP5sZm6x6KyPOHARwzEb2VOlQmLQPpqHtsBbNMorx9JwhS19hwOEW4gIGFDdjAyobMZsHKCecu4EqSq/DVDsmMytue9mP1qsqWmIuwkpeYhRPjB75WVtgLihq3R7bWFL76EmIwAIWO+SlU8odUFjW+fh1s0vtA8SSjdTIJqqHWJOUkVXJyWW3O33VXs/vgQxN9sTdrlrK4IMEF+YsF+9+pLMhi38GrHagKJCkTaD9UK5fkWsqqK0eoReA5ug92GFsTqwf552bCxHzHeYLJJhe2i2JYvfCmp55ZfuhuASwDzAKQ08vt1WBlTf8y6gqUi1KwwuiqD4syX6DcaJ0NRxv7ywmVfh6GNvhrDJjCErKsG5+JUU5KjUbF7umHqs1PfLocyC2Tes6akDBLvijYt7yPybE2yRKQ7HGBDAzTNCjtVKO8+0s+QGzsNIfxchPLOwXcyNWJAp3mScayLEmlUGdruU0abdwwrFfr5W3SAlgGmINw5weH1WR8q+53XWfC6AoF9aUaNxNXLEA5EG2TXP5ugtUixuCKQGOgnUBZ1bq92NJYb5OK4tyffBTfUXKFAHZMF4vYtz7KgAhoHtSyhinBFKjtuE9uMTaSSb5NkV6I1ddVECBsDFkUFBelxraIwq6BXO1/2wgkkWgdRTEYVLe8/M6m+6LXElNYBpgDsPHHn3iOnCpegGew2JrG8nLirFLb7b4W5aILU0CayjnVIIItgzIoBAujyNJdCwhBUU4S3q62T/ZKdtCUo5V6865PVXunH2oqfDfpOIC2MuWAyNudqNrRtqeMI1okXhj34tSvboScvbZCOM9CnVJBLGAppXLRLqkkgL5BMBExYBL6vY6yqPFu0mh089bNDzzPNUvMwDLAHICqaW7hh+tsN2Pt2frTlNairj0TatYpoIs3yLmYVSQXiJxvMCWithd7VdhSLSA1uq1e0SgRSRvr/QdPF2c/epc9EPyo0N3naS5gA+JUL2gT2wqoohdxCMBzWPQgAoX75Uf2VUakKtQgsYF07fuEyuMiDtK9r7YGCgdlXeBXNkc3nBxVG4Pl7yYdgGWAmQc5Ag/qvdc1+ta0LT3d3Loc88XnC9P1ChbQ3eN5bghAnbmZBhQ7fptbhC4vS4DVPE4o0PkrwfhcjJxipGy5+bGPNc3+vsTAUO4goGRs1zzALNmCop6YJ98iaaMZmi9UGy08dUoRVLT5ehHAUAiySOSdNfjYgXNGScexMqZAXqkOlHlTmzY7D/VY18TtNy8/dDcXywAzB+t//FMvKKrh84sav3skCOtO9wBTWpSeQOQCG13HWtgRN747tfKC9Ne6Pb2k12PSPkCSgvSjL/bif1UMVlfrcx+/q9p58KE6fsN6LmLjyE9R5zXvsoQ8Pw1tqZhpk51acFGNuxVeXZmspSq0q9pREmkbXBLc1vxIDfqZAAgy//gCVwJ1B6Pe25HxXnl284avvtlFS/RgGWDmYNTsvaaUXYsTDJYnkNZsgMeFAMto6BA2jw0Q6LJWGRUtworXjAYZtRO4w1I/rWdlkcVulbbW43ObxebHPtlUK3P+sKJypogoy6mi206A2kSFiTypjlGu6wyqCpgxA+odyFHC4KRwhY6qGtAKgAwDJQVSENPaBSqWS/DVB5oDztsjHE6sjlaXt0nzsAwws/DWdwyKevLGEj9qL4jrmcBSC0uvBWyZQia+XqOxAXJdsKbHPwK2FjkA2IG0elXDmX4WRlKFfwM85rc4+5E/LevxpOYdlAL1MBHkVW5sP6CEr2kjSlkTmminE+NTdZCRxi8YUq9oM8lWc/ROIE9l6oRwHCBpAaTpVWEnCbRbEOxIcme03tkv6npyx8s/uHw3aRaWAWYGbqg3XyC79utkAblkPnTJYR362ldgTSIPuRFJuAJuqDsSWaPUa4BRgcuFmgZAoHKdS+1WSlq8ttZsfeozxe699zflwNc9N0ZEvveSczJJ4DDDHk/JUl1KAkHTkM+9GDIv0Qjl/OTir0IJdY7+4JguLKiYBjLrFzKQcaBMtCjMh1EmIsjwsyaDldGzNrcffIFrl8iwDDAzUI13bqtGGyv2QNbFwGWIoKJrEGs6rk3IwaS1DsYzymIb2b9gJDAndqoRRvcUkgUVe7taC1dlNZLbpHODsx+9S1h8qtcbECl59UO5EWOCPAM0vaAb76RWIbyJIZsumWqAvTJir+WMR2na8DASry1Qkcg0MFn9xhwBHBtSIJd5zNJHONxwarS8TZqNZYDpw81vH8nSfh1e3D0yuLyxEMNaVTHz0NEOMmSYVwHzuETervp33V8EFmv7HevBENXV5z76Mbm7m+C9dddaOS0JFvnUMAjIA5HPICoUY2Jeoe33jBIoUY+wet+kFUNhIqdIBuPMCrc8LkoGwiDSaNzRFjgxn60d4LJFoD485chlHDevs9nTz0e94eY/aJbvJvVgGWB6sP704fPLpvnG+OQ6u2U5IlDUi6e9ACrr1PajZPyvIij/WZ1IRkwKHhkVOERuCx/eKvy87IXPfK7Y+dK9+jWCtlLfLCDOGjqZhCQVJhaNUDn0lvX2KZugOmmD2dipBM3VduvVYHZGzRYgR60Dg6O5WFlW8TykDrUuO6DcGtpjb7Te25UBr549/tx9L1LBEh0sA0wPhjs7ry9H61WNz7/oOraN0AaZdiHPWJ5zgf2uHoK79PokFjB58W5HEHvUpl6SDlCBJJlGkctpBpeiHI6K/bNnynN3fbrUXxxAK7WhsGWL57dctSiGpBIZB2FYPWtOHIwkWur+YxkVWyRoqZWwfWp5BRhmEu8CPbWoMxQVxFYQkZ8D7VDy29Ikd4oqVGYms4DfJpfbpHJ0w+B2Fy0RsAwwOX7wvatF3bzWPrlrMGpBpl3IXSnAtXjAmtQSsFE7yYDSG/cO/JpvyEzijGcht2SnF5WhyKAYSFSRu6Vzf/LRoh5PzK6tcQqU6v4ilaT1CIza7sY7QJR33ioGgntWSYtomerRC4MMC2fUSFu8fafIyDxogKCfwOeAS6b8tJfa0yJKwOMt62pQ3Pacn/vwCZMuQSwDTIaTn7v7BbJPn19P8PoLFhtTu6x0USnni1Eo8th62IaUzkLrqeWjDAs97SMF8s7KlPEPOa5mJyl9VkaSbA78vOzWZz9b7HzxXuFnvzyQ6hdG/UEAd8qjL1K3nh6curw9TKBAp/WWkwulHW0Udgz0RRpQIWCtTlRvrQFIF4B2COXhB37nAGqt07IH1RO14OvdnaIarXz96BFfsfxuUoZlgMlQFftvqoZrstxrW3eebClZIhdh0rj1I10M9o4qPcg/ZCHXq0pU4CYK1QeBnmbKssHvJo3PnivOf+ozDW6TuHfa/ggVhiXVj7G21ZHRWx4wMQloHAtloFipXDr7l1DfoMpbFKWM6Eba+dBKPMV8AnnIQagP8pRadHOOYNrUdTHcOCmBvHqT6pZIWAaYiFf/yAnZnK8qikm7qHx9h/UkaNc8Nj9t0191BeTJy2JAcRZRV9n0JPd+WpGUgo9/DkYfVKW6QVkOh8XZP/5IiZ+ZReDBXjJrqQa8MEolabW4gMdGV6sAz2qfpJBR/a8JIFX0CROPWjutUWmLrO6LAatSXvxqXjMqOgiw6rQGAhalQnzitZhqMHjNc36uXt4mBSwDTMDJG04+t6wGz2n09kiQdmBYYtioQiywUG4ygNQAfWvT5WcgV0l9ELX1SbL/orJTDpBulXD1j/DKKaa4cPfni50v3acPBFcTaSC7lPYdG22lJEEAQ89S5DzNYwBtZbj4yCTHwpjCZGgsB09t3LGCdAGor5AievOUtXVQErWkvZjRPHuEw/BZw8eceb6LlhAsA0xANZm8CZtSFyN3bk7TwpU8ZQrwlmLgAdo8+dlL2PRuL/4tvGhGdXoLJABvTZE8ZHKCSacYFYvtykqxf/ZssfmJT+o7S6i2fR0FF+Hpo+fUoiq1w3/X0Z6QvObUTg0FaKtk2i8YWgGvW45MamUIvhaB1uGJIJ/rok0HJseVtYMiRRkw1broMvC4TRrIbdJwMHmri5YQLAMM8d0/f0qWyWv5idFe+D6xDS20xxZiVfk1bcwAkzEBwUbY+FqM0VYfN4B/xk5MRKJNcdtUXoLOYFSc+9OPFfXursikAPY8oITeKBOqesgMyJkWIcPkCB9USDVhyFhOJOiExheRQZ+CCvLaQMsuAhZtK2oRdanfAOj8OqhNXuHCWUWsDnzMO2L1+NWBoqpe9ax33HvSpEssA4zjxPnzzy+r4TMbPJohrdGw3MgfIIvrkOcPXi0BukUVbQAyPeWtrUD869PsXa97V+uUFNqgckwpdbji3aTPfa7YvvcBCTaiiw1UIGO2KpYLwmIqr1dQcKqEXk0BYWiiGVGZDgElRlcNKoeE7lqvKtKYALqOMmtM4oioJRhzFeCZ2OKoD6CYVU52LhSD1bVnrG1ULzTJEssA4xiU9R3FcKUq5ahrT/v31QU6b29Eu4xyncbUeopBJsIsVOa+cNXA4RwS/mFhm4VT1KllvP2ScGs03jxfbH7sE/rWdQILgpEdZkGlbSOjAzePxg3nO8ECn0VUhRpI8kZo8dbsQLQVtSmCstwlmqK2/XVFDfmONTKRRkCWyVUkF60y6DQra6da3agGo8HrTbrEMsAAf+7nTsjieE0hC0T3hm64gLSiBGFvTYG6WVRg5xARaeI/kwOWM6QDgJTX2vVPre9dcELMnzD6HxfPa8JpBqksNj9+l/yF3cERXsuaQwF8yn8rYSWpYpcNSdpSGHj5TtBRZNlFECvMebjXDmd+k11rPy0xTLUoN5iBjj+55MViHt+wLsv61pvffs+Gi65rLAOM4MSF7W8qB6NnxO8edcC9owtclhMX+zxw4ceynqDpJmxscLCV4AYbuvfy3L8earyMBQSzSQXMNoiqtY3iwmc+U2x/+X69TUJZ1o2LeQSkbiqSEAYi1ZjrnQJhA1WS6iZzMNRHSBExDx5u1c5lcwATNIKm2iBkKBCaGnlAa1MxuYTiHf+kBJ50V62tfU3zFcOXuei6xjLACAbF+HXlcFV2np73BT0rj3sn7qE+GYB8LouI5ZznphdB+of/kIPRbyNFe6EWSJBgQh4ZTKt40Dx+1WRU7J2/UJz904/i+SUoDa1Q3yByAW03CzlqHamRVtYQ+QPAwJEHFIJy7YNgyh60LRulpGwNqPKtuQFCyJgcMYvqYhM1lrqMxYEYc1kIL/QO1k4MqlG1/G6S4LoPME/8W7+3Xk+aW4pZp5eDgM2gK0+Xc5ufB9rTLpSFxJLzqnK7RmKg2Jg1yhsPLaXqq5NUKHGmKrbu+kQxubCjvJayigyJd4GeWqSwRTgBnCk1ooj8HKCf7CtpDshRhdq6bAHAlK1IrYGQKaJPJlCR61LzvCmQ8S4QIE3tZJvDWEzw1YFBceuzfuJPrvt3k677AHPu7g9/a1UNn97ok+vaRXIopL2X0VmIdlzRM3zgytsjZPACtO15KadihBbPaw4XXG1q9bMxkq9W14sLn/9CsX3vl+U2aejWXndOLarpRREbcBik3XoAUvV5e1pECXm05pAtSoAP9ZOYLtiUrlo4KFI7pXblSQVC8DpMtbL2lJNf8xUvN+H1i+s+wMjiuLVcWZejwcT3FXDUZRuQ9mTwFXkiyrhIIePCFdj+9jAiF9z64J+ecry8Bp32gzFyAa/GmvC1gbHcJuFDd5X+frX6l4vXg7yeWGDPhgCSXxSxGPko07ocYLVOyx5UT9QqH90S6tPYPlAVTWIR8lFv7ZfUaatAeZelvhopJmN86K5sBsV1/6S76zrAPO7P/dyJuq5vaSb4UXvsK70qfyzwzc9NnvhZiDrleVqRtZt0ZVG7Lk+4GhVORZxe5JGq4txHP15MtneE1yCDCNVuEMKilWcWQCyvGzH6A+8y1qV6JIA884ZuzjFtZpglF7AqqpMZZH1yQAuRos0ci2xMOoUiSnvHrmhu/eZf+9gNJrs+cV0HmO2t3W/G7VGB26O4uS81dLN7IvrqVxtjdS1LHlkGEIQfC0D2KZnWp1gr9eT8YE1uk+6W26QvfwnfTcq2B2yIyB+AzmZ0yqR5T4rE9CJqUwtYnkooyMcCPUhNYBlJsVm9UAMpQMNOIfAmmgaFRpv9XTzC4Sm7K4/6FhVcp7iuA0xTjN9YDteE8XePsBDTyr5MSEHB+Qz60yQOXbpuw8CiUsiq9rSjcrXD9Eo4Ao/TzGBYTC5sF+c+dpdkBxCqdUsXgG6ykCKQj33o6Fs5paCRp0UspcJ5zYtOBNFfgmeSDkxsG3mlqKzV4VSr1QfzaVDZUrymh+8mlYPr+92k6zbAPOr1/wJH11d3Pvsi6wNLRE/ycaNcLmCBs16nfP3FVrnrABXb7ZC2GVndIB5UYKCPbmAeRKgEmc2Pf0IfkpQ+rXwQ4JeJIB916g60z6/Z45prTdNiqnQ0yIyR1flyHtCmSaKMqQO0URWuIYVQ5V3WQK6VtHxstfE1bpOa4jVPe+8Dp1RwHeK6DTD7K+OXyl/xp+kvB3CxCcHSYLrsQUbbIQ1hvaDKW96WsgQJl+HEQpkmElAylnEqt1IrK8X2F75YXLjnnrlPupveeAFRF+uwyNxfxuGWHO50QqDcO2QA3+MqVW+kYwMdskhsloI2auBGFArR199ATdIDt+1Q8ig1zddymzRcW3/KqbK8bm+TrtsA00zqO8qBPZpBl0NnNRrsRd/LjJ52JJkQ7F/kVKJ55aQPJsU/473xqpdpBkUajIrJ+a3i/Cc/ZSecHNyA5EljAtimKNM6ybeI2oSYicXYpI5xC4pTlQKMidKsTNssZzqFKOsQF6dcoGxYz5hFJ3CgVBK+m7SyJsPcvAHq6xHXZYA5eduPPlpuHV7b4EfVZL1gydgSQYYb1BXkH05o9XarA9grRtauzm2O8tJ6IXwrW+14m6SKqihHo+Lsn36imWzvSnyCjUA3ho1CAmW0IZBX20zuiF5o1bGGS6cdIM8UoCK5aJVBl/Ku67SGBdRIBR2SGtWLqRYLmM/lAohyXy7T7yY1zStf+CtnH2WK6wvXZYApV068qKxGX61PruPC8DWj61F4E0PoCt1kktJmI70ciPUKwMt/baNcNH4o2wYVvnaDf53XcYQvR6vFzpe+WF6454t4Cpt3WpA2owC81iMpiBX5phVMSwyosoPcYAY6/uSSF+voHenBNIl6YitorPKYiZRgy6Pc+VRWkBdDHgnFJdW728Vg48RT6vW96/K7SddlgGma8q3FYCDzb5+GN6H890XhRKHfrJaMrhsKdcNyFV0epLoDNJjIf3ycRXmBfUZGgOYBMIHILprwQu9484LcJn1SghOjEwsIwGtgERrEswATeKYpeEUom2SJ6QeKsFik0T9pgrbTpakfUoJ19faDHnMK5DQgqvp4uKErTU1RDVeKajC6Lt9Nuu4CzA1v+PFHSWB5hT6aQVaCrgXsXvuvibA141IuoLSQ3JIbl/lLBGspkkyZ1IVTiVVpdXc+fAeeyW+tGj3myO2Rkkqf0Xv2Yx8vJ9s7dpuktoKpjQpKvuUi9ZKsvS1CBUAZkiNme2MAZJLgJtk5VWihKPEKIVI5ExDtCDaQNcyoCWxfccrohnaZbT2Wk3I9ftVL3nfmJhddN7juAkwzWH1ZOVx9clHLvbGvBN1f0GkOcEFAek1D5bg4j0JCda3HjWqGxwtEB3VrLeVrRdoEdkIgfzMhaWUaVcBrxnSjtWJXbpG2v/hFDTbdjTof3mUFqQqZiD6ZQ0Wui1XHuEBxUusgU5mkBs1CrjmDHvumWhpA45wKekQdnoCsTx6gv5u0tvFV+0193b2bdN0FmKKZ3IGvumJR2AY1YI1oAJHE9aIhRURmZXKWMRtXWmGlKmeQ4YZm3sseGSwe7pfAIbE9SRMYZdNFkrQHv5U0ubCLD901crtoxTNEIXn3cCTAh/pJTBeMGV21cCmwAFK7sqSCnM5ENMgKgcQEkAK5PuoCKI60aWq5TRrJoNdvMen1g+sqwNz4Xb/wyLIpX6lfDQB0p4QF6wBHEQIK9jNei1ELN0s24PS//HNdClxxlakMjOuODFQGH6Cex62P/MuDH6sHj29V2wnLi8ltEp4Ts3nXXSW+BGm/Yd2FeTNEfgptRTMRTchH2nURJCGYKjTYONW8kS4oVENje2UHIC96AGDG1ua03t/Hxx6+/ZnX2btJ11WAmWyf+7ZyuPIkPvslfc5FVkG7HYVq3iS2QDR86AZFXjeqa2xTmy14s6CNwIlSlcE/dUKpXxRSRluq5dAmq5cyvNYCleWFg73WZ7xEkiTHz5rsfOGecue+e6d+/TEBmT4F5VHm0L0vacrEmSSTZrQ6KoVaRG9lRJbtB42i8YyCEDNFHFC0Tw0qLVaqMrlQB0Y/dLdx4gkn1sff7tLrAtdVgCmr8tZysCI7DlOP5SDJSQoIkrF13QYLXkEtiGjWOLzLZBlFWlQAfQbf4G0PCQ+a/4VeAHhtxQKbOADR5H6EGucK+V+5DhprHzj5h+8m7e4VZ//ko2U5bG+TNPAyAShOPsp6wJig3XIfUUZeQV6FUSk0FQJvomlQmNMZoB+miFwOGvrYJyYfdQT7n7qEh8nLiVGm4laXXBe4bgLMDd/zs4+SCb8Vj2bwz+4adNXbhtOsJPKAbWRfLUGOLIpqSRVrRvMKJ3a6sCBktZo9NrGVB8XVEm2s3hlAe1VtNq1lWx4f0gXPJzLoC76w1BeKkYzH7yad/8Sn6v2trabibZKbJpjTVoY8ny4qoJpU4RnUrVTy6cQIxACijlsl7LS50X4KVEbKBgaam0VAhgZSh2IsCoQywaMCKvCktE18KEvUO7sINLfe/O57Hu2iax7XTYCpL+y+shyuPgG3RykIROiCgKara3PGmV6S7XDj41VVchF/3Fy0xdXWnm16NwaTbFl/vE4B4saDhOe1nObLoq4qDSxJhrYEfXv7hifdrRXbX/rSYOeLdpuU0LNBooz7kiKNE5IoY7KLIeU7wUUZlwcWFwWZJBCQ934kBFuwqR4jCpV7AmLUi/I5oEmiQdC225CaILQe7xXD9Y3HVuXKa0x67eO6CTCyjm4tK/x8arYCjoz2jEGPabmLAEEm/b4SDHxT00Y3v8DONi5tlW1KwgxJLIz4t1NZtCUvFHXr947QHsp86qtBUe/t6YOopn6YTW0dlAkCm8Bi3s1pYNy1YCjNQjMBJRxGSsR8qBSiaAb0yYDcZQCLxASQTil6gC7r9JPiNmllDZ9Zum6edHddBBjcHsnf9e/gk+v618ScldILrE5b2BYgjFdwlwVqfyhb+1Sb6IwHFX1yw7J+UV+epvyDxQX/rTX6s9AJVn+6TUpJgMAjJ5fzn/xUOb6wXadP9gLBBdgUIwJUFu2iAZUUJqXU2bFLl0ABb2OiQI9d8m+k4wJ8LB4hulgk8n1gNZ2hdeRdBM2nCRhv4x275jue+0tffIyLrmlcFwGmvjDG7dFX4CFAPWvDgVUwW7sY4IN+jCaPVOGi/40mUxClFmjsdRvPiwK83pYgqRjGkkgJX836yV28xgIeAsj1v/xTHtTe3h7IX9Xte75Ybt19T1OuDGFt9cmFiVA+yK02B4VMBFk2JuoSqKRHNTQ20Qy5CVN0EZHnHVHcawIhFUJzG3QHQ9pHqScaPK939cRjqo3Rd7jomsZ1EWCqorkDjynQJ9dh8fkC5Ly38++Kiwb96HbWfwmtyi7Y6Hy9RBti1iahsZuHBpupWZLiCrnedIFROeCnIyTI5L++DqNBSCh+ZWB/r9z85CdrPHxTfbOOAOajfPoLhuJP4TQWijutFywb7eg3yNSXsR2gOFKuz4pGSnRaLUrSTtm8kIPDHOnUsLCs3iatYuivi5+XveYDzIn/7qceJwfTVxRj/KSnCDjhvhg476BMlwao0Ct1ylxqizRQzy1oKJWA8Bo0tAOgJlaQ71C5qC+wFniotlMNpt1ORiYTKkHm/CfuGu1vbcvhx5YFtByPqXHBjpnaPVICkQ1Z1Zu0RfSYg/IefVRFdW6a63vQ16ckk8tUlwIwTH1yIJabZUPgR/JlVl7xvF+8+wkuumZx7Z9g9otXF8N1uT0a6yLCIuE9tO4vJiBQrpH5a+WAldSLWFnY/HJR3je93iYJn04jKiP1UrqSQVWIwnJpqYqFR1ZvrcAkKsn9oE78btLOl77UXPj8nzXlaAXFQ30BUzsIPgRaWcdyBtxeQfucCtSfsR3kMtr12EZxTtkKjYfR8ADosDnY3Zz2Ako3kNMiHuHwmMHJjVeq4BrGtR9givpNZYXXFXxykcKeAJsCjlAsIKwDyKkHdZMEy7ujYwF9GcVVk1w0oJjYQB7KmCDyC19fQUMtSEGDvOTEtsLUazm8NS38AO8m7ZfnPvZxycg5CuYEdw5pBGRR3GPSCvsMg+wgsz5+DrzHakpKRFcHoa/784ZkCtFGx0uSrMlmULzRpdcsrukAc9Mb//kTB2X5Unxz2pbYNHTuuRIFmHvsO8h9z5qaeiPZgiWX00Wg3o11aieU1ovVbScNNgQ87PQ1EJUxGVCW9vQHfVMgoAh1PzzV4IKvDpz/1Kf1B9o0OAG6g4Qn9asGZaQDQaNIycOvszkF1DTYANaEDvpcRB5FdJgoiOkAaLczSt6HcDaSsRcQsA3N3o7w5cte8KtfeJIqrlFc0wFmd1C9vByuPxav3NvMysU3XeKFcvrTH3lkwLfrIvFRTF43uktIu4UPB5TmlcHBNjy3vdVjXTEJMtZ+z4tFapvOMu3Iii99kVdYMdRTzWi12L3v3mLr7rvllsmeV6zQjaKM/We2A0pAIz8Hyb8RxVTRzEdWBJQ9zmlsfqR9iLpF7IEpPQQxuczaY6vExI38zdstBidueEyxtvFtqr5GcU0HmLKp36Z/oXVWhermQx68sC6eCTfVjSsgZREW15TpjPNFpjTyLfhmdB8QTsyfXc2WMoFFFOMVzEvyvqq12GEcGGd0yaeggwDkn+CVY/tkb1ycv+tTptGxA6Na43tBRZ8x8w6ImSJifkbRCKhgRsoiyU1UHoAQCzo8gCHg3PYiLxAhMg4hLmoSfSFf12+2zLWJazbArN329q+Sv9Av0d89ylcIsticOvtOIcxoXDIMLqRTiMYJ9BH9gW+NQ7g4EK2tcQgaTLqYxS341soWuHIw0UKW19dkVBlpUQxWVyXAfKLYP39e8r482uYKmIkU5QHQjrFkJQ8RU0SfnK4EfXs2RzRRXi6pXE956iK1MWppBPTJX0RUdAw0fJtMGM0lNXhkYCF/Lsb7UH3Tze8+/VWqvgZxzQaY0Wr1inK09tgCD/bug64Cp1ObzVi/TKETZITX9eOUa4k8TSM/y+/hgECC5Wv/tN2S4FkDjlOzsBrxpDvLQSAU9mqLACQ65IfDYveBB4sLd/9ZUemH7tgjIPaO1Dy3tCWJRkDGZFW3oNxBFUU5JaN24JOiH3k80BgghXM6BShiIfIEsposuCQt5YqoMVrvbRfDE6ceWxf71+y7SddsgKmb+o1cod1p7UG+qNSQQqdcefQJKommqQh4SWDt4jrHzDYcCV4BK3YwaADWTsuj7hR8kBG+E3CAwUgW/qTY/MQnU7kWzEeZ96hv00UwH4tDNqNYpDDvkyuEmara87kc3YkJyG3zMh30GWUF9PEbKkMFXom2tmuXgKfdleU1+27SNRlg1t/4808squpleHGXUx0pkNMOuPqUSsKtgkYNSaSmmaLkdWMHCsQ6e+s9KqQ9bT3GaOAQueag9zw0HV5vg5AX6qcY/Prj5ic/WeyfPWdfgFTkI4byjr6O5XwfzXCQeXrniqkH2NvoWqSUR3ogYMhEgEVexy4HlJAH+3kNdeAzMeLvpc96xz3X5G3SNRlghtWF76hG648qJMBwKUQal0Lfkoh0uqAwQrERNSv/TGwUaQooywSQCmjfW25hSGm0Ky188CAIICazUw0Y/HceqCSnQUa8OMXb1bv3319s/9k9ess03Uqh3Hi5CgAfqugARVu2w/fCFfr6krEJqQmBpm6G+vvsyCdEYa5MeVB3DFblyGf2ij6Zgyqh+GG24Ykbb1pdW7kmv2F9TQaYuhrdbpvGZjKfaq69SGGDlMs6CKvX1pw/5xZU8+DNxi27VGzU3Cn9R0r+cEDI8JpCG/WDg8KaT3DU4X8bfFodFJKqAX5atzj38U/IoSZbIrGRsbF0FWVAnndQjGLgWZxUhTQSSpbAeIeuJspYQHogYBiNEx9k6lgZzU41JmGmwlRMAGltwrKpr8nfTbrmAszqHf/oq4t68opan1zXzuNBwNLx5ZMQ8/m60EVHg0DBIsFuigqD9Zs2glDoFGSSwMr00X4gYMTphCNU4KEHrPzD7ZG++Au5ONQy4NEohfH4usDWZz8jt0ln5TYJP2siqnkNyPWBJ5sXR42QKRWGtFM2L+RIzQ2gbU47iEqk3BHUakI57JztAEJtseZmAmqaRlAuwM+aSCD/lhf88pefapJrB9dcgBmNTt1SrZ64scSH67JZjUsh8gDzsyg95eskQReqb15YycZVClmiShIF0ks6IuRahyyvn3QeNICgbL5ptE3K6FWpyDSn9YIzGYNUNVordr58b3HhC3KbNO9Jd8gf0Dh4pwlpksllXkBgV6IutwftKzuFvCCghZXRrMFlqstbzwSQZuhTzymGt6sHGzecqlcG19xt0rUWYGQ1NDpJ7RzaCrVNbvLI5zRfTkcCdwUoWCavN4fWKyqlXmkqGikYwfz2hSnVAp6E12DmegY9XPkCL/JGKyFiLxts86MfF5nIUVmsOOYDcrNItS6ncY8vCt3vkrQ5Xv5APwsZHuQEOMAmV8c8eOaDPImkbfrdsbJ4XXHnnWECr35cU5258bt+4SlCXtmMd4Vgs6hYYIxtJySGmHaS83yOfH2AzrLtgnVK0kpAmW/55BdZUFzAgyF1oz4xk/ZRfRqYV4lc1L9mGuGVcZnYsJwGHMkP5Dbpc58r9s+d6z6vNwPqJeje2tLVkU97PSozzIsLc2NFRI8TjLT2UmSkqaFqR1vQvAczEItEPlJBrtb6nda7F4qmbl7+nOf/zSeb9NrANRVgxnvbr6tG6xvtwpKpC7OoUuRl82B5mcquVoLGXcRFEWm/dQ/QHm2TlNBNTOqY4UjrER2LgjAAKZELKFwphUyRtlELBAwQXD3KaIBBcv/4MTaTw6QqqlV8N+k+CTKfL6vhSHRmmlMU1bZB4JQy0KRkOgBp+jIKxGHrBYyZHGxDKTJIqWoflmXEECvoKLpQR54iokxoYNUzEnlQ6mu5pR+euGFjUOzd5qJrAtdSgMEf4FvsiC/TxnWiQUYSd6btHmOTEYNNlLQ0l+XgIslpAjdyjtgm1U9T9SUsKcBisypUdaovKCHDf9ahyYOK51WH4zpy5UD+qpbF5ifuEj2/CWWYRVOTwEgK+3wKUddueqNA6kLAlD8IYnKZFQWVdqsYJzZQXNwutTqCuh5AxQTM4CkCWEOsKbYAUB5tllOihPVbhO9r2FWJaybArH7n//lUmalvbSa4PXJgmjozLBelmFIqDNxgLcXVKK3zUtRF5Pm5UKdySVQS84BSZrrgEkwUl2CKQGG3QOiFKyBTKhPv72G3LwgLdXske3dJAs1oqO8m7Z3bLPC7SewfaOQVU4LZCLGgwwNoBhLzU8gLRIhMyyqfmWCwVGB9NCvQGeiUdUrEoplulkea5a4UIpxsy21SVbz8+b963zXzbtI1E2CGzfjWcmXjBB7sreAsx9lOMme4oZjvwDejF4qLg9Y5zRHLEJFX9Dlj1EBGWVAwnry9nSAjSX2rzBWwI+sGFjQ9gLAxGkyQhT0LwEbIaLXYe/B0ceHuu5tq1L1NApSXS9rIUemgLtJQzRSgT/4ioqJjEGTiT/sR1ZpBRRSCRj5Drs5NcyoIrGKBIgYIXIjbpMH6yY1mcO28m3RtBBi88t5Ut+kaAriW4prKEW1hpCtdEuUBdgJg6romBaJVnw35A8ECCmRCoq5vZwq0WFDxlx2TUMq1RVvD9MQ71ZPHu0myRCZNsXnXJ8umqUVqZfTKTs2B7nkxPojOBYyQIpBVEcIJHcAhkmeTHMjK9yH5zEA53M1xQzOa5LSDaEjoh+6wJSdvKu78oP28w1WOayLA3PCnT3q6kJc0+OZ0WGtpAuM6A/I8BUrkoise1Eh3HZhQ/0oKWtqFSbuUPED7WRRtaPlAkyEDAcRO3Y4mKmdfcAUv/6HXbUkdCSjk6dO7YinCcnW1uPCZTxbjc2dlxUjQEfHUfvd8LjefLQVy27yMAkIm5okO79koU6jQ2Hmg2SzTKHe+RzQTqdswZPkZFLb17rYM8fCFz/vGZ2BNX/W4JgJMPaheXa2un8LPwnaAGUPCBHKm8/wsqN6N0u7IC3Xlvk4U5KOMYPXzKPkppB0rNmoUv64g1PX2DhH0mvVTDBhJekuEk43bipG95gKdBU8LRva8Xnwfae/MuWJLH+Gwoi4i0A6YR0p5pAcChkwdSN7b2gXsII/24PPyGWgyy+wgvSCq55hZV4IB8tpiUO9SGjNQfOhu/cTJcjC8Jn5e9poIMGVdvKldlD5rERRFGia9F9RzZ+pqiKvCSAsIbHO2pxrSLlh0HiUf0TbJtaQAWTTRM1a/JcpA8HZtDr1F4u9da7KloTELD6geN8U5vJs0mZg+oK85rCLSqWqjMFcmOVJ0jAvymb2iT+agapYJ5EwZ8qJsTU4VbqTNl8QyRCrjTO8QgNb1G0XQcX014qoPMCf/+595pszHzfrc3c6UM81ANCWN5rkeyHeSErlEmwQIsVJMGddOpIcBq+mtDvB2WQCSJJWoRFmTaaBh+wW8zdL4Aqo5LAva2BLBj4Wd/8zdxd7mZvfnZQVTG+QgxF0FdHaWA+2K/sCrXRQCeT6A5jTpKxr1PciLRvOcRoGOHmkGdjcOQcQEDwQfDm9+wXtOf72Lrlpc9QGmrCe3Vqsnp2+P0mxzinumuk/VtyL6oDtSEuyVgvE8koKMCftONjPW2Ez5gWDwANWE/0atXvNsH02HvD3dII9//MSLfiMd5aqB3hrtb174N+Vw9dfL1fWpTTJ300QlEuqNgFpNKHf7RCNg0ycPoL+smiRnCoiiSOGCbnJ3irxQRE+BuePkwG1StX7qRF1PXuWiqxZXfYBp6uJ2ObcLly+DOLvzdD2Y54JAPtpxNTLwzASNWyCXJ2BROhNoSjTSZrFtptCrn0iUhxqBxoMP7cvBarF/fvsX1x/3yJ9F/+y7SqpaDNE48dGB8MhCp2MYbZgA0gUQTQ8oxp7CjBQAjXwHPQo2O9KYFgVuRWWU3+TZqxZXdYAZfe87v17+ur7Ybo8A2wztculDXEZEjy1FoJGfhdwmbc5QyFmcEuxqXBddCddkvjYXW6viS04hPDGhTbxVQuIoKIVpaHODd4v0BCP5aljUk73NauXx//YRjyn/3WTr3OlyaL/+qEVy5LsrQrJaROSpaJ+PRRBdg2cCYl5SFOc08mgK8wm5UcwHxG5HehQ0+7tF3ZQ3v+DXv/QNLroqcVUHmJXdC6+pRifWp2+PCCwXrt64iqMMKa6EaNcDFqFZn3mus90r1YB6bZ6NGx5XSg4D+MvXcievDt2rtMNqAyvXFCHsXSitXWSg8KFBEL+MOVj7vd3/8r9+7jeeXD4kx8b/kH5edqpiFwSFe1WZDgN0Sk3W2oLCkvk5iEUiH6mAanrVdvTQqaJTAoHzqbkC8lF2ZHAsJDXjvWJ08tRGPamu6g/dXd23SPX4TU1Re2Ye4nJiiogyrJRcH8CFFM3mmHd04DXISLLo0gG2If6RAnZtad666CJzZ9C6nA/efMsnqN8kstr1NZmBnWSaweA9phN5U/0abFKBsDE6kCxqgpQqy4HRGoxPFMh8RKgjTxGUwU2my2uJxTPTFjN8AakfQiMPtOPX5Weiz0lAPd7H2ONJd4t4uyJx1QaYE2/7uW+Qo/vzCpmEowFzxnmLNOeZd0R1RMzPsgE6OrmklWiUy8woAwFoC/DdUi3Nl6nmUQfrEVo7r2GEOk2wxpKQ+iRrn6UZFnILeq5avekDWkgw3tn74Hjr7P0VTjFTGwRUkmYZTsSPcxZYlPEEkPaAZn0mubzPJqDPNMnAMAFCE+sMqA9dohExRkR+ClD2GSt1nSTcJjV18yK5Tbpq3026agNMUzZvrFY2NmbfHi2KsPiV7wPls/QBdBfpLCS3bpxWbV8hyJimqyDtk+GqgUozdjpC3vQaZqRqudpvzAqg8ddu8BmYqvxPm7/2A3eZrij+6C1PuLvZL3+n9Ec46IZQ3+Dhx3lA82wJEvkFEP1EzJILqIqUaSZ6lNolSdp05r0rpEfCVEHkJdExxgZUEl5bHJy8cbWuR69X06sQV2eAeUczkOF/jb17JPAJSfyhgTIsl5fP5bPsBH0qrJ/ctKdot/1YbJrpt3Vhe5vDvKErFQiTnpSnviGAtmtpJxaT004/4TsY/bIaBDRN/a62QveleQpBIY/5yGfIzfpMM3luMot2EJWSuN/zfc8uKXXMsp0LGOcFOw5CRRB3klxqvJvUvPatsuZFctXhqgwwJ9/1fz1DpuPF9t2jsALIR9mRgPJMmGkg+iSf0wwQI+UumJ8Fbb8ktQ9UMZ/SdaxCeVVr2BB4aJLggVewtDoowIDXJEEGp5d6//Rg5ZH/ViQdbJ9r/s1k6/yXqpVVKSuFU4Xq2ZGEswETmkVzytm2qAugeIa6i8wYhKcUdD3f/6Q6PoeBjocnopaR1rwkOox6BfNuJ8B3k+q6fsldo3uerYKrDFdlgJG5enMx2hjqpBGcLFJOYk4PDZTrK0sZKOqM+cw+inI6C+0aEyrGao+LCDMfNKOgPdnkOj+RgE8mJtf/MnZ+w2TVDOQWqCp//+yv/MXPqGnAx7/nsV9qCrybJAFGywBtbXNBs1nmUe58j0jBmgHySQZDlmehUFjt5BKXSL6MQFPZeegrGAHnWpFXluyYaN8th8ePDDdOjUbDtavy3aSrL8C89c6Vsq5fU+qZXxInTidPQAqAx8RFelFAeaa4EOiXFLpcFpCr+kzB9+m1D5LYF+YTyFPuSf7jFsgCCGCnGbz2wp5Ab6/BgkrS483qv4akD/Wk+hX8uJ21IXlxmgFiJiA3y/U9oJq1xVoB8rpXg0Kn3vmWcbseeiigUJ8DHZMMUGsKdkk4A+ofj4Otb3/WOxr7bMBVhKsuwGysfs3XlWX1ovRg7zjBfcBEQx8pQb5vMRwIlIkpYlY+lwvmqA4E35FRIpfMVxyVdKqhjcC6jQAjYUdONhp8UEiI3R7tnhkXJ94Pqz6U+5v/fnz+/H18ENUU2IDYkAjImTLkRdlsUMhIFdE4CVuwLBGXTE4XQnRwEGDGpFiwHCHm9e5WUQ3KF63V9191H7q76gJMNSlfJ8fykU5wXDnzgkWuIz3S6pqFWC/5PhmR5x0QMwGRkidiHjxvpdIt1TQ00OhtkkNN8Y6R8TY2kgYrYjb4tzvv+gt/BlUf/vDNX/0lcfXb1cq6SwQcypxGQNYnd0CFVgCkubtUfErQIsaBY5nqvHAnLzzympB12mlY5BeAm+NrA4P1k4Nm0Fx17yZdXQHm+35mrWkmb+jMEzbErABC2oc+23myhQBb2kc+gnJ0Iup7bCk6wCxBdXIB1SADxhMIIDJ9tyhCsyZLn+5tJrhFeq8K56CcFO+qcZpE0GKX+vYRZEyOmI3UWjKtS5ipaBH3PnlSdvFAzHMilePsh7xRFytam5Z2DKaRm0Zz4fHp56asb3vaj9V40euqwVUVYNZ3q28oy+FzOw/2ngWuoJxG9OnAYxGRpgV1VMA3/Yd6OjKkQ9STuyONyHV6OyXJ+5Ne7AUgVt6SnFzwGYyzk3Lwm6qfg/3R+IOTCxfurfCCMBC7AZ7JEdWsETJSIBaJ9ooeBacop7MA/UE2HWeRd6rtzcQGaCKdAZYBjbzTJHa+3tkuquHoeRtPuPe5EF8tuKoCTNUUt5VD3B7VNvgC0ilAQWVfIJmHGGSYv2jQxyxfkEebWXYC9AtqUmCOeWsjTLBrgwqI8fqKzHAV3G9vv/tvfMmUs/HhW59wf1PUH6hW5TaJY+4JJAerpw4UMtIECKJRzAfETX7R04bCTBFRBur1tBVEyrKkPdCyTnO4Du9htJ9dErE+EPxENWiK15n06sDVE2BefudQRvpWPHia8wOQTgGKPmVcdfNWYq7rszky4IuJIJ/LYt4RTTEYTFGeI8mEAY/+SPI1rCI97MvJBm+N1oO1XxUp1XNRltWvT/a25eTTLqfYnFmg85y2jMD5uOfjXge8K1PyWGYmYMREOK/Blg1AZ7gG+OK62oFn2eAjB1RMgPOaBfW8gtSBrNY4nsgYl7cXH2yumgeCXzUB5oYnPePmohw8t5js22BfDOKKjPQg0CbaLlJuLlAeKS2jHtAGyGyoytXRLPIdY4G2XxLFlRwQ93cfLFbL34Z6EewVj/ltOcJ/kV8dyHuCPBJAOoU5Br7flUYeQPOj/ED0Oemg1ampZlCJV6TjFctFPgNVfSYu0xAuLuEVyItEOtnbLYrR6Ou/8dzpF5v0ysdVE2DqusbPwsrqt68HcOAvCgwOXKWc5QjaELFM1M2SLwyWyWnEIjY9wGB1isRyXR/4PepyMPzA1r/6y/e66EB85LbyobooP6BPupM8PYKP80Q+yXoMYhbgnp41rNAvhNyQeaWSQJXPKuJphS3L/eSgehYFnE+qPJ9RoqnlNmnt5Kja279qbpOujgCD34iRAIMBtkNrz0q7WGBR8YVQLjCVhWnuW+FAtCdm2S4ElGW9s/xQPqceqJjgLlJcOu22z8JoAG+aA989yjEYVO+p8SxZuU1CFWHUtDqvqYUbqC15ofiLDsqEpkX9kTDlAFQSK+BYcDw6cNtFQLNozuLsh+toktO+FkTU+3swuv3mtzczPnx0ZeGqCDBrH7vnm8ty8OzuN6cxFbxDboMOJwqI/EIwlwYutkQlpQW5IKZ8HKJstzEhAaTEQXpBVIV+aFauOn74cN3+zgP12spvqfIQqMqbfqvevvCFSr860ML8+1w4w32uzRBqLfEmSYrDFG0XRjTudZBVBFUnRds5oD2QU0D4JA7yaBKB1uS6vHy9L7dJ1eCZzWPvf4lJrmxcFQFmMGheW65sjOybpQZOhr3vYaNvQYYWxwgsRJxulEpdoHEXRD4HdbHsRQHlref9oBx0hk1oAz8TA2LfPRr81mFuj4jfv7U6J+P/W4U/SpNIG8tpbHkcCtqRHnqYUJCJ+fhdNTqknkh5UKYDkJvlRVxPMSlaAH5W12gXoa/RSBu1jFC8m1RtnBo2dX1VfDfpyg8wb33HStM0d+Cb0/r9GBlqfzNVB90mJU6ZTaFPifOGvglcGMldqGvWos1BPezBsxxo5BcGbUFj6kOud6qEvFBJIHVTvtuEh0fTlL+GJ+LrrZbmlQjjVOA1dkC7SFPZecgL5sjHNNkzsdyM8kQ06zOlXBLVpGwBKGSREqlMZDpts1L6M0lQ7e+A3v6sd/zJFf/dpCs+wJwc7r+oqsqvw+svChtjRQwiLdqAYryFolZ2zNBFLCkt5tgWR1zo5EG5iKLsosDys/xAjjp76pPTS72/82fF6g0fdMmh8eAXL/yHyfbW5/AbSqiG3tNeCaCsT3cgUGiuA8ioZ4p2QX8QaJab00WQg+UIA5GfRQEdJxEYpUZywttvr4GKhJ8a2NfHlDxrOHzMi0xw5eKKDzBN2by+XD0pEQIvPkIgSWeCVC74r5vFTjWA5UxiRahrg01Oj4xUqTBaKSiFcwAbLihSlsvpwqD9rHJBD5b+8fZ003xw619916Fvj4jP//UnPyT74QN4zGasn92MCSBdGHMLQOfO/S99a0+6IOYVE1lsRjRFj5mP/ExoW5XRLCg4e/h6N7hE1JOJ3CbdWJXj5g4XXbG4sgPMW/7BetPUr9UHSwEYbySAM+iUk2CnGkxQNCTaYGO5Nu/FFeSj7EhYJFjkutQRoZCRHgkoF1MOkWER892jcvAuVxwZg2Lwa3itTF2HrhwZuZPgTGcNeU0iSKrECMj39b8HNM9caLWgQuiJPChACkS+BaSuEYdcoxZIjDrXUmMUbddruU3ag/rWm999z4YLr0hc0QFmbePJL6yq0bNxX28Iow0gi0GnOKqF12lSmSmiKafQphQ50G7AMY2hj+ayXuQB5KBgAT1tsKLAkxLko2whwJ7JAVZuj2SMPyeB5j+Y8OhYqwb/ebyz9Wl+w5qbAk1dqLntLmr5QBlUQKPpwegxpgiUiUQu6h9UCJpOCvTJgOkuwsIpAokmBhf0wfQtFR9mkug0pPf7u0U1HDxrsl2+0IVXJK7oAFONd99YjtbSKFugl0tcqWRz6hPDCbIJxbK04GHIC4EDb9aA5fpptDkU2H7QyEf06UhTp9qeHB7wZf702S9N/cHzv/wX71fBReA/3vaIh4qq/GBRDehegaYe2NzYr8g71YdjISt+TcwKcnoAUNbd5hSEL3XM8j6jqCLygJ5ORGi3PUEmOfpDZ2xqzSJ0OSCVtqucEqv1k/LHobyib5Ou3ADzA3+wIaP46vbFXZ8OTgTzfYAqJqBjTkU4puqVsEDEQjy42rWlObo+pvMdxGABnvQgpHEIdJFys8DvHpUrv+aSi0Y5KN+p73T4u0lzgX4zRUQZqHQRs6V9TaZg0HcKkmIa80yCGwYXIJqSj7JewMCNUvODwGSyuoRqt3zqaNsPKiMVX3Kybybla57xLz52g8mvPFyxAebk5ideWA5Wvp5vTxvwFywsMJW7jjbJNoCiTEW/bZDpM8xtWkQeiKWAPN8LtAGOlAqT94M0Yp7ukNDPvtT7nx+un/pdF1001k7d9J/qyfjj1YqcPvuAfjIRiQd1Ht1jHznvahf7zXIzENz18aw2NgXIzBSZSQdaXlKyFYG2ElR1Qk2AS7BzRpGkTgHyoc8QScIDwauV0bPWb7jx+aa48nDFBphxWb4RH9riROEKqpOU/jKaRoWYKc16fha0vCcgmYKxvzVIAPk2bwVBKTsWpLYIA8fafq9h0YpQJqZFMViVvTv4wObPv+lBl1w0fu9l1abMw29X/N2kiO6OcoiMbVY1eEkaVKiL5fp8ZIBJbhbzXh1AMYvkxQ6CLT2sHSuta1ZYpeiCSA+eErXKKOF5iKK4qYtqtCai6s0uueJwZQaYP/f+E3JwfxUGkPOSz49tdqH8UJe+EyLTrDMqk5xm1AJC3wwnC2f4VrcpnG+teqglm/M26MQ1QPTJekH3YNqGGSVmySOgY2I+B26PJjv4Wdhfcckxovz1emdLqsC8SO+ZAKVR5m1LeiOJofwgwIwJiMWcVyKXg1z2jFbrVtsNRjPJNpURpnVvUi2ShK3WgPyUFwEKgTgFSAGIJ/rdse942s8/cMqlVxSuyACzWt//Irk9emYx3u2MJ4A8Eqahpf7SrGyiRL0g/gjq1m9nN4ESpWJHqoRUE66pFogTLIcawHkwO07QnTZIEij6gqxSGsxB6kxG9cl1+59b3V/5PRMcH3Z2Jr/X7O/dhW9nGzA+klKbJYGyLR247SKgaW6OvLjWaXcdTXI6qwUR2mxJ7YkaFjitqFaoe4GdcQoNRh0gbx4sAcyDCKWK6gg6h07GDl8wrVZXnn5yZfeKfITDFRlgBsXgLcVgNODk5OPMMe6nFga4eBMvyF9zIZDXOnCRBC2qhrme0iXx5z36PtBnaDnj22Cjvh2RPzRSpcJYo4Qu6JF22n6jeHKdHDHe99A733bWhMeHj77tcefronhvtcrXYVCvtxlAczrJ23cQaA/0FREZXUWXYL1mBXnQ3E3KkxFHZu/BRcaeVKVKGWyQN9oPK9NSMZ4qOMcBVKqW8rDHu0mj9Upahh/Jv+JwxQWYR/2Ff3GDDNqr9cNaAfmQM5/Gu4M4iZ6woVTUDTpACgW4SFJ/pIAwHZlSMwYFp8IAlnXPAg9ix4Xk1tqhKfSpA8hzHW6P9nF7VP6GS44dg+HgNyZb+A7kwAYkDUo7Ol3FHORmOe+JYlL0GjwpkdtF2IuyxqOtlnWK4MLjcWvk9CBk9iCzXPTlO7I2o58Ta4pbXvTeK+826YoLMNt7Gy+tRitPayZ7LmnBIc3pLEDf2nCDhc0WN+c8QJ1XyiJCNchoHhcEHFPSpGPsydz0n3IODboF2KcYUNKGbmG/ezT+/IW1G3/HRceOEyc2/2MzGd9lv5vkbVjkrzQQzfpMKZdENWkaCkmQkfYiFRYmtM04nEqktCb6hUyuNF0UWkiZlh4EmDDNQYPbpJW1r9nfnnyzi64YXHm3SE31+mK4KjsvfNX+AHAB5Ykg393Mvrkh0gTe9B3q7BQFwMOZUF1wrsvrY8hhMlPUDwu25hhBZ7P6BODJdWXzruJfvmHTBMeP33nFU3ZkXN7T/m4SR+YAtAPYjyAHm7rrKS8+y02CGNhcSZIGG2+BxEqLBKK5yGuzcim5+446woNYSocAnlMtY1w2+81tLrpicEUFmMe89R0n5dao/e5RBs5xTheZD9rktPUCCN/ZiLCCTAW4TCOYJaoQRnmjDDbRxIKMBzqXtO0y23mUQD6XdQR5cMGLu+Oduhw3B/4syUVjWP3m5MK5Gj+FMhczOqdZuehm96QyY3XkqAJIZwKO1Kil+Jc43ejU2ZAhqchls0EDpzHLAOLQPzkxqETlYSFF8dWBopjccvO7myvqu0lXVIA5u9K8vByOvrqp8XV0FwZwCnJKsEhetMdVB7bBzYp8lClVFtRlpADZnHoDuTAZSGJAaWG8nXWsKLh5lEAeqYMpQQBujyb7n9t81GMu2e0RcfrB87872d//hD7CYRbYmdgp4TFu+s6NZNkd8qAAKRD5FpC6RhymOcDmdqqc6FzSmVq0gfPXIgqmlAaKExUGvOZlfalTKo8AFhUKFo/SLIerT9nfvefbTXFl4IoKMFVR31IM10p9EpkvgEUASyQMdKRAX548AB1p5A1iGYVTzqKnDMkmUOVNwOVsy5syA3SU+/IP1EAKoFxsZqRTEIU+2Lts3l3889dfcOklw91//ik7ZVW9p8KT7rjJAFAmkiiTDuZ9dXGiROSnoKcEJPy30umtZlCoRJfT2aASNPCaRWEkkyZAJv9b5AaHgNYjCf7cjbrGu0lrJ8uqGb5WhVcIrpgA86i/8Gs3SFx/nb64y407bwMHcMyBRSh5gDXkNTFvb21LyyLFgiFc3rY18EGUEPjYDgYc0i76HLWANLfotxTgodyTnUmzdsN7XHLJUY8n7x3vXBiXA/85n3xSBOmNGSLL50WieqooBJJAqbOgIaPrgja4mMBJogZmIg0jjCyTQpjkyIjSvHNZ9kDAnokgH3T46kAzaW5/0c/fdcW8m3TFBJjt/e2XV9Xwq4umfXKdUTCS4gY+JsAT5iZSJs5bn42tTAiiBhA+nenVsh9QMQHJFAx94jbNANrykDMdHji9yO3Rp7YGZ3/fRZccw9XH/36zv/1xfKw9wbupQ+gdIevZKboI0ulE/umwSt6CCOVSrSoOgloaq2DeqfrsQTBJQH6G+VGgruSiTUBTXIa3q6vRyldtD059G0yuBFw5t0hNc1sxXJcwLLdHXAE8KXCyKM/pEaET1UOJVG1GAZxk0gf30tcVcFFWqDALtDcdhhI1xuQWSIi8fVaoG2xyOgV8/qUavq/4l3/pkr17lONDry8vSL2/WQzs8zDcm3GP5u1lnrQdhRbt6UMo/gtVu0AjmO1S2nRt2xpFnkycTw6M9ELtjF0YtGfZ4COqcEl5MgJ9hMPqBg6pr3fRw44rIsDc+H2/+ghpymua2m+PMGigerTkRDuY7du0kT8iwnwpkKcsUtSE10XIY0lrXoON/NX0fhgVhrQPFMNRoOyOvf7SVfI1mdYjg1EbbKYgDut6f1KWg2N7NMOiqKryXfXetuwAezcptjHy7GUO2DABOqRKrddKRaZDLAJ9ERf/PXWRvEiCMlIg0FwEgEdiESaAVJVTFc/GVHmH5FUECibXZ6h3d/BH+tXP/oW7H+mihxVXRIDZH++9tMDtUXiwtw0kJ4iTxSTgQIPGVZTTIyC6JiIfPZPvUKk7p7Y64Mcso79UGHAFRCiiRZFXGzO0ry3QE6WEWqcU6yvxzel6/PGtx9/0X1V4GXHvY3b/sN7d/chgbT21t4969xNS3gOI/s0Bb1Khxtk4dT1h/Ji6iHaRAigA4hTIy8M8FiE6durE2FnI/LOdqaRcQLXPoJ6AvHqWqcd7copZ/6pBNfxWVTzMuCICTFk1byz1XYb4OzY9NI2qMMqTOnwibDdKxnblsYPVkBLImwz1sm7jeUuloUGp2Pa1z0XqR/hEwUDnMgsy8ANqKlzNs+W1rFIrqKeravSB4h+8Zss0lw9f+Oav2pb+fgBtsHbH9nUpgT4zoBg0I1kr3VLoAGN469SPqHMe9mCZcqAaQHWSibZ9czgPsSxACsC16/Q0ZqIORQJICejVBk8gGK4Wcr0innT3sAeYU3/xl26qm+rb0pPrIjBikXaQK4VGO764wQUQ6WEXRUA+wflEz4Jtfau7pVCwLTnNAHGoVFmRGWWwQd780zR5E5t6slfU1aV4NMNikNuzX6m3NyXGIMjMABWy06ztJkAOXDeotMGFdDGI8VTBOQ6gSmaZ3UEVB/VUUVIwTALrYUsB0pmAE0koo7/+WBaveMn7ztxkyocPD3uAqffqbymHo68p5Gi3EDCCMSmEUT4Ik06ATawzBmoTcZyI3lgtZaBR324bUAsMKciAyv8pGUEWtOvUywXqgC+Y4/ZIdvhHdtaf+oemufw4e37835pJ/UftVwcySMO17TI/7TixD1EyC9RFmx5ZnxmQF2O6WLgfa78BIjudtXJSiCOdh2ijJ2IZOzzCYTDa+OqdzZ1vcdXDhoc9wEzq4g79tu1Cw9kDzEo+Q0mYBMHG5XHjEn2yDMlNRuOiiDzRJ2/14iVUnZqhDKyCkkg2TmmWzOWC8vJftyY+vTuoPlD88xdc8g/XzQI+dFeU9fv13SQ2lsFeg4oy1l5wIlPObUAOniL3pzTwypICwZHIPAybPtkcAbG80MAaIJPEWyDKSQ8D3gqCKhco5rusizch+3DiYQ0wG2/9mcfLX6bvaH/U/sDVczDoIlFfONF3rvONaDOvGtdNw6Z0mgKxRHLj9CDYVuLfaSuVeCUmS/kI1RvboWgcEl572b8gt+ejy/7uUQ48XHyydbbWt8v1dkeSbgxvsLYZVCTsiwCiSA3MdIQZ4N/ZrGyJ+l2mm5Wvph4V9JUurUueVjybKNAny2E6jJNz+YAI0eFyis/ETMbjb/um93/psRA/XHhYA0yzvvpN5cqJryz0y406LE4vAnQRXSWXYGJqiTJY0Vh0SuFgccANq4x8XzNICdYUqW04QKgqhKJdELON0aYPLsaDveuy/NOdR5+87O8e5XjEf/vIH8rYfsgeRGUbRgONjHfajJLlFBw8DTQARSHwTt0voacUBhVJ3KwJWXYuaOu+YtkUTEBDEzx7OEhhLQ6qbZc/QsJ3/Lh/QMdNKJ71M1g7+VUXzpQvNc3Dg4f3FmncvFX/uqYR4rCBdoZwcUQXRJzZ5FqEaZNSKSBLndIMPTL2QCfX2A5FiZwS5Ke9Gvhuky0rWWDI0wl4VYMq01IALL57VJfvKX78Vnzl9mHF7/zQK8Z10/ymfm1A+mAtlZ4Jgy5pThhuyhZRQD70EzwLRQo2ZYW52FMKQLfRFXnQ0KzUFCOJ9mHKRgorLzSNk1yRUlegC32y+hCMJJUD6B7W26SHLcCc/O/f/uiyGnwrPn1oQxZmJSHKZ9ksgOgCwCSkzYiLCkJykFVbSSxjs3gosESk7jXxpBF95RSdHSmJBbWNyUpmeCB/zbb2J6PBu13y8KMufmN8/sy4Gtp3k7QrocnTiB0NPAqpqMcBshwThWcys4WgdRhLCm/q0XUqdnqE5WHlQb2wBgjlDOCtB8J5BhZx7FiWaMZ7eBPlVS98z/nHu+iy42ELMOPmhleXo3W5PYrvHtkQtmB+lvyIQHHMBRMDRy9cRxPa5vQIiMuBvDZngQSkk43Q9m+cX9iualjUTfGJnc9/9GG/PSK+tnz8h6RRH7afpZHmsvOKTkagnWkTslMmLqCcRSKyzbcQsiKpmlAP2JBNiHyOXIfAoL1z2mmrsHZAcZkQy+KK2yUfl+S1pQgw1fqJx++cO/sKF152PGwBphqUr8Pi7wymggMWBy0C8pySPwRYDMnmqnWDzakbNCoBp9y8OQUif0S0S6RLI9gqLEnQlsctlEyrjCsCD77cWJXlr8i9Sc8HjR4evPNt5aSsmndVIz4jJvaU4we+7aUi23gJLEIKsPhRwbJOlcjF97VSVyli1fPgxZVqeXGkee8bCAIK73p0OSHjr71YRVDGGvO8A76xx4ryYftu0sMSYHB71FTlqw9+NANkTEBuE/OzbBZAnxuf4CTQ9nGCwQqTbASx/XP71EV0EUF5pH22sQbyoAgyWFz1/vbubjO4ZA/2PiqacfH+yda5HXuEQ2w5ID1NHXfeN2DvIABq40kBX/Q3B7SP5V0WVSkDRF6g421sQqdsgLYIG1/7ZbdBqWtg2GwJKvrHwswSLBDFGnMaILb6E751/arn/OuH592khyXANJXcHg3XHltM+N0jGTAdXB3+GYiDOsuONtTP83cAUDS60aqF4ZFU/8y4jNB+BD7SYwLdE3me0FolwDRN/dHxuPyQCq8gfPhjX/GhZrL/p6WeYtAL9kQoWHSgr3OUMwHJDkqOdzSYAaj76pG8qkDBSKJX0giY5OjYuxMNJ9j0kAmSDRgIdf2IXs38xGKKQMkDpAEs4qp6vF8MVk8+uthpHpYHUT0sAaYert5qP8glo2CjmQa3syHJJxlozjNPRH0fPSRmFoegRwnWJ1f7A+T9iH08ApL7jOYoqxGq+jW5J+n+BsyVgB8q67KqfjX9vCw6oWvBsjM7laNjp06MnYXMP6colZQLqAYXUE/kQQnwMd9BcmzU3mKmfVuqsxJUHCWtXYtMFrN95nUjf2fkJDtpHpbfTbr8Aea/+8XHSVh9TTP2d0yx2fo2YJ9sJqBj6gPl83wsgL5qkuugVBmoMgbwWABKhZnbn8ODayvRaiDDvL3T1MP3ueiKw2Q4fu94e+sCAuFMaId87JiOglg286ExQFIMKjRxlYKUgB1nMdnAWQoqTiXJeSTZ2qtmpjdzs+siyshndlHcZw6I78nuNrhXPutn7r3s7yZd9gCzURSvrUbrj8l/WK0XHHhSbsqcdgBZn5ygLtrMs5+BWM2UyyhIQmPRFQ0yTnP09mkxcF2p64Fs2nr/T7fH5YdNeuXhGXd85R8Xk70/KlfCk+4IdCJ1iMzhoUVD8eTSLwgqQJoap4cFXlNJy9UToJRyV4CabazNlSk/AweZUBfsmvG4GK5vPLIq928xyeXD5Q4wZTEc3FLoh6y89/OCRZ8OPMpG2gvImYBoF2VI3hZFtDsE4AKJLgGlFAJCOzpQMJC7gONyRLRuZWrLlXfL7dGC3yK9/HhnWU6qQfUu/YuOhusYCnNxQ+B+LNEtAKoBBXIKHdHmICQbmSvlSWNpYVNdIDqv1Oc0RybvM4+ymABUGKGPcFiRPzqlBBh9EfGy4bIGmI23/szjZCpehffndRC4qXJ6EGDH4EJK9PoiH2URkFOHWYr2s8o4pP4SE4gncIAi1Z4HpZ5UZYEy5XmVTaZ14OekAhTN2t3eGpz+s39ljbxyccNTHvvOem97syx5m8RdcgigiCQtSWqsQm99JCmVPOWkh0G67RGqHKkgrRYR6ByAV0oOML5dnonpoi3cpQB4pj70yOudCxJnmlc94xcf+AoXXRbM6N2lwdr3/uvvrUYrP4vXX/RtulmgLgaQefbEIjZTQBkMQ1/Z+f4QAGq5FWlGa3jhumj0W8IHIFanoy+MVqMZQVIIVHF44PZosv9nkxsf9+PiQ6LOpfo7Eh4QpmzIA5O9stjdGRSDqkHgq8b7VbG/PZB5ko4hGDZNvbs9esa3v/CvbDzmMU+Y4HGPh4UPURy1lAnDF9iFEd0olWZ380KF0TyFDgtEtCZiPtcF9Ilzd3OK90Iaisdk7G1vff9Hv++JP+vSSw4087Jh7Xve+avV6ok3FHvdB6px7IiUT4MqzGGCTAxMlPUCcq0g0Fno2pR1U+yfeESxf+qxRaOvIXhdVxLwlMDjbhe6j5ilvGSUFyrjUTR4XQ3U5bTD622iq1yG1wT01zvxLfrzZ4rHPe0JxVc+9xske8BnAcXtzGlymZqIjU4/804XhhS273uxNNAGF0VwHJebFunUJjeA7oKnn17MUkHeqViQ5xfEYOPGYv/CmXf9yfc88Q0uuuTwrl96rH3/+55Ujs/9UTkaPQqff+G4RfTJOjM3iy6CaLdQudn6UjbL3ombiv2bniSHAzkdLPKC9cMB9PO4gWFh4ACPvuPPN0Q6DmpgNhwX3LoVFmDwSEc8SqDAr3dCv7tdrG8Miqd/+7cUg6EcbhCo+tAnhgxddLroUojIXKgTumnlxrX+k7WA/DzagxlixTzdEaAtkUs5WsEvQD443itv/thfesLdpr20uGyvwTTjc68sVzdScFGZ07ngJtGgoIxmW7ogUJ6J+QPRYyMbpB6uFeMb5VYWPq7U4AJgRxx3wiQocR6IfKIAxq/VIczoiOKi4y9pOCp2Ni8UFx44XVT5LSaLRpeOpJIL6WGBItpCKawUQgfzoEmjGbHVtkMWS0Sw5Cz9DERzFLfKLw7eTBD90N36yUcNhvVl+3nZyxZgymrwBiyqfMi9/x0wn8s7g56oM7Pk85DKZlSRHGWpKPZP3lQ08tcg/SW/3hDHaYpH8pnrjKskodDoO1xYepDj2951WWx++b5ukMgmP+mEKp/pI7zWDnJzBhU4I0VSu+TfS5nKL/bxfauFNbldooDzuYgpB2RwR90suwVgbXUKkOrpsJJDd/1mE1x6XJYAs/pXfvOrpZffYg+Wmr8ASImYz3UJWKh4961DgzXys0BdTnshPstBMVk90fV/vWFqiEQAGcZOdaDKGFSOPCiWnOf1rXShK6vFOQkw451dyYrMh5YjrEMtZqBx1EXUi2gDeHGlqhNHqJaviSiRpC/UCqypkpG1pDZaEZSxRjeeBxYBjebkKY/5oyD6cR9K5KJ9YxsEeCB4Uw5f/Iz/+7OyJy89LkuAKfZ2X1GtrN/U4L5bwD4DccpmwcdGEXkg5aNDXRTC6Erx/DxEPcsCpAB4UeETsvouzVRLrjfEMQrjFCeiozNezwu5fDAsdrZwm/SA8HabpKOL8fZhTpvfiNJ8BvI8oWXEUecLhn741BwMPF38FwydEjEPvqfIkeB+Ou10CnC8gMg3EmDkNunRq8XKK110SXFZAkxZF2+0CcIr6nzJDLMpk6mLrYs4ldTGwYt8L6JPLuYODUB+yt4pZi/qwWJlpgV3HUPHhGPQjk9XLtATCyhthErCT5ekE4zeJlXFuXvvkwXpY4uhtxJKOec5jaC9QucI4UOo8LRPPpNTYczEE4RINABNxoFmYDEg8sRB+UURfGtTQT3pocszIETkgWYikrqRPXnpcckDzOqf+6Wnlc3kZXjXwEKLgItNoFwSM/i0yAeHmBq0jAKJZ3WJkhFwlvoAuzSLQrEh8HmO3a2uj+sR6H4az3Tpjks+RswrlUSKtLImAebBYu/Ctsoh5czMmaEu4lwpES/Cek6vAHwntGLHlECQyWIW/KwilPfpF4WX1S5Jyl3q6USSBhfkVTof+KBrMy5e9rxf+vzTXHTJcMkDzKAYfHu5euKR+GE1GxQ7JnfXXrug9GTjIBdpTHFAI7V6Wlkv0AA2IqcRUzZFMdo6XeijJvjX+XqHjk0YuzSOQpXnOJlc57iCTuSgOM3IrdHO1nax/dBpPd1wDueBNpHiBKLUJVYjauatj+idGkgB8ijVpw+AuE+Vy2cUPwhazMuiqWxR6g8yktxkivYh2UiAGWycunFvt3m1iy4ZLvkOqavmDrlaRkanfS0WUx5ukbDYZCSRhcTeCjQ+Ig4kdKD5oFJOxDKRKlL9GZ0Faedgd7tYeehLkhFPB9lf05jX96DDGDGpHKmSK2Qy7yrC/FfF2XvulSUCwQLwYGG0M6s2NSCgkrpqZnIKaCljCWT7TAnq+3SHgBaXC6gGEMumFqWg4rrDgEXUBcZLbpOqurrkPy97SQPM6nf9wlNlsXxr/rOwHCANNsrbgrK3L8GAQokABNb0cZAOgpUwW/B9dCa8vkSBwDfyF3a09VAxQpBRh8HueoJ2O44V+bCsODacdORT8nlGwilmtFKcf+AhfJxdVMGHIM0XNodTQ9Ioy00IrxZ03D7a9YJ6p1lWEWUxAajwCIguGVRicMHFu6F5lQXah9ymzxZf15Hx+eZn/dQnL+ltUncWjxnV6MQt5dqJk+nJdUSYDAsgRjEQONEodV0pTdQB1oWqAuVBAJcqOJCRRrs+moNlrT60QSgSGuEyAEFm5fyDcpK5By+Yie6SDuWVCw6Jjo1nlOV4SCbqnOo469iKHfXDUYHHw1w4faYpB+148nSif3mNSfPkJdUh3YC2FoDxqle4YQ4WySkAnonFo4toexBoKzQFRJd5V225OX8YsEik2kxxyHfRkK9xm3TiETdUq2u3Qn2pcEl3RVNMpPHozoIjJaadQZUIkwYoUQ8uslrUFLRdOReN3JPmdbaFIwW03qoYyklm5fQXimKCj8xfj0EmjNjUPCDvSccGNMqEUIYTi+qq4tyXvuR/ZSRM+IbgxoBcKaALwICiGoBExoBkSNaqM4CJNgJmoziX0RXyTIdF7hNwXtun/fC8kV5QF23IazNtIDTFAA0dchps8MpFXdwqinaQjhmXbEfg9kjIt+k3p8M/6/7s/vBE001WtqlaHzpktqpUooOWUQL8rASQzoQufKcwjnnZOKPts8Xq6c9fny/86lD4eCji2ICRAeuzUb3MJl7k1WWIvNDBqDh//0PF/oULksXrND7koHAFJsD3jm4et3LK5AaKyAuQZYrI80Du6jAI9QQ2JfhmP0wwHzBhc/JmRXkH2Cdp8MRC+HpvG+y3PutffOprXHHsuHS7YeXkrdVobSP/OH3bcXJTQzEFvX1ys5Z3xgdNAw8WrPBpwCUfB38R0H5mOavO4Eb48N1w53yx+uDnixJf5LsugwwoGM8oiYMV4HPW6PKThPGCDGm0oh+623rgtN4mtRsPG8QyKgsTZDasC5QGwYigqEfVKTKLLgi2O7VfEPlUlyTK2YMIFiEFYk9ZWK/Ca6AFVakDMo45FLJvlNbjolq/YX2wsnabKi8BLs1OeOs7BmUzeb397lGtnbXEjtu1O1TkZyPePnEt4/yiSQR6lhGqkRoU9Si1Akod5OkSNPI5+mTqBHUJNMjsbsnt0p8VBZ43jE/8XjfIR5Z58pJ8ThLPpQc22XigKQbF5r332mtbgG8Qe9K+iQzMgEZ+BvpMosybcdFwn2wrCKtRdDIt+sRoDuRsVvSVbgVBZ/BWzv/wupjAN9vxxooM863Fnc0liQWXxOnKDStPk03+rfqbLAr0LOtdDzAM/WHAYCcXg3pDnjKn9nqMeBEDHV5Qkek9p+rMNLbGi/Yi2gF5PgJBZiBBZvUBCTI4fmbvhFyz0AH0UfQxVoBnHiQ/2WFekPQzMbQTm+GoOHf/Q+X+9m5j7ybNCiw5XB7V4JlyQIZqqZtltwC0fZJScWf0j6Ik/nGMfySJHlEHPjJmh4okxddVInQ8MZaZvmsH3vJ40p1skJc940mffboKjhmXZAfIcviOcrS2imeAtMPTB3baB0H/oQT/AfPKG3RtWkELLMhjoPEPMvlnJxwaq2mCF1VESrmWC3QuEGT2tyXIyO0SJu96OcnEgfMxTjJFJ5NsurdJSCKX26T97e3i/AP3l5W+m9Q3AzNmBVm4Bp1lHnXR5jCI5YRnlWX4Jon9kTPkNIJl+6BycagBohMkBMjLeKE84CvcbDtgHrSrw0dIBmsn14fD4SX5WRPM3vHi5XcOy0nxBvv5UggQNDgEwKzO98NK4soERH/uwUU85bQUwUUYXdAWdBScGKfwoVTtLB9pDshzm2SLIDPZK9Ye/LOi2j4njq+HIOPjqgDPfCb38TVapbnRv7oAqKwd3A7hEQ46qKqaGuUWuSjmwfcUORLcT9q/QsmDxIAS+UXgvVcwmGh50hwi50kl2RtxwCPTHEgBnCDFxyW5TTp2hytf9cKny7H2m/A6BPraBpe8w/mwMY8B5T/LdW1RHvkQLGZAS7GoUyUIfiiLhe0UiW3lYk+LXkAuUiRrSUsTpI6y3i9WT3+hGFw4o0HnukEYNxuouMxUYKxCeLUXGw3Enh+tFpsPni72LmxJds4yjfMb+T7Mkh8G4oOtx2ZOgYTUEflZoE2yRZAgq5d+L6i/HeLEOKIHpgzRRIDbpKoavfhpT/vkM01yfDj2AFNV+7cWo7X1Rp/0pkOh8m6fGBoOChJxcMAzARaCzENbT0sFudhT8uSzpK/RJKX5N41Q1TnvtG2ByUiJpNcgMylWH7qnGJw/LUbXcJDRAYij4Hy7E4zP82Kn8+C8LUmhg2Gxf2EX7yZJbJZx46AC4JkioizycHsE6FKQlKgRBWRwizyCzGGR/JCKQx0HX38RqEfrEB27AjO7FUJSC4gPBs1BHc1kUlQrJzZW9jeO/edljznA3FnJyfb11vEW3KImtTtFDlUri4NE2paNsgjGfPOAf8j32ya4mgtDqchsjfuQhL+aDEQRXrQXsE6tgB8Zj9WHvlgMNh+wfI+/awKxX50+gvc85GFsk07k6cVe6OXEh9dn8AiHBs/0hRyD2jfws+TEPF2AunFfoGgZsqCAbXK3MbZD+xBtOvZwEhNlTlEnP3mrIr1aNt9fps1lPUhOnAJaVOqTVDXNm19+ZzM0xfEgzvRFY/T9L/p6WSY388l1hPVHh8xzbZAxGtGd1nhoNAnQcoCdZVpq5QELOb0QMe7/U/IisEZAUX9OzYckLHJAN4HzAnJaxtiuzG1Xz37Zgkz0dc3B+6X9C33Mxizlg0gzSS5pZbXYevBBOclsS7Zj2A42ElSZ+lDwSUMAgRu6VIqLpKk9vQBYJBUVJ8pjQ6ugixhQFN5nE0kZzQb9LEQT8ExAzFMmqPGO76B87gNf94Wvd9Gx4FgDzKDafXWxeuKE/hzFTHBobQoZAnBt+218tAWHj+yZBNq2nFFKANLOGM6HFGGwcfde2NtClz7pehXedGxvP2gLaJA5e5/ylF0zmOqOC7SfknSnCEU+DRiWoIwfXqOCXE83bi+y3e294vwDD7S3SUwAzIAoWwAdU2aiUHhtKqgRBWkfchtQNk8pA4dTvQpvOrNxi7Qs7KRCjYyRLs4DQCegkSed4QK/9DBYO7VRbE9e46JjwbEGGIn2b8bv3ywObEz84wZF79vUyhBcLHy0MvtrEMubpLUyajLzaL6AyE+BKiukyU4zlmFZvUKOhSJUtWrXwiy9RVg5klY37ysGZ+71ptHiGkHsD3mQ2E0dB196KqddJSrheauEoNNUxea997e3SW6qiAO9KKTM1K1OpM4fBiwSKZqp60KSUtUIvLLYjQh00T5Q2OeVfAaqcjVl2hgIAu0Bfq+qrAfH+giHYwswo+9953PkLu559n0cHz7SuZhlYyNj40Eb0GhPnqMIcARjmZZaeOjXLQQ3ZcApZTHoptAmmBJXZGMCjBet2K3KrdLwLB73INLOaxLXAmJ/fMAU4PN8S4ziIuUZZEarcoLBu0lymwQZB/OQ4H5Nc4FhB0UGbjN9H1JZpwT8MNERAwSDC3Jqw7XivJlZEIKFnVLcYB5oEmksNoufg2ayh/bc/PSf+OxzXXTROLaVPRiOXlOu3rCeHs3gmy3RQ4MDjY1sFABniX5BI98H80Agh39mfVDZADHRukMR46WNWCz0gT5rvz0vMDMLbWrHxz2cvufa+iZ27Hac+zQmPpcpDxjVD90xsNBmMCz2dveKLdwmHeat/nah+CYOFBdxrXlJeqI5ADBBqyIFOnSqIqGpj7QEZPVJlmbmEYAg2s0ATaIpXQALuOgDbpOGNzxidbRa3eKii8bxrOo776zKurmjaXB6cVk7emGQBeSjbCZoY9Q2cHv+QA3TYznLbzfI9MP8z/bRAzFVv6mYBRr7h6xxCEB6XI79LwfF8MIZ/f5SeS19E9vHQRH7NDXnYSzAC22KgRApg7f0IdevClTFWfxu0qxffXRwycWl1ymBTEwC1NyxETAf5d5So16BXjGnyIOq1AGZtF/9Q6G3PeBldWh/aa1KY/uQm8U8aZ/8AORm2kZQfFm3KG8XA3b5onAsK3rjc09/jmycFxXaOIcOYgDylOX0kGj7bpTjy0S5UUiY5yJoy/GaUwsL9q8tPwOi5l/B5EWLWXkNLmpk3rTfvgD5TWz7kqSM3zX5/SXttVNPGIMID0RdMQKNCOQ26cLph4q9rfP2Ym8fMPBimjaKJ87LrFNKn5hNIKUvQIMJ54+VRYjMytlc95skb057AFWfGeXqHIKLB5rDttZ7e9K98uan/9PPfqNpLw7HsprrwQ23lqsnR/oCb75wcnBwSWkf6UE+FLQBZeoCNfg0K9fC656i/TDv9q/1E/2Jhyh2HjL17K8q2m2Uq72PepVNM9g9X6ziJCMTfE0EmTifHBBl2TfJqC721YKx9l9PMRAJHYyKvZ3dYus0PqwIoUGXkCQdY8AZtRAeww4RaUSenwW1Q0WSWKYNEAZtJhiXU9+1A98tNwWazDKL8gNc9YFFtFmeAY+2J3dykh5s3Liysjp6nUsuCnF2j4a3vmMgMft19gPnjs7ictonI8BrT51SdmhYGfwN4YChVczb3xZwoPTfXw+WE30AVp6S+WU7EBO8EKynGK0abUE5b6P2U1I1LAZ7F+Qk83kJMjsiuvipeVgRh6Yzl+DjOHpKNqB4N4lBxnVyy3T2y/eaCSAuYKlDKpe0bALvJNEI1tanU5k40QBBZ0DibQYBrrQ86MCmpbkugOpZJgfpF4QWlwubqWPnPHWmx6WW9drcUrz8gxf9obuLXsWjGzeeLY19YVPLX94ILhhSNDwtoh5E+6nJcswrn0AbUKZWCi733uqoaWkbVGZRq8NON/3g6SaecrS09IenGl2yCDL7O8XqgzjJXAvfxO4ZExW5HKQzp1EeGNgMcZt0ptjd3JS4Y+OCcYNF2jRCnT0UbPzbBId9frw1NDK7jiEt1Opg9FUScZB+BlisQ+XCVoFCllpJQ0e9i9+mKl789Dc/+aI/dHfRAWZQNLcWqxtyexROMH3gQppFI2bZYDbnlZsJbGKz75weOjJDGyhaGZablaKMMwJqCVcLM/Yvlu8F1HRDQCZBpprYlyTLnc2rPMj4GOhc+VIDi3ycv3xOaR9PMEO5Tdre1ddi9O1d2MklbvB8OPtAm2RLB6BMPfCWuVrqT2bgkYEFKFMGiuaYdHR9+hmI5qDaEmH0xExqrFGXk+bA9wiHa6eGw7WLf4TDxQWYH7xrtZhM7tDg0o74wegspED7kNvoyAlPCoCSn4toY3w7xsiXektlPKStvdmZJdDnKf6zLWA+u9YBFLuJDqHylQWZh+4pqgt83MMMH1cy4urS+WEfRKFDKfk4d26j4RxvV6sDJLeRYHv2y1/Wd5O4aQ4DFkk0rCXUFoE83vXTZCKz19L0AE3y5rQHUEXTCMiYDgGag2pbwUumQz0pmEmCOYADPO2uKl//5J/57JpLj4SLCjDrZz757KKqbtZHRB4F2hFPnUXmiDyAfLRDOYA+iLzcDNjS4YmDecL/SgYZOdCoQzlw5omy9trS6K0HooSlWstmquQvydppfBP7If0Lrn/Rrzp4j+OcxEFQORPQ5rW70OtJRtJopdiS26SdrfMSc2ef7OKoRx5g0OisHSU++1EndYMzETi2DSA9AO4qUUCdejoiplohvsCz6UrIz6mHqpziEQ7S/ReeKOvnuOhIuKgVWw/Hd5SjjUHnBd7DQBePJ+ZJc1kf+soB80a0BzxzAAgQKI0EiXkC539ZBRZQWq15gJ6ezM7AUobYsq5dgIi1DbqxmmLl3JeL4Zn7z+jtEp5zfDUhzl/O9+mUSu+Vug3TYKUY7+FDdw9KvOlfuu2MOGQtKC9UP4cEFnkCayWsF/uMCsWUR9rHCwKbVJTFPGVHRfThPJupxGWa0BXX9YGqSFkEz+sdrJwsJjvDi3og+NEDzA++d1Ua8x0+fZcGnHyf9EQjcl2kffa9aO2sN8gz+YAL3+pau1ZmHJAHmVgOlP+Ynwf8wBs+zbr64N1/TXbXndhkeNv26gT6Kkm7HPsN3peizpkHcwmo6d0k1zXlqDh/3336DBN9S1vAkQelV6Vp5xnVq/Cm69pyqbQnFS+brOaApqCRJ13AxSzQjUIyya0ziaZLQNQFCpDPmwa59l4cIw1H1S0v/2xz5NukIweY9fN7z5UF8Pxi/4i3R4sAs46EUeQKIPJ8RNTRBzGvXIZ2QlAmTk+bi4HE7CxvgZc6ljfKshaIIGXAoX1AOcSLbl8elsX7i7//nL9T7GxKkJEAg0BzNSB2ad48aJaySD3pPMpylVvF8w+dKXa3tuTunAE+jK6sFT2pgKrGQUMg8u67+4sFM41bQMyUAzJtjOb6bQ4BtAsucndKWQ+FPaBJbBIQ5QofAAuyRTHZk9ukYvD8B/7DPc9XwRFw5ABTl9XripUNrH7JsYmpqceLvoXZrgYD5Qfpgdx2LmgDan9ZbVJaudVk+ci3YFu6beoGJ8LqoY9yuIbfWvqts7/43Q+p4Eee+3eK3c2/LdwYb93mPq9MxH46r0QumIM0D9SB+riqCBdfqhJcxzvZd5OyjZGoXgWeV6/im9rW3vKhRD+onmUWXRzgqg+pqDDetGl/TvkOEfOBnaKAj6zSjl4qIlVEWtdFubJeNfvNG0x4eBwtwNz5QQkszW2FPhaTYNPZlUsILkouTFAMSKTURUQZ+T67A4FFahPDHpMHjFJK/916Ynmf4gDXyF/sZoIfKa/eY3LH33/uPyj2tv9KUTcSZNZFkJe/wtA37grwYXxyHfI4tfALkLxdqobFptwm1Xi8gFvrvJOKrcn9hKh+ZZRFRTOROoUgCWeDJrnpLPkR0bavyyf/1pWp6rSfkiBnz5gHcqpgBZEycS7w+up4csvT3lvjr9mhcaQAs/bFrReVg5VvkDOUCdijTteYgMgfMzgQoPmAzUJuF31EOhewMTve6ESY5+7pJrcxK7NAkOlqZZOUAwkw+/ftVIN/48IWP/Lcf1ntbH5/Odm/UIxOiMD7ciVCO+a907GNvEPFrgOlSvgSy1S/PuDylVW/TcI7HTQUYAjUXlgdWhl/oXZSUakkQJXG9mERs6ibZZMhN+ssw6Bkj5RGndBUxsgUWJb6Tq9tMJgxGoCxZNJCYtPs7RTlYPXrRvd9+cVmdTgcKcA0k/I1xWhtpNGNE0w6hdhl8rNsLxJ9belr1zw7UAx+X7kDgTIsZ8Fl2gskucb47klG+JHcHjXF+4qff9ODLuyg/ocv+IVq+9zbqnr/wWLlBpHE8lcapvvbRS7D0sQYilznwhN4OcGM98fF+fvvL+xJd21wBu3ZOwIK54wRVH1meBUgyqPuiOASY1uVuG/yff2I/cxB81iMt4EdZz189Gcik9f4ednVjUG1v3+rCg6JwweYt965UhSTN3Yei8nPwHMhJKpSBzOz6DFB63Ya+UXAgYc9+FjuUL5oYxvEksEo87CLfIDeHu0V42rwGy7pxeQfv+Q3blzZv6Mc73yhWD3l0isQ2lXvY6Lkgxy3QMr7RWUu562SnmYGxeb9DxSTyUREIkubhhQAH/M96CsWkbs7JJJ7MJ7RpeUUAK80GTs9BDpF3XFvcAEkHz9AaG3BLWTHSwtZh3KWuP3mtzeHfvvy0AFmcOol31wORs8qavzIuwtJAW0tqVxUh4syPcg6c6mQFmpoB/mcArmMg58m4bCwQAO0tEXLO4fPu4z3Pr+/N3qfCWbjoTuf/bvD82ffUOyc/+wVG2TC0BrC+E6NO3VGILMbHyxX149Wi62HThd757ck9kgwhp1cbXpwaUf0QOSmzB/CxSykLnhKyyhdXCbJs72gLtKYEvrWqfDaDlCXaznkZWwZWCIfUY/3JJ6Pnr6z8uWXumhhHDrADJvxa8qV9QFe4GVTppqkI0kqF+0dEHiluMQEkAKRP0ZgEetCdj7SPvTZ9skWgtnZhsnHDjILRDKhMnTVB4pfuPWc6eZj/5+85EMrF07fVuxtfbhYu9GlVxpmjRXzkbZJt0fnhV7kh/KHdVxs3X+vBpiFgQGPKQdlfbo5yIuB6l6VxD0Lgh4pXJboHOSmU0VSBT3ORIY6NZiAStITnyMGlL7gAjR4hMPayVG9v3/oB4IfLsB838/gAzd3IKJZQ1WqdKpp7ENO9XYKBSiIiMZI/R2+ZIgdytGn045LGyMlIt8D61m0wUaCXGSyiWoJ4HVTdt89OgB7P/6tHy02/+xNxe7mh4r1KzDIaHe9z7wVAqIc0LEL4ykUj9PUjcEAAzoYFmfve6CpJ7XpctggG2XKEXV9+hmI5qDaYmH49jFvd5yoDhnSPiRbp0BumnqpjnqogF+F4G0QNYkG24Ug5vXeNgre8cRf+jzetlwYhwowq4NHvbSsBs/E4x11PtFOp/n8ps44VdBGqRfSglnhhKibZ3eRiAPOjkRKvg/QoXykwMKTCHsk2BvF6aUY735udTL5jyI4HH7iNZ8t9s/fVm5v/ZaeZOa1/eFApznMCGU7QZk0b0vUAgh4UNePVoqdzXPl7uamHPaypdwO5zQgYzoivBXqQ6sh9aRgBkmNZ4NlIiVv9ViwUHBtRepJP2QoIgvGnphfFO6204jxvtRfPvPG7fIlLlkIhwowRVXdUqyekJb6d4/YZlDtlbdHqKpIIyiIHaZxSgT5PtkxYtbgQ87Jo02fba7rszkQLCMUr780xW9vznj36ED86Iu/3Jx94DvLC2fep6/JxNPCw444RuTTxamkzglXTjDIptskT4OVYn9vUmw9cL9kQx+5KUgB8EzHBfeF5aE0XVpZQsiTjRTdA0gjeOIATaePjLIcc7SNZQ8ETGiWUTzCYbBxY1nvFYd60t3iK+8tvydHo+bWZrLv7UCXrFvgsQDQh84AsZGLgO7oQBcgHHQ8OqLhJQYXs3Yu0INAm5weCBlL3B5Vg3e54Gj4yW956NHnH3xruX3m/y5WTshMz/728ZWDMEZT4xZuk9JJBixuk+4va/6aBdccKNMxILl1n6DOGsigWUk4DahyE+YjtQo85YBMxkFvhTAekvSJiTo2R0RPNZ1GSWr2dlHna29+9z0bUC+ChQPM6qnTLynK4TPtZ2FRKyYcYKeso5oE/AOUqJGOeZLl4EApFatOPgL5mIDc5pgQ28CJPQh5u/soeWK0WhT7O59ar08f/vYow/3/7BXn3/KZj3/PaLz5f5QrsiZwMnq4ge7m4wDEsUg21Bu1Y78sWdoiDeU26dy5YnfznGRD/6yIYeZC6wfNEwUjiXudNCEZempJogSbRRqKiF/jOqeNjE9BBVlJyk2VC2X6AHU0zfN9VNDg3aSy+vqdB+sXuehALH6CqcrbZZFKVOG9IGpGkEGOw2XSZOEDkdSgVkwpxS3Tg+SDhYFZBSif5/AYgLZwMjvtC8jzRJ994PVxkE35wbM/++fPuOii8M53vm2y/78/+68V22d+uBiu6Xd52nF8uBDHwJegisKYANlY2R8rucQgMxgU4/1Jcf6Bh5r0w2xMFwFOb9qzEWjHAfXQhBTIqSKvKFYofDqVgAdR3vLKurxTbh6iGfkoiw3OgJN1tXpSAk258HeTFgsw/4/3n5AOfAcqQEix+vlGq7WpzePKBDivA4WjnAqNkp/RoYQ0EO5Hyzmv1EgXFFIxZXBx0Ha4z5wCB3WKelItW+lfiaq58K9NeHxo/v5z/5/V+Qf+3/iAWjG4kr4kiX6HcVNQ5nIfG+TTrYC+5uI2g5Xi3H33ls1kgh0pssWRlpYwacqEqhtQIfTId4hYKLC9SOUk0U6pVESqSBV3EYOLEjqU0okV9JcWUAHKlCPKZtkE4HeTZJxf/Zz3fwnfTzkQCwWY1bM7L5a/fM/Ck+vy9nDwjDLItBwoyxjl0NjpJw0aaR9ym6mKXTFzcUXjSwy2IafEPD1uj+rxxy+MTvyeS44V9T984d+tts//oI4FTjMPF9Bl9hunDgIyvlibbIIevNq4XE8ykuRUtr15Xm+VqsN8Jsah+xfunCfFMDlJfIS3YkpOUN7RM5iQ9kF08GtssFPWNHNKG2DQ1zjmQQ90Yohm9f6ODPnw63bv3n+Zi+Ziodlo6upt5WhNooG/exQQ20vKoBKDi4FhJ0IkLsyDTbesQWXRzipqC3PhpkVo2ZZJAkGf7BjQaUOgwMyFJWOD79XUzW8X//INmy48dtT/4Hk/Uexv/1X9kok+7uHhQhiTNE68RB0DDmSy8Xhy0eACKknGbYLvJj04/aS7fLSZ12kISpxOkNVaoi7yM4AyQDRLxTsBYtoRyvLzKuoHNtKnTrkEbZ2xOSCmKqdAn34OZrqQGFCNNsphVS30pLuDA8wPvvdUNRi8ovtohvnIG4ew0k6CDSUHlDnIldJQKNcdeFKyCbmNViqZ1IipEgLIopzGlxDcDORJA9/IX4dmMPg1E1xC/PDz3l6Nt79b/mBsFXjx93L0fy58DDoIY5Pgf7BScPHlC15OMZv331fiEQ6xXPSAspoXhvL0gThSI3MRbcj3yRLgPAYM5/UzK0guSkHF6XSQyfM9iCbkFygWAfM0Pp6SC7S33peD9uQ7vvFXH3qES2fiwACzujN4idzjfm1z1Ad7J7DJaKw122jskIUZyhXCaucCnQvoaZN4ueiiA6WMoCAKyefyYwAXf9gECjyhbjL+xO7m5/+LSy4p6h9+3juK7a3vKsd7p4vVh+Gb2Nr9OBaBj2NDXbDh+jFbBBtJw5Vi+9xmsbO52fA2KfYIe1VPKUiU8RIF5Gegz5QUrdKgEBMhvJ5UXKa2yhHd3EJAEaYclB3gNjcDRdvAmcyCoMq07WVR7+0U1cra1+6dPvNNEM/DgQGmacZ3NPrBr+nbo0WBZrEDRJu37hiMb6+WLOgYhysPJYni4nxCzINnhSikBZkiogwUhdqWXjLIRtFP7xbF+4t3/o3zKrsc+Ic3v7vaP/+Wcuf8l+xLkpehrxGd4feMElyYQCKVpB+4w9JFcAEPmdwmjSfF+fvvlcG0Lz/yRVnf09Y78tRZthfU5XQKcCZp+sQhEBmDCq5IePGWtumF3EVAB0w55ul6ADPUTgqQ4hGiXUqnQtGnYqWoJge/mzQ3wNz0g//5lDh7TbHIb05fFOCbJxejoTsKrR2d1M6ZIFFJ2n8VGJDt+ICOCVAqGu1XVETM0x0j5C9us39BWlMf6rtHx4HJj7zwg49aaW4fNLufvvxfkgzjOnN95ePvPOw1McgIxW3Sgw9KoNkTK7PrLIvOgpiP3DT6UcoNRxrh6xQJTdOywvQFk96gFEF1nxlkMR0SsT9oB9uS2jSzbWI7wW1S/eqnvv303EUzN8Ccv3D/y4rR+lfbh+vErQ9QXu0R+pbAsjmN3TeZ5HUhtfIEMYBYxwMUBKbQOW39ClQBSgbwwinlmKe7SOCEWI8/ufvA6HddclnxwN99zoceUW7eVu5d+OPLGmR0OH08lQY+zg11KjcReN2wSSdktFJcOLtZ7J7Hz8tK0MaUSiLtA8VRTZ5VEfM2oJ5SmJDXdiFL2rOBDwLNojl4pgUwz4y62Jy2bTlt7UDr8W5Rrmw8eWXl3Nx3k+YGmGq0+rpyOBrgleNUnQ+cTWyglwT0zdMNu2tBJ8mUYMEh402CgamVku0FlLEfyqowpIh5usOjxOdSyvI3ive8/oKLLjse/KEXfHz1zBdfX26f+88WZC6+X4sh1uO8DqtenDIPiiVLOeYcJxhPEqjrSVOcv8+/m+RFZiGt6UDJoyg2m9WiGVy7NCRIeUpB0rLaRrc/CDQDZSKi7IA+5aA53SWKdge6KJK53NWU1WpVbDdzf14Ws9WP//k/3lCP92/F6UUHWS5KlbdmM9hoXtJU8LlI5F3ndLfTbgn/zBZtaKkOhqTcj6i7lDB3hsjDQ+ITk2GW/ADgg2/7O3U13v9Nlzxs2Plnr7x744Evv6HYOffvio1HSNuO2KfDQKvweubWN63TH6aDHOVYdjAszp+W26R9fKy9LZOvAeShjSmC9tiAaRNGKr61XKrDaLRfePPSLKd9mKGL4j53aF1ql14FqX1JkkBV7AOHuSytj/pA+rq59Rl//2N4l6AXMwPMykNnvr0crn61nIVs08olNgdJxRA4NTO3IxWQXgzgu48i2LSBB2ipzr0bWuARgMIg0nmAno6UshATEGmuOwCyIerJ3kcvPOXr/p1LHlZs/fSr7pUD8JvkXuPXi5WT0o3Zf4OODWn4wriBZ93KZzrSPMjg52XlNmnnPL6bZOXjdCMBzAOkuqtiikBe/KOc1gORUwDswgEFgClTBPJsXJ9+BtqWGFhM2yQptc3z0yVcrBSnL1LZT6qIgRNXkUsQr1bWv7J4xOorVNGDmaunKqpbytGaOKvFo29aHdC2YRhgzZGC9QR7bRyplrUySvVqIB9lAH0C6scpkNsaWCLSNrVtwEVFSlPwIfJ8BHxArzZSWKnLpkBhTgP0lxqH7y1+6Bv8JxquAPy95zz05C/9/tvKnc136FvYlzrI+LwY+gYSMiYg8DofDDJC8UsMsgO27r9PVP5ukhq2FDIkoN00lAgyXl9f4dpB3uXMRzoTUNNkUboAomni2ZYZbbIfmTNda9oNKsIphd5o23+DBBx8N2llrWrGxR0unEL/yvmBd9xYN/Xr0mdf4Nv8O5WLtQbNcGogTeZuhzwDUqKekq1Tgr6ImM9tAZPBt1miVqTo31oi8q7QKGV5xTmo175JUh8sTEpEOSty4IuN451xORxc9nePDsLdP/vnd5oLq99bXjj9Ly7P4x58XDCmhPKUI3meNkJ1fvm2NeRK5TbpwQeLsX37V017p5SbJW0ag20wga9b9QsTt9NNaIzmDwTM3GVvQ6Bb0FUEi4CyCgsAaC+1rLgFbnG0S+iHq9lnCybmg8GEtAMRoUi9s1NUZfPap779073vDvQGmPW9jVeWK+tPbOIvBzi0KrbZG2XDTWEPYIfOgCcVmZZyH8izG7NoBGReUgGeMtTAsMI8OPNjcss7T5GAcSLFiz5AB2dthUbRF1LASQsKnFYjmaH9j++s3/gHJrjC8ONfu9v8/W/8gcH26R/Bada+iX05MGP8dHyp86WLdaNBHnKnw9Via/N8sbt5Vg40dorBuiPVNAPuPdnAtW2wtFoUsz04rEiLnGc+t5uBaB4p370CtYCBVkILarw2X5EYRdp7AbRtg0qgYJmkqJrU+zIV60+oJsWrJDeF3gDTDMpbG3wZbpEP17GNSnGRhEnXbBs0yHdukciDpsFRD700R/ItID+Ldq1bn7ZsLNiQVyKYeSgB3FQR9agGSfsiyftkyPgKP5BZvrf4R9+87cIrD/LnbvLDz/9f1qv9/63E2+kaZLpjeSzgOHHcCAYSlUV5m9cTDHieYgZymyRLdxNPuoNBu2uMArkM6884YaOdU0Fg+0GDaAg+yqNuDnIXaFtyg/Z5Mlm7z7qBwbXeMd7mQE67SFNRonXRUoCNkWSPcDhRDIryFtVlmAowp/7iL91Ul+Vri8mOSxYAOwAqSdsivdIGg0IHmYO8ysUo3eOSEpG/SPh5KV2xnKKs1UVe7EyQ+sakbZc0BdoAycCFKneqt0e7+8Je+u8eHQMu3PmM/2+5feZvaeP1m9i9vT86dGwcU2sgLFPNZ3oJLPolR+VdJ6fDrQfwbhJ+XifYC7DeUoLO1127OSO6ZWeCRXMXs+Q9iKaslbzuE/Dexvb0oVpj52BeIGn7LZQ8iFeBfWA7wpGX371QNOPi1q/40Y8/2kUJUwFmZ7L2bcVo7SsLPoLwkAjN0IzmfTAiH2n74qtQDADz+UhcBOgJNPJ9MDnaYGEIPP7FcmiiWlhTLZMj6tSYVC74JnOz/yc757Y/LJKrAvWPvuAfV7vn/6p0YueSBBkOmM6/8xEqCrr0+gplkvQUI2k4KnbObxU7584W+JH8tDGxvoSmlDaU0ek1l+cD1IEngnwun4Fo7r1KNOnQJhkT0I7MOLsyKyBPm9zWwIDK2gQxC+rmMNOakWdKKPEuqCzn9a9YXxl+qwsTpgJMMRrdbou/42VhoFRPGyXTBhJbQMo4be06wQaItE92LKAfBBEGE8hA0TbTq1yCQ6pVGPCdUw6okQ5VXo1BUVA/afr+4pe/88q9PepB/aM3v73a3fp+afx2MTrmb2J3ng2DpYlxAglygFmVW9L1kspIGgwLPH9q6/T9sLRhd3pRgAOmHJQdUEk0Y5tAwZlOqCwOlTEIkLplDg4Rt+10cAmAqDV0Ch+oB7xTga522HjeqsdFGYPcj+I1upXB4E0uSegEmJNv+aXHNOXglelH7ZOj4GwBsC2kOfRLaKBgpFPqnRSsJ45aCjrkpcPqom/wjgB6yWkfrCnWHgI5NIUqbSJYNwN11hgI8OG6qri4B3s/TKh/5Lm/VEx23yK3eA/qZ2UuNXQgQ0p5AHmQ/HeTJA1Xis37H9TvzUDHzQa+vcU4ACgSU455uhlgzTlt3wompdNIjacqBpC2f5TFfpIKwHpW9dGX8k5B6J9+kt7lWkZOMbs7EL/iKf/4048zhaETYCY3bLxMItGT2gATwQaSHh06fmiX+FIWE56o/TWKQSVSgLrU6UsG+Gcd0ibnjCLf6jtNEQPNwzBSQm4vmsn4D7c/efqquT2awt97znuLnb23SpC5t1g9ziDjA6UDGActl8e8gzxt5BSze2Gr2D53ptCHeTmwaeLGnAJVfSaQxXQRiO1I7ZnXLkduGv3Yp2xBEVwol7GgMeCs7jWR2+4T0IQ0jm0sPwWpZ7JbVCsbT1gZdG+TOgGmHlZvxmcIrAI6D5VMyaLukPCieZ88eJsgLBjlSJU1LgWijB4H4pAa3w0qRvOENigxqv3QrFKVWRs/UPzOnz/EK+lXIP7R8z44PH/69mJ/+9P2TJljQJw/5SW1Y2YAzzx5vT0KP2sCitukcV1s4Ul3arwA0kJ0CoBnWhB9boAkD4oUXHpKUdVSWYHaGVLAGRFEO/KdvtO1UNab6ofDaEz5IhBbvMsotb7RJYoUYE6+5acfMykl+jR8cRfOO00TxDx50NzuIuFV60lPOq0vzCltWwWaeOgCTSNPeglggYbtsMBDHq0iVRKh3z26UFdF/W6XXNUY/5OX/tdi84HXDybbf3IsP1ebjxehc9n5exjghfAaTno3yelwtTh3/33FOPtuUgdcTEhEzM8odhBYnK40j7WsG5fa+UCTYW5NRxkEEVldIiBNvtSvAyzKuX2SEa6fQp9sQegD64vmW5/5Dz/6FS5qZ2z30U98pRxxnoQHexviqIKPeWKWTZ/tIeDF25OAMNJx7buNtIJcToF0ksFE5NR1HEtQ8hHRX18d04A2t0S9lhTDFTlO1n+0fXLl6r09yvHj3/rRJz6quL3a2fx9+7lalx8Z7kDnKThLrDBR55OXgnpMeDdpa7vYPntWYk74NDInnRPftwCAaJMhime66Wz6tAo6yF9zSQHB4cs12aFfU7YgzpZp47he5SILNgo4Rp40q/ewqPflNmn1xFfWw7V0m5QCTFkMX6GN0IxQpilQBqqt01yLWfKLBN1xQCAQakNiSk4fa8fgImm0h4wUOuGVet5KdmG+DeSjjGUiNV7/bijt+hB5OYL4vcWP33qxzyC9onD33/q6z22cv/u2Et/EXnukSPpGdEHEojrXoLwEpd4WgbocFC/28hQDSFDBh+52zpwWkcgwIXFSAJuqVpfrZ8BrSGAxpbqxXZL47noAIOZrJfFUooFBrI3CLpbsesFqQ1v0KqpGj/4qMFNtaCYD6LPj+2IgfmTsq2H1Whd4gHnrW2UW9p+vBnmlnChSBfmcElHOROS2h4C70pYlapNmwcXb7MBE2aIy7RSF3ilBD11P03mUgCynLe++A9VP7u5t7Q1WV6/Kd48Owvkfv/X+5v4vvLncPffuYu0ifhMb8xHmRMcuR9QHe/zhsNmFzAPNYFRsbW4WE/sBd7VL4MSSLoBomviwtpRP7TOK00cbLJQoaEZ7Cy6kLMsC5jsBrGZNJuHI+hdMUndVlukuBfTHAcrnPesdzQqyugJWNr7n6cI+VZVtj40C4K3XXXkHUd5nAxnlkT8GJLfu19toYykTxTzbDsqJijIlTvXaIs9znnIKTOvcp37Mvv7IhQfOXju3Rzl++rWnH33m3u8uds6+Q78kidecjgQfcc4PAD7lyedBTLYYX4vh52r8Nmmyl32qN07agohziwRvFgDaANLljeKUwqpjE4g2+HRpBxBphSCtE5iqNSjLOdECiU/MJUMzGeMlgKeML3zhmcjr7NQn1x8p7diY+92jOCrgmZg3xhOQ0xzobJ/9EeHF0+2ntkkmWnOt73bcQ32cFMjAx35Fu4uFnGBknf1q8c63Lf4bMFch8JvYxac/9l3F9rmfLFbxTezwm9GLIg57mo/AJ1CHpSy86mX76dyJDEluk+oatxu+vjHdaSHMBk1yqp8KlqRvPoBqnUkrifxstAEEPpwLskTBMrlrO91A4FAWSidJJZlod4khbZLO1IUM9cbe2Qb3yRZgRhNvhU4KG5rReWAn1Dbak19EdgkGAm49xdOLHaOtRk2hj8pjnEjZtwyHbq3dHm1Pmuq9Lrm2gSD6w8/56+WFh34ML2wf7UuSnBdQ53WuAu+swuex0WUdbISvcZJKL5L2I7YOPKxJAX7dwE6k/OMl+c4aiTx0pO1aitTYUAZsyKbKAddpedohAe4z5QHKLjGkPQrwNT7VK2M+GlhLNMCITkbfZwcgm9M+RBvUgWxvOVUY2xk1B/8CzbNZAHnpjpfYHuWZbF44HQw4KfB0+uHok82DbDAZ5w/v//Qt1+7tUQ+aH37u36x2zv5/dH4P+5vYs4ZY14oyPg8h78SeEYPbM5MNRisio12LNOeSvHTisWdUJlT3D+qyfQSh09nwPZfoTESX3gjcAum7QVlRa4+yAje+7PA/0IQ0A0/tbvDtFyiqZndlY6hfgdERryfj+5uiPt9OXAAHZ5HNFnWcjJnlkGcSpEEDaJvTg0E3OQWmvIhAmyUX1U21UeCyqaAjfZsbgDKUA9wmDN4ltp2eXg+of/j5P3Si2v2b8petPtyXJOP49qzNDsRG7SzxlKGvxQjWTqwVg4HwmDeVWCtgBZAmna9d0I7MOLsyKyBPm9zWYP7a2gQxC+rmMNOakWdqiaObu1zQMQHw7hcetyNpsDJoqmFZVKsjuR2d3NdMNj4NWx39va/8/U+J6uP45OMU4uYh3yfrQ7THiPXaYpAo79P36frs5gMlWFPyKAKVgUrbNC4r7fqHjVJvP6kemcHropkD3B7tXrjQ1PUHXHLdYevvPPvHhpMLP1CMJ+OFvySpw+xz0eFBPeCA9/lQpDw/1StJqlrduEFOMbL4Za5oTZrmlzqdT5Rzmiy7YLWcfpQntbphw7KgydCp65ENpxVdf7BBHsU0kbncQJhjz+RWUwZQDiMaVMqhnLGGwshU7I6bene/aUarK2JT/v5H//IjTqOEzdIP/RBe/XpfmrRFgA7r4EjVHMScRszU9eVjAiLNZYvB505p4t1Fou7T8nKJbRWeOVO3+jzw0H/CYEWGqf79/dfe8scuuS6x//977k9XF859XzGZXLAgswBsSLuALMmFCXNBhf7BUJmk0bA4cSN+Q5DaFr5zAk2rI1Djp21avj2YWp2UT/tzeFb1yjtVogJz5TIxtHRZ4CcUjS0SVMDIX9NaQgf+GiOwVKOqmDRyLzQu6v1JWVdVWQ5knLd2JnJSLP+NO2ojSrl/+l/VO5sP6aMaDgNMIjreR2eBOtB5djqy0M8aWOiYjh/mVa7SRn3HAKxIYqsSD5tAYx9x718Nqp8p3lZe0+8eLYL6n7z4Fwf11luLyfgh+5LkrLkl2nHs/gFEPk8Aqc0F3K+fPFmcPHVDUU/0lYJUo25uY4zOQXdptwEE9UW5BRqkth2adXNfHS0yU+XdNtHLBA0p0oAa0UQ6gtsfGTEEkwbPUi9H0nrhJ0XVbOsPO9qWQJITititDkb19uf37r//191lO2O7P/2dnyrryY/rK/6HBaog5cCnCXDQhoh5bWLwkXSRko+IMtr02R0B4kZ74O70dCPDqYsW6BKnfgZyGy0vf6mb3a0/3Dl97pr8cN1RMPl7z39vsb/95mJ/9wsHPu6BAwx0eGSQfJ0xrzagzJfFox7/GAnweDyp2MJcKANEe/IgVXWHQmdTSgpMn1JAWcbNLRHC0zbJ6Y/5aH/JoeMgNeopxV+s1fOK/hy9vqayUjbjiT7xpZCTSrM7ERMZhNEQr6JrsNYWI7QOV1aKyfbOP7v7h178ZXUv6NwTrZ8592PN1plP62cXjtpTzABnIVLtRybPEeXgp+yQZ5qHRe0OAbrDsKBdmA0IhOdIeXhRqBle05rsF814938r3vm2s6ZZQvEjz/vgcPfCm4q9nbsP/CZ2Wgc+5hk7tU78zYpm0hQnHnGqOXXjjXJ6weFRZ0V1BgQJZx1cpth35hbbjcGkDSrmK1IBWEk4pdCuc2JxfQvoUJnlLifqBv+kmVK7Em2G9FROKoOVqtiTQIJmbe/JWVMUE5xqxERuf5QZ4iNdVhjlimrthBxMz3y6mhQ/bTUYOgHm3C9/52nZE99b7G2fueinlXHSI0VrANJZiHYol/tSkAdlipilj/wR4EUZX7Sl0i4LLsEvvliHv87jvR/d+z/feH189uWQGP+D5//X0e6Z28u98386/zexfVx1iMMYx/EGrzqXSXBZPzkqvvKJjxGxnPV1TUFna0v/XCtveaJdasaYHdAGjRRkYvFeinVBgQN+IVIqDH1dJkjbJbBIpagftz14X6dCYCmbwWhQ4PZHTylVWW7vNRMJKNVoiAHEGUaCSq1nnGZ/r2kQZFZGctiR4FLub52pm93vu+tvP/MBq8nQCTDAzk++9vfk+Pr9+tubI5xkjhHoFFPM54h6ok82BepA+yYulp3n5whwd1qr3GaWuDXaOvsTu5/a+F9VsUQv9v/RN39k5cL9t5XbZ363WMfP1fZ8tUDH1gdYTyfkQWPel7NsguHaqHn8E5/QjFbXy1q/HwPYmsCexq2RBQovG2Dylhoi75CifBeIAQkyLadZoSwGqrYu6Pi+dIh9EF5zOIzI7U9T4zAyqIpa7naq0aDEO0F4XWVlpRpIyGmGElwwUHKLhJdYiqpCXBJbOZYNh3W5MqwG9ehE1YzHZ4a7299111975u9aTS18VKax8pfe/5ZiZfUf6wPA97dl0o72EPCFsciA04aTCUDG/EwfUc6yue2ssocA5mNFTn5725NmvP9Dez/9ur/rmiUOwl98303lY5/4j5vRxvfoXGDNxfkEz7wEELxaoFOmcg8gCCSSTt6wXjzh8Y+QOL8qf3gXe10dbtr97/UQyMZlI7ze+giPE4reEqnC9QDsyV92WCM1nrBPaLPEX2Gb4cqg3NlvJjqMAnyNYn2tGowlwOBtIrxftDoqq/2xDJ8EnBH4fbxBDT9lMarksLOyUu6V63h98d/vbW397S/8z8/8r+atCwzDTKz+zf/w1GZ3XzZJ853Fygk5UGECJdBIA2xiUeNxIfgiu+gkoR2xJ1NlFnLi9AjAC+N4cr0c+ppm8jtl3fzQ7k+99oOuXeIQqP6XP/orzXD9bzXD0TP0O0x4PhGCBNYcd4SuPQQOoXIrVOD1FfnrOpD7+8c+arV45E03ynLAZzbcXud2zmKCOyH9FhZAiN4lnwoLo3/sJB3r3lgUOJUJYUekLbUH3yFeVxnXDU4gcv8jWmsfTiN4cw0UN0+IQnJ3JEtYOyPnw1r0EnbkyLOyvlaMJyKR8a6K/Yf2zm/95Oc/eNf/Xrzn9RfUWQ/akZuD9f/x37+43tt7gxypvkW8f6WcOR8pRW/QVntDjwU6KBlVTAm6UHGwaf8UzUCwnYlFbKT7Nb6hO/jTarL/75vB6q/u/sE7/l3xoX8uwiWOihv/2nseuXXiK942WVm/tZmMny0D/DiZzzVZ5XJEdCOZX2z84bAsTqyWxQ0n14qN9dViNBro+yCLbHD9Ay9rJVKdc1CfepOD0qXVqyxAZYTbXS5YLECb7Lavwq9ZCtUuyK3gcDQsdvcnhQQSCboTGaORHk3GIqhEv7Jiv9i5s7NX4LMsQxnmsdwr4T2K/V2hGNPx3v5oUN+zvV1+anV15VdG9d57P/Y3nnq3FpyDbGQOwJ3vWDnxhZseOa53TtRls1GMNuSG+VrdS+gXBn5e/+R2aHen3tg784Wzv/jdD7lwiePE//CfHlecOnWq2NtbKerBoBiMdc2eWBs9crUaPHJ1fVQ/7hEbsqEmJX7KS7aRHmjwjG9940gQ+Qi82gNxpH3IbebZPhyYVBJN6omMC36qZVcCxqq2UV80qeUEIgOzJ7c7490JbkTKG9ZWywfP7NY3rA3L7Z1xs7ZeVnLLhJdiynWJ2EMJLGe3x/XKcFLu7q0WjzhRb1Unmi998k8eOLO9/uIvFj+Ej70sscQSSyyxxBJLLLHEEkssscQSSyyxxBJLLLHEEkssscQSSyyxxBJLLLHEEkssscQSF4mi+P8D/S6BvaISorUAAAAASUVORK5CYII=;" parent="1" vertex="1">
          <mxGeometry x="340" y="390" width="40" height="40" as="geometry" />
        </mxCell>
        <mxCell id="7OaiBoL9M2Hf6ulV0mE1-1" value="Ansible" style="shape=image;verticalLabelPosition=bottom;labelBackgroundColor=none;verticalAlign=top;aspect=fixed;imageAspect=0;image=data:image/png,iVBORw0KGgoAAAANSUhEUgAAAgAAAAIACAYAAAD0eNT6AAAAAXNSR0IArs4c6QAAAERlWElmTU0AKgAAAAgAAYdpAAQAAAABAAAAGgAAAAAAA6ABAAMAAAABAAEAAKACAAQAAAABAAACAKADAAQAAAABAAACAAAAAAAL+LWFAABAAElEQVR4AeydC3wV1bX/18w5pDEELqbk5HAuf0zRP8VW0XLRUi6+EETekfc7LyJaa3urvbfV1trW9nrt47ZqW1sVISQBQaAIyFtEy6VcpdRXLeX6iPzpISSIXIQ0Qs7Mf+1AFGKSmTlnHntmfvvz0ZMzs2evtb57OHvNnrXXJkIBARAAARAAARAAARAAARAAARAAARAAARAAARAAARAAARAAARAAARAAARAAARAAARAAARAAARAAARAAARAAARAAARAAARAAARAAARAAARAAARAAARAAARAAARAAARCQhYAiiyLQAwRAoGMCeXl53bOysvK4Rj7/F+P/ehJpPVX+W1f0PF1XYirp3XRF+ZSuq1kqaVkaUUQltYvGf/NntOVTV7I0Re/C37ueLY3PnVB15RSfO8nnTvL35jOfp1hGSuNjiqKdVHT9Q42UDxRFr1d05QjLqCdSD3Nb4j/+mxpSqdThhoaG42e3j79BAATkIwAHQL4+gUYhI5BInN9H16OFRAp/0md4cO2jaWqfiKLHeXAVg35vnyI5wE7KkZSu1Kmqtp+dlP2KQu8Q6fzZXJtMvr/fp3ZBbRAIBAE4AIHoRhghK4FCouyTiZ4X8FM5/6lcwHryp97yqehqH1J5cOfH6DAWMcvAdrOTQPsVUt/VUql3SVXfjRDVUiT1/7KSh9+tJWoKIxvYDAJuEIAD4AZlyAgLgWgsFvucqqpfYIMH8JT5AB74L+cpdJ6uR7FKgP2iw8zwZWb4Kn/+KZWiV+vr69/gdoTjgAICIJAhATgAGQLE5eEk0Lt79zztvPMG8jvzy/jplf/TLuMn/Iv5vy7hJOKW1fopnkH5i07qKzppr3Dcwivq3/++58CxY0fc0gByQCAoBOAABKUnYYeTBFR+sr+En+yv4ifRIfyefggHyBU6KRBtWyPArxNq2RH7PSnaTp4p2MkzBa9zCyF9uWKNHWqHlwAcgPD2PSzvgEB+fn5uF1UdTIpyVUrXB3Mw3mAOxuveQXUclpKAdoyDD3dxQOUOniX4A0UiO5PJZKOUqkIpEPCIABwAj8BDrDwEPv3pT/9jVlbkOkUnHujpKg5EG4BnR3n6xw5NTgccqi+zQ7BT0egPHzY3//699977mx1tow0Q8CsBOAB+7TnonREBntLnID1lLD/dj+MBfzAG/Ixw+u9ijszUdW2npinP6Lq+jl8ZvOo/I6AxCGRGAA5AZvxwtU8IJBKJHE3TruMf/fGKot7Iv/99fKI61HSBAAcL7OfkSWs54dEGjvV4Dq8LXIAOEZ4TgAPgeRdAAacInJnaH8fZ68Zw9rrr2ma/c0ou2vU3AX5dcIKzKj6nK+paTaPVhw4dEhkOUUAgcATgAASuS8NtUEFBAU/na2MiEWU8B+4NCDcNWJ8pAXYGdL6P/sgLCtakUvpaTnH8cqZt4noQkIUAHABZegJ6pE2Ao/ZFsp1JSiQymT/7p90QLgQBAwL8qmAv32PLmzVtJeIGDGDhtPQE4ABI30VQsD0C8Xj8Cn5nO5nPTeIntAvbq4NjIOAsAe0t3nxpOe9x8Lu6urqXnJWF1kHAfgJwAOxnihYdIsCR+0M4QIsHfG0iEvE4BBnNpkVAJCJiR3QVB5qKmYGdaTWCi0DAZQJwAFwGDnHWCPA7fbH17Txev12BQd8aO9T2hoBwBvSU/lteXvoEAgi96QNINUcADoA5TqjlMoFevWIjeROYm/lpfzwP/FGXxUMcCGRMgB0B3rRIXcPpox89eLB+U8YNogEQsJkAHACbgaK59AngaT99drhSbgKYFZC7f8KqHRyAsPa8RHbjaV+izoAqjhLArICjeNG4RQJwACwCQ3V7CIgkPdFotBjv9u3hiVb8RwCzAv7rs6BpDAcgaD0quT2JxPl9SOvyb7yeugSZ+STvLKjnCgF2BE7wvhQLFOXkz5LJ9/e7IhRCQIAJwAHAbeAKAZGsp0tEvUsjXSzhQ1CfK9QhxE8ExOsBlZRVp1La/cg46Kee86+ucAD823e+0JwT9oxRKXUnUeQ6XygMJUFACgIp3otAeQCrB6TojMAqAQcgsF3rnWGFRNlN8fg0XsL3r/y0/3nvNIFkEPA3AZ4V+DMvJfwJZxqsYUt4WSEKCNhHAA6AfSxD31Lv7t3zmnOyb2MQX+GBXyTwQQEBELCHwAF2Bn5x8mTzY0eOHDlmT5NoJewE4ACE/Q6wwf5EIpGjac238pPKt3ijlJ42NIkmQAAE2iHAwbOHeWbtP1Q1+kgymWxspwoOgYBpAnAATKNCxXYIZPE7fk7Rq32HB/94O+dxCARAwBECWp1G6g/51cBj3PxJR0Sg0cATgAMQ+C52xMAoZ+0r4aVL9/ATfx9HJKBREAABQwL8WqBWTen3JRsaFnNlxAgYEkOFswnAATibBv42IqBy1r6Zik7f4yd+bMFrRAvnQcA9AvtI1+9NHjq0nEXymwIUEDAmAAfAmBFqMAEe+CfqOv0AUf24HUBAXgJi1YCi0Hd5+eAqebWEZrIQgAMgS09Iqge/47+C3/E/xE/8gyVVEWqBAAh8goC2i2MEvsoxAi994hQOgMAZAnAAcCu0S0Dk6s/q0uV+nbTZ/NSP+6RdSjgIAvIS4NkAXSG1+uSpU3e99957f5NXU2jmFYGIV4IhV04ChZzEJzseuysSUZ/ktKSDFOIJRRQQAAHfERD/dvkf72VqRJmfm9s10vP4iRePIlDQd/3opML4cXeSrs/aTsRiRaTSTxHg57OOg7ogYIqA9haHB34jWV+/2lR1VAo8ATgAge9iYwNjsdgAVaWHear/auPaqAECIOBnAvxq4AVNo9vr6+tf9bMd0D1zAnAAMmfo2xZE6t5T52Xfz9P9N2PhkG+7EYqDgHUCnMAjldIe7fL3prsOHDt2xHoDuCIIBOAABKEX07CBl/XN1nX150jdmwY8XAICASEgUgurun475w94MiAmwQwLBOAAWIAVhKqJxPl9UqmsxyKKckMQ7IENIAACmRNI6frmSORkRTL5/v7MW0MLfiGAVQB+6anM9eQsfgVf46f+lRFFvTjz5tACCIBAUAioinKhpqs3d+uW23icVwuwXXpQbIMdHRPADEDHbAJzhpP5fJ6NWcTT/YMCYxQMAQEQcIQAvxbYnUqlZjQ0NLzpiAA0Kg0BzABI0xWOKBLlp/4f8sC/mNcE/x9HJKBREACBQBHgp8KEqqo3dz3vvNSJxsZdbBz2FghUD39sDGYAPmYRqL/OpPB9nNf0DwiUYTAGBEDARQLaq5xSeB5SCruI3EVRcABchO2GqEQikaNp2n28rv8O+O1uEIcMEAg4AZ5C5LwB/8mzAvckk8nGgFsbKvPgAASou/Pz8y+PRCJL+d9r/wCZBVNAAAQkIMDvAfaeiQ14WQJ1oIINBBADYANECZpQCwoK7oqqSg2/6y+QQB+oAAIgEDAC/LTYM6Iq5Tldc1MnTpz4LzYPKwV83seYAfB5B/K7/kJF0WoUXR3ic1OgPgiAgE8I6Iq2k5cUz+LYgFqfqAw12yHAs8UofiXAT/3z+O3c6xj8/dqD0BsE/Eng9G+O9vrp3yB/2gCtiTAD4MO7gP/RxRRFf4w37xnvQ/WhMgiAQIAI8OZCa3RdqTh06FB9gMwKhSlwAHzWzTzlP4af+p/gwT/mM9WhLgiAQEAJsBPAg79axq8EngmoiYE0Cw6AT7qVI/xzo1H6uaJHeNofBQRAAATkI6Arqcebm+nrnEXwuHzaQaO2BOAAtCUi4Xce/ONdIsrv2MMeLKF6UAkEQAAEziKg7TqV0m9iJ6DurIP4U0ICcAAk7JSzVeL3/YMjii4G//jZx/E3CIAACMhLQKtL6cpNHBcgUgmjSEoAqwAk7RihViI/vyyi0AsY/CXuJKgGAiDQDgE1Ln67xG9YOydxSBICmAGQpCPaqMGb+OQ/gvf9bajgKwiAgO8IiLiAgwcbbmXFm32nfMAVhgMgWQfjfb9kHQJ1QAAEbCCAuAAbINreBBwA25Gm3yDe96fPDleCAAjITgBxAbL1EGIAJOkRvO+XpCOgBgiAgEMEEBfgENi0m8VmQGmjs+/CRDz2S1IjP+TEjOgP+7CiJRAAAekI8G+cqk7olpuT/8HxE+ulUy9kCuEVgIcdnkgkcjRNq+JpmIkeqgHRIAACIOA6Ad5eeJWqqnOSyWSj68IhsIUAHACPboTe3bvnNefkbOLBf5BHKkAsCIAACHhKgJ2A3dHGxpEHjh074qkiIRUOB8CDjk8ken6WNJVzZqsXeiAeIkEABEBAIgLaW6RqY5LJw3+VSKlQqIIgQJe7uVev2EhKRTg7FgZ/l9FDHAiAgJQE+LeQfxNjsdgQKdULsFJwAFzsXB78Z+s6rSNF6eGiWIgCARAAAbkJ8G9iVFW2i99IuRUNlnaIOnepP3v1Kvh3RVf/UyEFTpdLzCEGBEDATwQUzh6sTMw577zoicbG5/ykuV91RQyA8z0Xjcfjy3jUR6S/86whAQRAIAAExAqBurq6aWwK0gc72J+YAXAQLjedFY/HVqikFDkrBq2DAAiAQHAI8JPpxV1zcy85fvz4arYqFRzL5LIEMwAO9YdY46/rzU/ztP9wh0SgWRAAARAINIGUrm+ORCI3IVeAM90MB8ABrmLwJ635WY70H+xA82gSBEAABEJDQFe0nYoSHQEnwP4uR0CazUzz8vK6Y/C3GSqaAwEQCC0BnkUdwrOpW3pwCS0EhwzHDICNYHk3v1hE0bfwk/8AG5tFUyAAAiAQegIcGPgnXddvPHToUH3oYdgEAA6ATSB52r8PaRoP/tTPpibRDAiAAAiAwFkE2AnYy07ANXACzoKSwZ94BZABvNZLxeDPm/r8nr9j8G+Fgk8QAAEQsJkAD1j9FUV5PpE4v4/NTYeyOTgAGXZ7fn7+RWLwZ5C4ITNkictBAARAwIiAcAI0rQs7AbynCkpGBPAKIAN8nOCnUCXtD/zOP55BM7gUBEAABEDAMgGtTiP1S5wwqNbypbighQBmANK8EcTgT6RxukoM/mkixGUgAAIgkAEB8durPXf6tziDZkJ8KWYA0uh8nvaPRyLKH1RSC9O4HJeAAAiAAAjYREAjrTaV0r/U0NBQZ1OToWkGMwAWu/r04B95DoO/RXCoDgIgAAIOEBC/xZwt8Lne3bvnOdB8oJuEA2Che8UNJm40EYRi4TJUBQEQAAEQcJCA+E1uzsnZBCfAGmS8AjDJS9xY4gbjG22QyUtQDQRAAARAwEUCnCdgt6qq1yBtsDnocABMcBK5/Xmp3/MY/E3AQhUQAAEQ8JAAxwS8oKrRUXACjDuBxzSUzggUEmVrWvMGDP6dUcI5EAABEJCDAMcEXC1+swv5t1sOjeTVAg5AJ30jbqCmeHyluKE6qYZTIAACIAACEhEQv9nit7sQTkCnvRLp9GzIT54Xjz/BHtLkkGOA+SAAAiDgOwL8fvv/nuyaEztx4sQ63ynvksJwADoAncjP/5aiqnd0cBqHQQAEQAAEJCegKso/5Xbr+r/Hj5/YJbmqnqiHIMB2sCdisSKKqr8jDilFAQEQAAEQ8DEBnsbVdW3SwYP1q3xshSOqwwFog7WgoGCwouhb+R1S1zan8BUEQAAEQMCHBHhlwAldV4bzNsKYCTir/+AAnAVD7OzHiX44xS/1POsw/gQBEAABEPA5AZ7QPZxKpUTK4Dd9bopt6mMVwBmUItFPl4iyEYO/bfcWGgIBEAABaQiI3/YukcgzyBb4cZfAATjNIlvLyX6Gd/a78GM0+AsEQAAEQCBgBPqlumavZZuQI4AhwAFgCLydZA2jGBywGx3mgAAIgAAItCGg6OqQ07/5bU6E8GvolwH26lXwoEpKSQj7HiaDAAiAQCgJcPDbxd1yc3I+OH5iaygBnDE61EGA7AWOUVVah+V+Yf4nANtBAARCSYDnvzWNxtbV1fHr33CW0DoAvMFPH0qlXiFF6RHOrofVIAACIBByArp+lCInL0sm398fRhKhjAE4s7vfSgz+YbzlYTMIgAAInCHAD4Ca9qmV/C0aRiahdAB0TfsNGz4ojB0Om0EABEAABD4mIMaCgoLYrz4+Ep6/QhcEyO/9i7nD7w1PF8NSEAABEACBzgiIPQO65ubWHj9+/JXO6gXtXKhiADjT3+WRiLIDaX6DdhvDHhAAARDIjIBIF5xK6UM5U+DLmbXkn6tD4wDk5eV1z8rKeo2f/vv4p3ugKQiAAAiAgCsEeHDQNK325Mnmy44cOXLMFZkeCwlN4EN2VoST/WDw9/h+g3gJCXzuc5+jPn36UEG8gHr0OJ8aDtcTL42ivXv3UvJAUkKNoRIIOECANwvg2eHCrKxoFbc+wQEJ0jUZihmARDz+fSb/XenoQyEQ8IBALBajm4qKaPjIkTRw4EDKzu44Kyo/CdHvX3iB1q5dQxvWb/BAW4gEAQ8IpFJ3JRsa/sMDya6KDLwDwEF/V3CynxeR7MfV+wrCJCTQI68H3XXX3TRz5ixS+R+F1VJfX0/33vtdWrP6aauXoj4I+IsA//PgeIAvBX374EA7AKfX+zf/WUzr+Ovug7YgYC+BWbNn09133009zj8/44a3bdtG//qvd1Jdsi7jttAACMhLQHuL1OiAZDLZKK+OmWkWaAegVzy+mA2ckxkiXA0C/iWQnZNNixZW0lVXX22rEbxciioq5tEL25+3tV00BgIyEdCJqg7W1c2VSSc7dQmsA5AoKJjOmf6W2gkLbYGArwjwNOaTS5fZPvi3MhBOwLhxY2jf3n2th/AJAsEjoOszkocOPRk8wwK6HTC/9y/kznokiB0Gm0DALIHvf/8+xwZ/oUNubi5VVlZRt+7dzaqEeiDgRwKPcA6ZuB8VN9LZeiSQUYsSnFdJW4o8/xJ0BFTwjMCw4cNo3rx5jssXywf//f77HZcDASDgGQHeL4CDZis9k++g4MClAk7k53+L1EiJg8zQNAhITaBnrCetXLGKPvWpT7mi58UXX0x/3beP/of/QwGBIBLgVMEXdjvvvA8/aGzcEST7AjUDIJb8UUT9QZA6CLaAgFUCt9/+Nden5b/3ve9RtEto8opZ7RLUDwIBHlt4jPl8EExptSEwMwBiyZ+up7YrpH661Th8gkDYCIgkP48+9pjrZnfr1o0+OPq/9Mc//tF12RAIAu4QUCIKaUO7df+HxR988MEpd2Q6KyUwMwCpVPPPsd7f2ZsFrctPoKSs1DMlb7nttoCGFXuGFIKlI6AOEGONdGqlqVAgHAB+6hkSUdSb02SAy0AgEATUqEpz5ni3ZFnMPoy6cVQgWMIIEOiIgBhrevXKtzexRkfCHD7uewdATP3z795ihzmheRCQnsD48ROId730VM/i4hJP5UM4CLhBQNEj4j2b74NefO8A8Ht/XoOkXuhGp0MGCMhMoKS42HP1RMbBCwov8FwPKAACDhPol4jHfuSwDMeb97UDwFOOA3Rd/7LjlCAABCQncFG/i+iKK78ohZZl5fOk0ANKgICTBDSiOzhB0OVOynC6bT87AFFOzrCIA/98Pw3jdCej/eATmF8xXxojp02dSllZWdLoA0VAwAkCYuyJRCJPcNu+HUd9uwwwEY/fyxsZTHeiY9EmCPiJgEjJ+9Avf0nRqBy+sEhA9LfkAXrt1df8hBG6goBlAjwG9eIEQU1+TRDkS8+Fp10uItLvstxbuAAEAkhg+szplJ2dLZVl5eUVUukDZUDAMQKcIOj0mOSYBMca9qMDoEYiygIipYtjVNAwCPiIQGlpuXTa9u/fnwYOHCidXlAIBOwnoHQ5PSbZ37LTLfrOAejVq+Cr/O4lEGswne5ctB98Aldfew0VFhZKaejcEu9XJUgJBkoFjoAYk3r1it3iN8N85QD07NkzwVH/P/QbZOgLAk4RKC0tc6rpjNsdN2489cjrkXE7aAAE/EBA1+mnYozyg66tOvrKAciKRkS6366tyuMTBMJMIJ5I0PDhw6VFIOISpk+fKa1+UAwE7CQgxiYxRtnZptNt+cYBaNnpj5SpTgNB+yDgFwJlpaXES2GlVreUdUQBgfAQUKaeHqv8YbHcvx4fM2Q9tV9+/BV/gUC4CYi8/zNmyv903bt3b7pu2LBwdxasDxUBlbSH2GBfjK2+UJKDK27m6ZUrQ3UXwVgQ6IRAUVGR53n/O1HvnFNzJUhRfI5C+AICjhJQB4sxy1ERNjXOeQzkLry+MpezLb3DnkpPuTWFdiDgHoGn166lQYMGuScwA0maptEXr7iCkslkBq3gUhDwDwGNtPpUSr+woaHhuMxaSz8DEI2qP8LgL/MtBN3cJnDJpZf6ZvAXbEScQgliAdy+TSDPQwI8Yx3rElHu8VAFU6KldgASiZ6fxWY/pvoRlUJEoLSszHfWingFEbeAAgJhIaCT+lUxhslsr9T/IlOpyEPsScmR4FzmXoRuoSEg8v6L9/9+K3l5eb7U22+coa88BPj9erYYw+TR6JOaSOsAJGKxooii3PBJlXEEBMJLYBY/ScuW999sbxQXY0mgWVaoFwwCYgzjgMCRslojqwOQpanqg7JCg14g4BWBefP9u8mOCFrs16+fV+ggFwQ8IcAZAn/GgrM8EW4gVEoHgPP9f5kV62OgO06DQKgIiPX0iURvX9tcXjHP1/pDeRCwSoBfY39ejGlWr3OjvnQOQCG/N+HAv2+6YTxkgICfCAQhkn7ixEkk4hhQQCBMBJTTY5pce3ZzB0jnAHzYq+AW9pjiYbo5YCsIGBEQef+HBSCjXk5ODk2eiozeRv2N80EjoMZ5FkC63QKlcgAK8fQftLse9thEoLy8XPq8/2ZNFbaggEDYCMg4CyCVA4Cn/7D9k4C9ZghkZWXxrnrTzVT1RZ2+ffvSkCFDfKErlAQB+wjINwsgjQPA64S7492/fbcaWgoOgQlFE3yT998s9TnYH8AsKtQLEAHZZgGkcQCys7LuxLv/AN3pMMU2AuXzghc5P3r0aOoZw/Yett0kaMgnBNR4Ij//X2RRVgoHQDz9k65/VRYo0AMEZCFw2Rcup0svHSCLOrbpEY1Gae6cYtvaQ0Mg4BsCqvrNljFPAoWlcADE0z8pSg8JeEAFEJCKQGmAN9GZM3euhOuQpOp+KBNEAjzWtYx5EtjmuQOAp38J7gKoICWBHnk9aNy48VLqZodSsViMRt04yo6m0AYI+IsAz3jLMAvguQOAp39/3bfQ1j0Cs2bO8m3ef7OUiotLzFZFPRAIDgFJZgF4wyJPS3aioOAgpv897QMIl5TAS398yfepf82gHfKlwfRu7btmqqIOCASGgEZ0WFXVC5LJZKNXRnk6A8C7JJVg8Peq6yFXZgLDhg8PxeAv+qCsPHirHGS+t6CbHAR48O2p680cCONd8dIBUHVd/Zp3pkMyCMhLIMjBf22pT+PUwCLZEQoIhI3AmTHQs3HYM8E89T+VhfcPW4fDXhAwIiDy/l977bVG1QJzvlv37rw/wOTA2ANDQMAsATEGirHQbH2763nmAJCi4+nf7t5Ee4EgcPPNNwcm77/ZDikvrzBbFfVAIFgEPBwLPXEACgoKBvMCYP4PBQRA4GwCYip85owZZx8Kxd/9+/engQMHhsJWGAkC5xJQB58eE8896sY3TxwARdHvcsM4yAABvxGYOGkSiSnxMJbiACc9CmN/wmbzBCIKfd18bftqur4MMJHo+VlNU//Cef9dl20fNrQEAs4QeO7556lfv37ONC55q01NTfRP//QFOnrkqOSaQj0QsJeARlqzqmqXJJOH/2pvy5235voMQCql3oHBv/NOwdlwEhBT4GEd/EWPZ2dnk0h+hAICYSPAY2JUjI1u2+2qA9CDi6IQ/oW73cuQ5wsCmAInmovMgL64V6Gk/QTE2Ni7e/c8+1vuuEVXHYCc7Oyvs6fTtWN1cAYEwkmA84LT5MneLoU7fvw4if+8LL1796Zhw4d5qQJkg4AnBMTYqH3qUze7KdxVB4BTH5a4aRxkgYBfCMycPdtzVVev/h2J/7wuc7BNsNddAPkeEdAiynw3RbsWiMdpf0cqurrRTeMgCwR8QYDd8Jde8j7v/+jRo+jvf2+k55573lNsmqbRF6+4gjhHuqd6QDgIeEFAV7QbDx6s3+SGbNdmAHSdvuyGQZABAn4jMGLEDZ7n/f/LG2/QK396mfbt3Ud79uzxFCFvkEIlWBLoaR9AuHcE3BwrXXEAzgQ2jPYOKSSDgLwEysvKPVeuqmrxRzrUVFd/9LdXf8yYOZPjol35efLKRMgFgXYJqKSMcisY0JV/YSKwQSxzaNdaHASBEBO4oPAC+uehQz0lINbfr1r18bv/VStX0gfHjnmqkwiKLCoq8lQHCAcBbwgoXVJdz3Nll0B3HIBI5FZvQEIqCMhNQGyFK6a8vSxr1645Z8A/efIkrVi5wkuVWmQXF5d6rgMUAAEvCCi67srN7/gvTzwev5aF9PECImSCgMwEROIbsRWu16W6nSn/xYsrvVaLBg0aFOrESJ53ABTwkIA6QIydTivguAOgko6nf6d7Ee37ksDEyRM9z/v/9ttv0+4XX/oEPxEMuHv37k8cd/tAecU8t0VCHghIQUAhKnNaEUcdABHIoJE+0Wkj0D4I+JFARYWrS37bRVRZ2fGTfmfn2m3MgYMTJ06i3NxcB1pGkyAgNwGdtIlOBwM66gCIQAYE/8l9k0E7bwgMuvIKz6e3xbv+ZU8+2SGAdWvOjQ3osKKDJ3JycmiyBK9JHDQRTYNAuwREZkCngwEddQB0Xcf8Xbtdi4NhJ1BW6vjsniHiDevXnxP81/YC4SAsWbq07WHXv5eXe79M0nWjIRAEmIDTwYCOOQD5+fmXswfzefQiCIDAuQR65PWgMWPHnnvQg2/VVVWGUquqOn5FYHixTRX69u1LQ4YMsak1NAMCfiKgDhBjqVMaO+YAdIkoM5xSGu2CgJ8JFM8toWjU27QYBw4coJ07dxpifOetd0zVM2wowwrIDJghQFzuWwJOjqWOOQBMe5JviUNxEHCKAP+Lk2EwW1y5yLSFZ2cJNH2RzRVHjR5NPWM9bW4VzYGA/AQ0Usc7paUjDkBBQcFgIvVCp5RGuyDgVwKjbhxFsVjMU/XFu/2aJebf7a9bt5aOHDniqc4iWdJc7BLoaR9AuDcEeJDu79RrAEccgIii3+QNKkgFAbkJlEgQ/Ld162Y6amFA15o1erKT1QJuEZ8zl7OjOvKL5ZYFkAMC6RFw6jWAU/+cMP2fXj/jqgATEHn/h3qc91/gXVJj/um/tTsWLlhAYpteL4uYOREzKCggED4CqiMbY9juAGD6P3y3Jiw2R6Di5pvNVXSwVl1dHT23bZtlCclkkv5rxw7L19l9QXFxid1Noj0Q8AOBfqfHVntVtd0B4Fd1iP63t4/QWgAItOT9nzbdc0sWd5L5z0i5qnb2DDC6xu7zV119NYmZFBQQCBsBJ8ZW2x0ATv7j/e4mYbszYK/0BEQ2O5HVzssipvCXLlmStgobNjzjeTCgUF7soIgCAmEj4MTYaqsDcHrnPzUeto6BvSBgRECGbHZbt26l+vp6I1U7PC+CAWVYEih2UMzKyupQT5wAgSAS4MR6cbtfA9jqAOi6hun/IN55sCkjAl8cPNjzvP/CgCVLajKyQ1xcvbjK82DAbt278/4AkzO2BQ2AgN8I2P0awE4HIKoo5FjCAr91FPQFgVYCMiT+EcF/W7ZsblUp7U8RDLh9+/a0r7frwvLyCruaQjsg4BsCdr8GsM0B4EQFl4gpCt+QhKIg4AIBkb1uNGex87osW8a7/tm0im/xYu/3B+jfvz8NHDjQa6yQDwKuEhBjrJ1JgWxzALoQ3egqCQgDAR8QENnrvM77L4L/qquNN/4xi1PMJGQSS2BWjlG94tJSoyo4DwKBI2DnWGubA0ARZULgSMMgEMiEAP/raslel0kbNlz7wgsvUPJA0oaWzjTBMwnVEiwJHMs7KoqdFVFAIEwEtIhiWzYsWxyAvLy87vyb8MUwdQJsBQEjAmPGjPM877/QcUkGS/86srGycqHnwYAit8KsmbM6UhHHQSCQBBRSrxRjrh3G2eIAZHfpMprfTSh2KIQ2QCAoBEpKSjw3RWzis2njBtv1OFx/mMSyQq/LXGQG9LoLIN9lAjzQZosx1w6xtjgAuqLYoowdBqENEJCBwEX9LqIhQ4Z4rorYxKf5VLMjelRVeR8M2Lt3bxo2fJgj9qFREJCVgF1jri0OAHsk18kKCnqBgBcEysrKvRD7CZkLFy74xDG7Dmzbuo0OHDhgV3Npt1NcXJr2tbgQBPxIwK4xN2MH4MyShN5+hAidQcAJAuLd9JQp3mfE3rlzp73Bf+3AWlKTeXKhdpq1dGjYsGGUSCQsXYPKIOBzAr3tWA6YsQNg55IEn3cI1AeBFgLTpk/zPO+/UKSmptrxHqlcvMjzYECV06PJkGzJcdgQAAJnEbBj7M3YAcDyv7N6BH+CABO4ef4tnnP44NgxWr/uGcf1OHrkKG1Yv95xOUYCZsycSWo0858zIzk4DwKyELBjOWBG/2Kw/E+WWwF6yEJABP4VFhZ6rs6y5cvp5MmTruhR7cJMg5Eh/FtERUVFRtVwHgQCQ8CO5YAZOQDZ0egwLP8LzP0EQ2wgIMtU9KJFT9hgjbkmXtj+PIIBzaFCLRCwjQAHAmaLMTiTBjNyAEilL2UiHNeCQJAIiLz/oyTI+79792565613XEW7uHKRq/LaEzZo0CApdl1sTzccAwFHCGQ4BmfkAHD2v8GOGIVGQcCHBMRyNBGQ5nWprlrsugo1vNVwc7Mz+QasGFNeMc9KddQFAV8TyHQMTvvXqpCnH8Q7CF/Tg/IgYBMBEYA2e/Zsm1pLv5nGxkZ6evXT6TeQ5pUiGPCZdevSvNq+yyZOnES5ubn2NYiWQEBuAv/E6mWnq2LaDsDfCwouF+8g0hWM60AgSATGjpUj7/9TT7kX/Ne2/6qr7NtxsG3bZr/n5OTQ5Kne52Awqy/qgUAmBDgGr2sBj8XptpG2A8AznZj+T5c6rgscgTJJtqZdtGihZ2xF4qG3337bM/mtgsvL5cjC2KoPPkHASQKZjMVpOwC6rl/npFFoGwT8QkDk/b/iSu83w3zttVdp3959nmKrrKz0VL4Q3rdvXyn2YfAcBBQIBYFMxuK0HQAi1fudTkLRvTBSdgIVFTdLoWLVYu+n4Jfx5kNNTU2e85BlOabnIKBAGAikHYuXlgOQSPT8LF/YMwxkYSMIdEZABJyJwDOviwj+W7lqhddqkMhAuE6CYECxHFMsy0QBgaAT4DiAOJfCdOxMywHQtCje/6dDG9cEjsDU6VOlyPv/9OrV1NTo/ZO36OAqD5Yhtr2xxHLMuXOK2x7GdxAIKoFr0jEsLQeAo/+vT0cYrgGBoBEoL6+QwiQZduVrBbH7xZekCAacM3cuv6ls1QqfIBBcArqupfVKPq1/HjrRFcFFCctAwByBoVcNlSLv/1/eeIP27NljTmmXai1YsMAlSR2LicViNOrGUR1XwBkQCAiBiJLeqjzLDgDvu53Ds2v9A8INZoBA2gTKyuRYblZdU5O2DU5duHLFCkmCAcucMhHtgoA8BFR1gBibrSpk2QFIpVIDiPMPooBAmAmIALMRN9zgOQIRcS8GW9mKCAZczXEJXpehQ4fSBYUXeK0G5IOAswR4TG4Zmy1KsewAqKqedtYhi7qhOghIS0A8/cuQ919E3IvBVsZSI0FmQMGlrBz7A8h4f0AnewmkMzZbdgA0jb5gr9poDQT8RUDk/Z8zhwPMJCgyBf+1xSHiEvbu3dv2sOvfp3Fq4OxsZC13HTwEukognbHZsgPAwQYDXLUKwkBAMgJFRUWUl5fnuVYi7e5/79rluR6dKbBw4cLOTrtyrlv37jRx8kRXZEEICHhFQFGsx+ZZdgBIVxAA6FUPQ64UBMS2vzKUagnS7hpxWLFiOYkkRV4XWZZres0B8gNNoJ9V6yw5APn5+XFSlB5WhaA+CASFgMj7P2jQIM/NOXnyJD0lYfBfWzAiOdGqVSvbHnb9e//+/WngwIGuy4VAEHCLgMgI2DJGWxBoyQGIRpXLLLSNqiAQOALzK+ZLYdOG9evpyJEjUuhipMSCBY8bVXHlfLEkOza6YiyEhJKA1THakgOgNOsIAAzlbQWjBYGWvP+TJ0sBY8kS+db+dwRG7FD48ssvd3TateNjx46lHnmYwHQNOAS5TsDqGG3JAaCICgfA9S6FQFkITJ85U4po8gMHDtCO3++QBYspPaoWLzZVz8lKYiXArJmznBSBtkHAWwIWx2hLDoBGClYAeNu9kO4hgVJJppCrJFlfb6UrVq1cKUUw4NziEitqoy4I+IyAbilI37QDgBTAPrsPoK6tBK6+9hop8v5rvNi3urraVtvcaEwELS5b9qQbojqV0bt3bxo2fFindXASBPxKgBMCXmhFd9MOwKlTp/ohBbAVtKgbJAKlpWVSmLNl82Y66pPgv7bAFi+ubHvIk++yLOP0xHgIDTQBXgnQNZHo+VmzRpp2ALooSqHZRlEPBIJEIJ5I0PDhw6UwyY/T/63gRDDg7t27W7969jls2DDiGU3P5EMwCDhKoFm92Gz7ph0APaIUmm0U9UAgSATK+N2/DHn/6+rq6Llt23yNtrpqsef6i74skSSew3MYUCBwBKyM1aYdAKb0mcCRgkEgYEAgKyuLZnD0vwylxofv/ttye3r101JsXiT6VOzpgAICASRgeqw2/S9A1/XCAIKCSSDQKYEJRROkyPvfEvznw+j/tnBbggGXL2972PXvYi8HsacDCggEjYCVsdq0A8AVC4MGCvaAgBEBWZaNbeOp//r6eiN1fXF+0aInpNATwYBSdAOUsJmAlbHatAPAmwD1sVlPNAcCUhO45NJLpckfv7TGP5n/jDr1nbfeoV0S7GIo9nTo18/y/ilG5uE8CHhLwMJYbcoB6MEFmwB526eQ7j6B0rIy94W2I1Hk/N+4eWM7Z/x7qLJykRTKV1RUSKEHlAAB2wjwhn0tY7aJBk05AF26dCk00RaqgEBgCIi8/7K8I64SkfNaYNC2GLJu3VopNjMqmjixZY+HYNGFNWEnYHbMNucAIAdA2O+n0Nk/e+5cKfL+n878VxU4/lqzRk8+6X1mwJycHJo6fWrg+MKgcBMwm7fHlANgZV1huLHD+qAQKC8vlcKU/9qxg5IHklLoYrcSCxcsIOHgeF1KS8u9VgHyQcBWAmbHbFMOAGtmel2hrVagMRDwgIDIFZ9I9PZA8idFVgVg7f8nrTp9JJlMknBwvC59+/alIUOGeK0G5IOAnQRMjdmmHABF1/raqRnaAgGZCciyPEwE/23auEFmVBnrJouDg8yAGXclGpCIgKJT3Iw6phwAIqWnmcZQBwT8TkDk/Re54mUo4h1586lmGVRxTIcNG56RIhhw1OjR1DOGnznHOhoNu0xAN7Vs35QDoJHaw2XtIQ4EPCFQXl4uRd5/YfySJdWeMHBTqAgGbFnl4KbQdmSJ/QHmzilu5wwOgYD/CJgds005AKqum5pO8B8maAwCHxMQef/nzJ798QEP/xKJckTCnDCU6uoqKYIB5/DKDzL1ixiGXoGN/iagmXpoN3O7ZyMJkL9vBWhvjsDESZOoW/fu5io7XKumJnhL/zpCJlY5bN++vaPTrh2PxWI06sZRrsmDIBBwioDCs/aFRNlG7Rs6APn5+aY8CSNBOA8CshMoKS2RQsUPjh2jdWvWSaGLW0rUSLLRUUlpmVsmQw4IOEZA4cH/hImx29AB6NJF/wfHtETDICAJgcu+cDldeukAKbR5infLE7vmhamIVMcybHY0dOhQuqDwgjChh60BJWBm7DZ0ADQt2iugfGAWCHxEoLRUjsQ/QqEnJNkt7yM4bvzB+YCqJcl5UFY+zw2LIQMEHCWQSkXONxJg6AAgANAIIc77nUCPvB40btx4KczYvXt3aIL/2gKvrFwoRTDgtKlTpUgD3ZYPvoOAFQIRE8H7hg6AruqIAbBCHXV9R2DWzFnS/OAvXbLEd/zsUvhw/WHaunWrXc2l3Y4IBJ04eWLa1+NCEJCBgB4xTgZk6AAozXAAZOhM6OAQAf4XIEvwX2NjI61audIhQ/3RbFVVpRSKlpdjm2ApOgJKpE3AzNht6ABQRDF8j5C2hrgQBDwmMGLEDdLk/d+3b1/ogv/adv+2rdtI7BHgdenfvz8NHDTQazUgHwTSJ2Bi7DZ0AHRSEQSYfhfgSskJlJTIE/x3+eWX09Nr11JeXp7k1JxVr1qSJYGy7AnhLG20HlQCKZ0MX9+bcACoa1ABwa5wExDLva6++mqpIAwaNIi2PPssXXLppVLp5aYyNZwCWYZtgouKikgEiKKAgB8JKIpquLmFsQOg67l+NB46g4ARgWJ++hc54GUr8Xic1q5bR7NFatoQFhEMuHHjes8tj0ajJAJEUUDAnwS0qJHehr9+iqIbphM0EoLzICAbAZH3f+aMGbKp9ZE+Qr8HHniAHnz4YRJ/h61UVcmxEdLc4pKwoYe9ASGg64rh2G3oAASEBcwAgXMITJ46WZq8/+co1ubL5MmTac26tSTy1IepvLD9eTpw4IDnJvfu3ZuGDR/muR5QAASsEjDz8G7oAHCF8D1+WCWN+r4jUFEx3zc6ixTFIi7gyiuv9I3Odii6uHKRHc1k3AaCATNGiAY8IGBm7DZ0AFjvHA90h0gQcIyAWN7Vr18/x9p3ouGePXvSU5wjYN7N85xoXso2a5bUUHNzs+e6DRs2jJeKJjzXAwqAgEUChmO3oQOgkYoZAIvUUV1uAjLl/bdCSgSlff/799Ejv/1tKOICjh45Ss9wMKTXRQSKlki0V4TXPCA/OAQMHQAizTCQIDg4YEnQCYhlXePHF/nazPHjx9P6DRso0Tv4T6Wy5ASYMXMmqVETP5e+vrOgfJAImHl4xx0dpB6HLYYEZs+eS+JJ2u/l4s99jrY9+xwNGTrE76Z0qv/OnTvp7bff7rSOGydFciaRFwAFBPxDwPjh3YwDgBkA//Q4NO2MAN/t5eXlndXw1Tmxac3Spcvotq/c5iu9rSpbXSnH/gAIBrTac6jvMQHDsdvQAVBNrCX02EiIBwFTBG684cbALacTsxl3f/s79NiCBZSdY/jv3RQn2SotefJJampq8lwtkaXRb8GjnkODAp4RMDN2GzoAumKcTMAzCyEYBCwQCHIg1+jRo2nLpi0k0hsHrXxw7BitX+99MKDgWlGBXQKDdn+F2R5DB0AhCuZjRZh7PYS2i4HxKsny/tvdDX0vuog2bdpMV197jd1Ne95eVWWV5zoIBYomTqTcXGRHl6IzoESnBMw8vBs6AJ1KwEkQ8AmBsvJwrJ8XcQE1NUvojjvvJArQv+4XX3xRimDAnJwcmjp9qk/ueqgZZgJmHt4NfyJ0Iu9fvoW5F2F7xgSys7Np2tTw/GiLdet3fuMb7AgsDdTT6sKFCzK+F+xooLQ0OIGkdvBAG3ISMDN2GzoAiq7DAZCzf6GVSQKTefAXT8ZhK9deey1t2rKFPnPhZwJh+lPLV0gRDNi3b9/AL78MxA0TciPMjN2GDoCmwAEI+X3ke/ODtPTPamcUFhbS5s1badToUVYvla6+CAZcvXq1FHqVFJdKoQeUAIGOCJgZuw0dAG4cMwAdEcZx6QmIDXTCvnRLvLd+fMETvFzw2yReD/i51FTJEQw4ildd9Iz19DNK6B58AoZjt79/DYLfgbAwQwJBXvpnFc1tX/kKLV22zNevQ/bs2UN79+61arrt9YUjhcRAtmNFgy4TMOEAqIZehMs6QxwImCIgntDGjB1rqm5YKg0dOpS28tbCn+NUwn4tsmwTPHv27ECttPDr/QC9OyJgPHYbOgAqaSc7ah7HQUBmArNmzg5E3n+7Gffu3ZvWPvMMjS+aYHfTrrS3bPkyamxsdEVWZ0JisRiNutH/sRWd2Yhz/iVgZuw2dADYfO//pfm3D6C5VwT4zsb0f8fwxdLIRx75DX3/vvt8t8tdU2MTrV61qmPjXDxTUlrmojSIAgFLBAzHbkMHQCPCDIAl5qgsAwHxZCae0FA6JzBv3jx66qmVJLZJ9lN5bMFjUqgrXqkEMf2yFHChREYEzIzdhg5ARhrgYhDwiACezMyDHzx4MG3Z8ixdcuml5i/yuOa+vfvo5Zdf9liL0+LDkmVSCthQwjQBXVcM4/cMHQAzjZjWCBVBwAUC4olMPJmhmCeQSCRo7bp1NHHyRPMXeVyzpkaOJYEiy6R4pYICAjIRUEzk8DF0ABRFOS6TUdAFBIwIVNx8s1EVnG+HQFZWFj388K/ogZ/8mKJdou3UkOvQKo4DkCEYUGSZ9JPjJFcvQhvnCKjNRm0bOwBEJ4wawXkQkIVAS97/adNlUceXesyePYdWrvqd9DEUIhjwqaeWS8G4vBzbBEvREVDiIwK8GZDh2G3CAdAOftQi/gAByQlMmz6NROY7GYp4R33nHXdQc7OhIy6DuufoMGjQINrC+QIGDhx4znHZvixatFAKlfr3708DB8nNSgpQUMI1AgoZj92GDgCl9Pdd0xiCQCBDAjIF/y2pqaEnly6lmyZMoMOHD2domfuX9+zZk3739NNUUlbmvnCTEkUw4O7du03WdrYaMgM6yxetWyRgYuw2dAD0qHLUolhUBwFPCHyRo9llyfsv3k2vXLWihYNIXzvi+uvpL2+84QmXTIRGo1H60Y9+RA8+/DCJGAEZS3XVYinUKioq8t1ySinAQQlHCJgZuw0dACVFdY5oh0ZBwGYCMiX+EYlqxDvq1lJfX0+jR42iNWvWtB7y1efkyZNp/YYNFE/EpdP76dVPk9gp0OsinKVZM2d5rQbkg0ALATNjt6EDkFIUOAC4oaQnIPL+j5Uo73/1kppPMDt58iTdOn8+/eDee30ZF3Ax7x8g8gWIHRZlKoLrsuVyBAPOLS6RCQ10CTEBM2O3oQMQiaQQAxDim8gvpov3r7JsdSum+l/5U8dJan776KM0Y8Y0KZ5arfZvXl4ePbVyJd3y5S9bvdTR+osWPeFo+2YbF/ssDBs+zGx11AMBxwiYGbsNHYBTp5T/dUxDNAwCNhBQoyq17MxmQ1t2NLGostKwmZ07dtKw66+TYmtbQ2XbVBBT3ffccw89tmCBNAlw3nnrHdq1a1cbTb35imBAb7hD6rkEzIzdhg5AQ0MDggDP5YpvkhEYNWqMNGvWRfDfihXmpqOTB5I0huMCtm7dKhlRc+qMHj2anuG4gETvhLkLHK5VJUkw4LBhw0hkVkQBAe8I6Kd47DZcemToALABTaTrcAK860lINiBQJtEytbbBfwaqU1NTExXPmUM/fuAB0jTevsNnRax/3/bsc3T1tdd4rvmaNU/TkSNHPNdDvIoqLS/3XA8oEF4CGunvsfWGCUjMOACkIRAwvHeS5JZf1O8iEpvZyFLaC/4zo9vDDz1Es2bNlCK1rRl9z64jUuHW1Cyhr/3Lv5x92PW/tWaNnnzySdfltidw+vTpvttmuT07cMyvBFRTD+2mHACVNFON+RUV9PYvgbIyeZ60jIL/OqMsnv5f2P483XDDcKqtre2sqpTnxFPvv33zm1RZVUXZOdme6bhkSbVnss8WLIIlRV4AFBDwgoDZMduUA6CRmvTCCMgEgc4IiLz/U6ZM7ayKq+fMBP8ZKSSC2UaOGEE7duwwqirl+eHDh9OWTVvoMxd+xhP9BD9Z2CEY0JNbAEJbCCj7zYAw5QDwtoIHzDSGOiDgJoHpM2dKk/ffSvCfEaPjx4/TjGnT6Fe//KVRVSnP973oItq8eSsvhxvuiX6LFy/2RG5boWI/BVkyU7bVDd+DTUBXzCXwM+UAMKp3go0L1vmRQEWFPDuwPb169TmZ/zLlKV4J/Dun4J1XXubLuACxIVMlL4f8t299k8jsr0ym0M5cv2HDM1IEAwp1ZLpHbcKLZvxBwNSYbeqfppLSa/1hM7QMC4EhQ4dQYWGhNOZWVVc5osuG9Rtalgomk/57CyfiAr72tX/hAMGlJAIF3SoiGHDpkiVuietUTtHEiZSbm9tpHZwEAbsJmB2zTTkAp3Q4AHZ3ENrLjEBpaWlmDdh4dSbBf2bU2LdvH40Ycb00iW7M6Hx2nWuvvZa28tbCbk6HL1q4UIpllWImZOp0eeJUzu4X/B1cAmbHbHMOwKlTtcFFBcv8RkDk/b/xxtHSqO1GApqjR45ywOMkWrhQjpS3VuGLFLkiadCo0aOsXppWfTFj8sILL6R1rd0XlZbKs1LFbtvQnpwETpkcs005AEe5IBmQnB0dRq3E0j9Z8v6LRD7Lli9zpRvE1PZ37v423X77bSQ2wPFbEU/Djy94gu659x5X+k+WbYL79u1L4pUVCgi4QoAT97WM2SaEmXIAWtpR9P0m2kMVEHCUgMj7P2fOXEdlWGl8tc3Bf2Zkr1qxisbxzoeHDxtm+jTTnOt1brnly7R02TLqkdfDUdkbNm4gsQ2zDKWEN6tCAQFXCFgYq007AJyktNYV5SEEBDohMHbsOBJJVmQpNZz4xovy+muv0Yjrr6fXXnvVC/EZyxw6dGjL1sKf4y2GHSv8o1VdLUdioFG8b4J4dYUCAk4TsDJWm3YAFEWpdVpxtA8CRgTKJAv+27Nnj5HKjp0XT7fj2SFasWKFYzKcbFhsmLP2mWdofNEEx8RUVsoRDCheWSExkGPdjIbPImBlrDbtAHD7ptYVnqUH/gQBWwmIvP9XXPlFW9vMpDE3gv+M9BOxAF+7/Xbenvfb1NxsuPeHUXOunxfZHB955Df0w3//EUW7RG2Xf7j+sDS7LbZsWW3lF9d2GmgwJARMj9Wmb0ez6wpDAhhmekBgfsV8D6S2L9LN4L/2NTj36BOPP0FTJk2SJgHOudoZfystLaOVq37nyOudKo9e07S1OhaL0Zgx49oexncQsJWAlbHatAOgqer/2KolGgMBCwREMhWRVEWW4kXwn5HtL774Yku+gL179xpVlfK8SJ27hfMFXHLppbbqt23bVmmCAefOlSeA1VbIaEwaAlbGatMOAL/DesftlJ7SEIUinhOYxturimVkshSvgv+M7K9L1rVkDly/fr1RVSnPx+NxWrtuHc22c6DkqCiRGEiGIoIfLyi8QAZVoEMQCfCI3jJWm7TNtAPAiTUaOT25Px8tTMJANXkJlJXLk0xFZP7zMvjPqJfE64kK5nX//fdLkQ3PSN+257OysuiBBx6gBx9+mMTfdpQa3iZY7K8gQ5lXPk8GNaBDAAmIMVqM1WZNM+0AiAZV0v255sgsDdSTksDV114jVd7/6poaKTm1VeqXDz1Es2bNpA+OHWt7yhffJ0+eTGvWrSXx7jzTIoIBN27cmGkztlw/ZepUEsGPKCBgNwGrY7QlB4BS2p/sVhjtgYARgZLiEqMqrp0XT9crfbTs7oXtz9PIkTfQ22++6RojOwVdeumAlriAK6+8MuNmZVi1IYwQGyNNnCxPPEvGYNGAPAQsjtGWHAA9qsABkKerQ6FJnNeKj7jhBmlsFcF/fnuifrf2XRoxcgRt375dGo5WFOnZsyc9tXIlzbs5s6lz4QwdOHDAimjH6paXy7OVtWNGomHXCVgdoy05AM3N+iuuWwSBoSUgkqfMnTvHlbzxZiHX1HiT+c+sfh3Va2ps4tcBM+jBB38hzbvwjnRt73g0GqXvf/8+euS3v80oLmBx5aL2mnf9WP/+/WngoIGuy4XAYBOwOkYrVnEkCgreJ0VxNom3VaVQP5AERN7/V155zZG14ekAe/vtt+mqf/7ndC6V6pphw4fTb3kglWlVhRVAIghzbvEcSh5IWrmspa7Yf0DcU8Kh8LqIDI4iiRMKCNhCgDcBSh46dL6VtizNALQ0rOhYCWCFMOqmTaCoqEiawV8YsWDBgrRtkenCbVu3tiwVlGU63Cqbi3n/khwt7gAAKo5JREFUgG3PPpfWDntiW2VZlkiK+9vpDZGsskV9HxNIY2y27ACkdMJKAB/fI35SXabc6X4L/jPq53379tFw3kxo165dRlWlPC8C6ZYuXUa3feU2y/pVVVVavsaJC8QsxKyZs5xoGm2GkEA6Y7NlB4BfyyIQMIQ3l9smi7z/IjOcLGXt2jW+C/4zYieCGadMmdTyOsCoroznxQB697e/Q4/xzEx2jvlldTt37CTxOkeGMleiFS4y8IAO6RNIZ2y27ABomvJy+iriShAwR+DWW60/2ZlrOb1asmwrm572HV+lNWv0g+99j2699RYSsxx+LKN5q90tm7ZYyrBXXSnHLEDv3r1p2PBhfsQOnSUjkM7YbNkBiEQiryIlsGQ9HzB1WvL+8/tRWYp4Wtz94kuyqOOIHmtWP03jxoyhuro6R9p3utG+F11EmzZtJpE0ykxZtmK5NLsnyvSqyww71JGQAI/kLWOzRdUsOwBICWyRMKpbJjBr5kypMqUtXBiM4D+jjniDo+tHcFzA7t27japKeV7EBdTULKE77rxTpC3ttIhgwDVr1nRax62Tw4YNowTnu0ABgXQJWE0B3CrH4J9Ja7VzP3ntYLAfh841F99cJjBvvjxJUsS0+FPLV7hMwDtxR44coZtumkBiiZofi8gdcec3vsGOwFISM0mdlWpJtgkWOpdKtNdFZ8xwTk4C6Y7JaTkAOtGzcmKAVn4ncF3L01BvacwIYvCfEVwRFyDWp3/zm9+UZprcSOe256+99lratGULfebCz7Q99dH3/+YVELIEA07n3S7t2vjoIwPxR2gIpDsmp+UAqGqzP9cOheZ28K+hc4uLpVI+qMF/ZiBXL15MN02YQGJWwI+lsLCQNm/eSqNGj+pQfVle7+Tl5dHY8eM71BMnQMCAwPMG59s9zTMH6RXet7uBvYee6V2Nq0DgkwRE3v+XXnpJmtS/Qcn890nS1o7EE3GqrqohkYDHr+VXv/wl/Uc72yOLuIGXX3lFipgTEXsxYdw4vyKG3h4R0Ejj2N36XumIT2sG4LQgbWc6AnENCHREoJzfg4r3obKURQsXyqKKp3rUJeto9KhR0gTNpQPjtq98hZYuW9ayE9/Z14tcCOI1jwxF5L3o16+fDKpAB38ReDFdddP+tVUU5bl0heI6EGhLQLz/FO9BZSki+G/58uWyqOO5HidPnqRb58+n++67z7dxAUOHDqWtzz77iUF28aJKz/m2KlBRIU8AbKtO+JSbQCZjcdoOAC87QByA3PeFr7SbUDRBqrz/69atC1zmPztuiN/8+tc0Y8Y037IRiXee2bCBxvP91lr27NlDe/fKscVJ0cSJhqsXWvXGJwgIApmMxWk7AIcOHXqZ3z2cQBeAgB0ESkrL7GjGtjZqJFkiZptBNjYkUukOu/46evvNN21s1b2mxC6IjzzyG/o+z2aIHSdFkWWbYKHb1OlT3YMBSb4mwNH/TefxWJyuEWk7ACxQ5A39Y7qCcR0ItBK45NJL6fLLL2/96vmnCP578cW0X6t5rr8bCoiteEeMHEFbeWdBv5Z58+bRU0+tbNmRb9nyZdTY2CiFKaWl5VLoASXkJ6CT9mLt6bE4LWUzcQBEsi28BkgLOy46m8C8inlnf/X878pKBP+Z6YSmxiYqnjOHfvbTn5qpLmWdwYMH05Ytz9JFF/5fWr1qlRQ69u3bN62tjqVQHkq4SkAldXsmAjNyAEijP2QiHNeCgNgPfdw4edY/i+C/ZU8i+M/KnfmfP/sZxwVMl+YJ2oruoq5Iw7tp82ZqlGgzpJLiUqtmoH4ICehKZqvxMnIAmpqbt4l3ECHkDpNtIjB9ulx5/xH8l17HvrD9ebrhhuFUW1ubXgMSXCVeCchSRvEOhz1jSLMiS3/IqYd+6sMPmzN6CM/IAeAMYcfEOwg54UArPxAoL5frSWdJTY0fsEmp4ztvvUMjR4ygHTt2SKmfn5QS+TCwS6Cfesx9XTXS/yDG4EwkZ+QACMFqSt+QiQK4NrwExD7oiYQ8ef9F8J/ID4+SPoHjx4/TjGnT6Ne8XBAlMwKzZ8823NUwMwm42s8E7Bh7M3YAThFt9DNE6O4dAdminSsr5UkI412vZC5Z44XJP+IldvPKy0jEVKCkRyAWi9GYMUgNnB694F9lx9ir2IEpEY//P25Hnkc5O4xCG44SkC3vv8h0N4CXI4rUsCj2Efgc7x9QyTkVsN99ekzF65RpU6akdzGuCjKBA8m6uv+TqYEZzwAIBTgQ8LlMFcH14SJQUSFX3v9169Zg8HfgFnzjjTdoxIjraRderaRFV6QvvqDwgrSuxUXBJZDStfV2WGeLA6Doui3K2GEQ2pCfgMj7P2smv9+UqIjd7lCcIXD0yFGaMmUSLVz4hDMCAt7qvHJ5VicEHLVvzIvoZEvsnS0OQNOpU+uxHNA3947nik6cNOkTu7J5qRSC/5ynrzVr9J27v023334bidctKOYJTJk6VYrtis1rjJrOEtBPiSX4dsiwxQHAckA7uiI8bZSUlkhlbDWC/1zrj1UrVtG4sWPp8OHDrsn0u6Bu3bvTpMmT/W4G9LeJgB3L/1pVscUBEI3ZsSShVSl8BpfAwIED6dJLB0hjoHgaXfLkk9LoEwZFXn/tNRpx/fX02muvhsFcW2wsK8f+ALaADEAjdo61tjkAdixJCEDfwAQDAsWlciX+2bB+PYL/DPrMidP19fU0fuw4WrNmjRPNB67N/v3706ArrwicXTDIOgE7x1rbHICGhgbeHpj2WzcHV4SFgMj7X1RUJJW5WPvvXXeI2Zdb58+n795zDzU3N3uniE8kFxfP9YmmUNMpAmKMFWOtXe3b5gAIhXRdQ1Igu3omgO3MmjmLotGoNJYh+E+Orljw+OM0hQNDOZZIDoUk1WL8+KKWrYslVQ9quUDA7jHWVgdAUdSlLjCACD8S4DsNwX9+7Dh3dH7xxRdb8gXs3bvXHYE+lCKcZ+FEo4SXgN1jrK0OQF1d3XaNtLrwdg8s74jAiBE3SJX3X0w/P7ViRUfq4rgHBOqSdTRm1Chaz3EZKO0TmFtc0v4JHA08ATG2ijHWTkNtdQCEYoqiYDN1O3soIG2VlMgX/IcpZ/luLrF3QAVHvN9///0k9hRAOZdA7969SWyihRI+Ak6MrbY7APxvFq8BwndvdmqxSGV69dVXd1rH7ZPVnJ8eRV4Cv3zoIZo1ayZWaLTTRdgmuB0oITjkxNhquwNw6NChXXgNEIK70YKJZZzKVOxvLksRwX87d+6URR3o0QGBF7Y/TyNH3kC1tbUd1Ajn4WHDxDbaiXAaH1qrtbfE2Gq3+Y78KjsxVWG34WjPHQIi7/80TmUqU6mpQd5/mfqjM13erX2XRo4YQdu3b++sWqjOCWe6FImBQtXnbOxKJwx2xAFwYqrCCePRpvMEJk+dLFXefxH89yQy/znf8TZKOH78OL8OmEEPPvgLG1v1d1PTp08n4VyjhINASld+54SljjgAZ6Yq9jmhMNr0F4GKivlSKSwy/x3FenOp+sSUMhwP+OP/eIDmzJlDjY2Npi4JcqW8vDwaO358kE2EbR8RcGb6XzTviANwWm9t9Uf6449QEhCpS/v16yeV7Qj+k6o7LCuzbevWlqWCBw4csHxt0C4oLi4Omkmwp30Cjkz/C1GOOQCnUjpWA7TfmaE5WlZaJpWtYtBA8J9UXZKWMvv27aPhvJnQrl22x0SlpY9XFw0aNEg6B9srFkGW6+RY6pgDcHpvAO3PQe4Y2NYxAZH3fwxv+ypTWbhwoUzqQJcMCHxw7BhNmTKJHuc0wmEuFRUVYTY/8Lbziro/25n7vy0wxxwAIYhXA4T7X2db2iH6Xjy3RKq8/wj+C97NpzVrdC9vJHTrrbeQ6N8wlomTJ1Nubm4YTQ+FzU6PoY46AJETf1/MWwTx7oUooSLAd1WJZNv+bty4EcF/Ab0J16x+msbxbBOnSQ2ohR2blZ2dTdN4RQBK8Ajw0/+J02Ooc7Y56gAcOHZMbO/lyPIF55Cg5UwJjLpxFMVisUybsfX6mmpk/rMVqGSNvf7aazSC4wJ2794tmWbOqyObs+28xeGQoJC66swY6pjBjjoAQmuNlEcc0x4NS0mgWLINS0Tw347f75CSFZSyj4DY2+GmmybQipBt8tS3b18aetVQ+0CiJSkI6ERPOK2I4w7AmR0Ca502BO3LQUDk/b9Ksrz/iysXyQEHWjhOQMQFfO322+nuu75Fzc3NjsuTRUBxCZYEytIXdujBaS/2273zX3t6Oe4ACKFqSv9te8JxLHgE5nHef5mKCA6rWYIVqTL1iRu6VC6qpJsmTKCw7Ph4442jqWespxtoIcMFAmoq5crMuTsOwIcfPopgQBfuGo9FiICkKZLl/Ufwn8c3hYfi9+zZQyNGXE9/eeMND7VwR7TYHwC7BLrD2mkpHPzXrLaMmU5LcjAR0Nmqi0AGjfQNZx/D38EjMJkH/27du0tlGIL/pOoO15WpS9bR6FGjaD2ngA56mT17tku/6EEn6bl9650O/mu10JUZACFMUejXrULxGUwC5ZLtUIbgv2DeZ1atEq+BKvjevO+++wIdFyBW3owZM84qHtSXjICbY6VrDsDBg/WbeGqjVjLWUMcmAl8cPFi6tKQI/rOpcwPSzG9+/WuaMWMaiSyCQS1z584NqmmhsEsE/4mx0i1jXXMAzhjk+LIGt8BBzrkEZNuYBMF/5/YPvp0msHPHThp2/XX09ptvBhLJ0KFDSazEQfErAe1xNzV31QGINjb9SmQ3ctNAyHKegIg+li3v/5bNm5H5z/mu96WE5IEkjRg5grbyzoJBLLKtxAkiYydsEmNjU9PJh51ou6M2XXUARGCDrlNNR8rguD8JzJ1TLFXef0Fx8eJKf8KE1q4QaGpsouI5c+jHDzzgijw3hYiVONgfwE3i9sgSY+NRLva0Zq4VVx0AoVIkov0nezqc5AglEAT4Dpoj2XtHBP8F4s5yxYgHf/ELmsOOQGNjoyvy3BAiVuJMKCpyQxRk2ESAx8RmMTba1JzpZlx3AJLJw39l7daa1hAVpSYgoo5ly/tfVYW8/1LfNJIpt41fBYzhpYLCcQxKmT5jRlBMCYUdKimrzoyNrtrrugMgrNN15X5XrYQwxwiUlJQ41nY6DYvgv+rq6nQuxTUhJrBv3z4azpsJ7dixIxAUBg4cSHl5eYGwJQxGpHT6uRd2euIAHDp0aBdvE8T/ofiZwEX9LqIhQ4ZIZQKC/6TqDl8pI5YHTpsyhX7NywWDUK6+9pogmBECG7Rdp8dE9031xAFoMVNXHnTfXEi0k0BZWbmdzdnSVnUNnv5tARniRn7ECYPmlZdRU1OTryn069fP1/qHRnmNPItE9cwBSB46tJyTHuwNTScHzFARZTxt2nSprBLvcF/Y/rxUOkEZfxLYsH4DTRg/nnhHNn8awFonEgnf6h4WxcUYmKyvX+2VvZ45AGywpigaZgG86vkM5U6aPInE5j8yFQT/ydQb/tfl9ddeo+s5adDu3bt9aUwqxcMLitQEvB4DvXQAeH+A6GK+RQ9L3UNQrl0CN8+/pd3jXh3UNA3Bf17BD7Dco0eO0qSJN1Fl5SLfWRmWrZB91zGtCuv6UU776+mN5akDkEwmG1mBYETctHZqCD5F4F9hYaFUlm7cuB6Z/6TqkeAo03yqme7+1l10++23kVhl4pfCgWV+UTWceirKQ2y4p4EmnjoAotebTp78Ga8LdDX7UTjvNvusLiktta8xm1qqqkLwn00o0UwHBFatWEXjxo6lw4f9MWl58ODBDizBYc8J8JjXMvZ5rIjnDgBPUx3jdwHCE0LxAYGWLUf5R1Cmsn//fgT/ydQhAdZFxAWM5H0EXn75ZemtPHjwb9LrGFoFecxrGfs8BuC5AyDsxyyAx3eBBfFziost1Hanak0NtpdwhzSkCAJ1yTq6acIEWrNmjbRARGrj1199XVr9Qq2YJE//og+kcAAwC+CPfw5qVKXZs2dLpSyC/6TqjtAoI2IBbp0/n+699x5qbm6Wzm6x06Gf4hWkA+ikQpI8/QsTpXAAhCKn34do/l10K4wIeBk7Vr68/xs3bkTwX8DvO5nNe/zRx2nKpEkksgjKVDZsWC+TOtDlDAHe9KdOhnf/rR0ijQMgZgF0RfEsI1IrEHx2TKC4uKTjkx6dqapa7JFkiAWB0wRefPFFjgu4gf7yxhtSIBFBips3b5JCFyhxLgGFxzgZ3v23aiWNAyAUOnjw0G84PxBmAVp7R6JPkfd/8ODBEmlELbu3IfOfVF0SWmXerX2Xxo4ZQ+vXe//k/ZOf/ISaGj1dXRba+6Azw8XT/6daxrjOarl7TioHgE1vwiyAuzeAWWkVFTebrepavSUI/nONNQQZExB7B1SUl9OPH3iARGyKF0Xsali9GLNiXrA3kime/mt5jDOq5+Z5xU1hJmVlJ+Kxdzg8IW6yPqo5TKBb9+60509/opycHIclWWv+C5ddRvX19dYuQm0QcIHAsOHD6JFHfktizww3y+jRo+iVP8m/RNFNJjLIEk//2XX1n6mVzAGQbQZA9BVmAWS4Y8/SYcrUydIN/ps4+A+D/1mdhD+lIrBt6zYaM2YUiSdyt0pJSTEGf7dgW5Qj49O/MEFGB6AlFoAn0PZbZIzqDhEoLZYv898iH+Zmd6h70KykBN7c9yaNGjWSnl7t/GZvd95xB23ZtFlSEuFWS4xlHN/2CxkpSOkAMKgmVdO+JiOwsOk09Kqh1Peii6QyW2zRiuA/qboEynRAQATjffnWW0kM0CJGwO4iZsFEUqInly61u2m0ZxMBmccyWR0AEnskp3QdLq1NN2G6zRSXyPf0v7iyMl1zcB0IeEJADNAihfC2bdtsky/auv6660gsQ0SRk4AYw8RYJqd2RDIGAX7EKpHo+VlNU19XSY1+dBB/uErgyiuvpGhULvyvvf66dIlXXO0UCPM1AfFv6p5776WBAwemZYfI8vfggz+nPbv3pHU9LnKHAAf+Nauqdkkyefiv7ki0LkVqB0CY06tXwYOKrnzVumm4AgRAAATkJTBw0ECaNm06TZw4yTDIdu/evfQsD/yrf/c7ekOShEPykpVDM13RH+J3/1K/ypbeAcjPz8+NRJS3eBYgJke3QgsQAAEQsI9Adk42XXnlFykvL4969Dif/oGX3Z7gzXz+9+j79N6R92nv3jcoeSBpn0C05DgBDvw7nEqlPtPQ0HDccWEZCJDeARC29eoVu0XR1UcysBOXggAIgAAIgIArBNgBKOFg5UpXhGUgxBcOANuncnKg/+KPwRnYiktBAARAAARAwFEC/O7/xbq6+i86KsSmxqVdBdDGPk6sqSIOoA0UfAUBEAABEJCNgPoV2TTqSB+/OADE0ykvEenLOzIEx0EABEAABEDASwI6UdXpscpLLczL9o0DIEz68FTzHTy9csK8eagJAiAAAiAAAs4TEGNTcyr1b85Lsk+CrxyA995772+KQt+wz3y0BAIgAAIgAAKZExBjE0f9+2o7e78EAZ7TO/F47HleFnj1OQfxBQRAAARAAAQ8IMBP/y9w4N81HojOSKSvZgBaLU2l9HKOBzjV+h2fIAACIAACIOANAf3U6THJG+mZSI1kcrFX1zY2Nh7pdl7OKVLV4V7pALkgAAIgAAIgQCntO4caGtb4kYQvXwGcAa3G4/HdPIXxBT+Ch84gAAIgAAL+JsAJf/7EUf+D2Ar+03/Fl68AzmDWONViGb97afYfdmgMAiAAAiDgZwJi7NE0rYRt8OXgL9j78hWAUFwUfhVQ1z23ay5vavjPp4/g/yAAAiAAAiDgPAGF9J/WHaqvcV6ScxL8/AqglUo0EY//mb/0az2ATxAAARAAARBwjoD2VrKuvj+37+sZaD+/Amjt22ZdSVW0fsEnCIAACIAACDhJoFmjudy+rwd/wcfXrwBaO/j48cZ3c7ud11shdWDrMXyCAAiAAAiAgN0EUrr2aH19fSB2pw3CDEBL/ypKl69xLMZbdnc22gMBEAABEAABQYAD/2ojkejXg0IjMA5AMplsTOnKbCQICsqtCTtAAARAQCYCIvmcOlWMNTJplYkugXgF0ArgxIkTB5AgqJUGPkEABEAABGwjwAl/DtbXB2pH2iCsAvhE/ybisT+wpzb4EydwAARAAARAAAQsEtAVbevBg/UjLF4mffXAvAI4m7RG6gzS9aNnH8PfIAACIAACIGCZAI8lmqbMsnydDy4IpAPAqRlrmf2tPuAPFUEABEAABOQmcOuhQ4fq5VYxPe0CFQNwNoIPTpx4vVtu189xlsDPn30cf4MACIAACICAGQI6UdXBQ4fuM1PXj3UCOQPQ2hGNTR/Ox9LAVhr4BAEQAAEQMEtALPlTVPUWs/X9WC/QDsBRLi1LAwNtpR9vO+gMAiAAAhITaBkzgrXkrz3agX0F0GqsWBrYtWuOppByXesxfIIACIAACIBARwQ0XftuXd2hpR2dD8rxQC4DbK9z4vHY0yqp49s7h2MgAAIgAAIgcJpAal2yrmFcGGiEZnL85MnmOeKdThg6FTaCAAiAAAhYJ6AR7W86mQrkkr/2aITGAThy5MixVEq/iZ2AE+2BwDEQAAEQAIHwEhBjQyqVmiDGirBQCI0DIDq0oaHhZc4QeFtYOhd2ggAIgAAImCWg3nZ6jDBb3//1Ah8E2LaLjh8//kpubu6FHPxwWdtz+A4CIAACIBA+AmKLX07288OwWR6qGYDWzhVrO/ldz+7W7/gEARAAARAIJwExFnCiv1DODIfSARDbOarqh5OwX0A4/8HDahAAARBoIcB5/lVVncR/N4eRSCgdANHRyeT7+zVFmU2hJRDG2x02gwAIgMAZAvzbL8YAfiDcH1YmoYsBOLujOR7gf5Ak6Gwi+BsEQAAEwkHgTLKfx8NhbftWhiYRUPvmnz4aj8dXsjM4sbM6OAcCIAACIBAMAvzefxXvGium/kNd4ACc7v7sXr1izyq6OiTUdwOMBwEQAIHAE9B2Jevqr2MzmwJvqoGBeAN+GlBT5ESTSP24z4AXToMACIAACPiWgPaW2tg0htUP/eAvuhAOwJkb+cCxY0dOpVJjeGro8JlD+AABEAABEAgIAfHbfiql3yh+6wNiUsZmwAE4CyFngXpT1/VxSBd8FhT8CQIgAAI+JyB+08Vvu/iN97kptqoPB6ANTs4GtUtRaC7mRtqAwVcQAAEQ8CMBHuVUjWaL33Y/qu+kzqFeBtgR2OPHT/ylW/Z5H5KqDu+oDo6DAAiAAAjIT0An/esHD9Uvkl9T9zWEA9AB8w8aG3d0ze3aRyHlCx1UwWEQAAEQAAGJCeiK/tDBg4e+J7GKnqqGZYAG+OPx2NMqqeMNquE0CIAACICAVARS65J1DWJ1F0oHBBAD0AGY1sPZdfXTOIDkhdbv+AQBEAABEJCbgPjNzqprmCK3lt5rBwfAoA9qeb2oqkZHiR2jDKriNAiAAAiAgMcExOAvfrNrsdbfsCfwCsAQ0ekKvbt3z2vOydnEHtMgk5egGgiAAAiAgIsExIMa7+53jdjx1UWxvhUFB8BC151xAv6LnYD+Fi5DVRAAARAAAYcJiME/2tg4Eol+zIPGKwDzrEjcWKlU6jq+0fZauAxVQQAEQAAEHCQgfpMx+FsHjBkA68woPz8/Hokof+DVAYVpXI5LQAAEQAAEbCLA7/xrUyn9S5zlr86mJkPTDGYA0ujq0zeayjMBWm0al+MSEAABEAABGwic/g1Wr8Pgnx5MzACkx63lqng8XqiS9gdONBnPoBlcCgIgAAIgYJmAVqeR+qW6urpay5fighYCmAHI4EZoufFU7VrMBGQAEZeCAAiAgEUC/M5/Pyf4vxaDv0VwbapjBqANkHS+JhLn99G0Ls8jJiAdergGBEAABMwTEIM/L/W7ipf67Td/FWq2RwAzAO1RsXgsmXyfb8hT12B1gEVwqA4CIAAC1gjsw+BvDVhntTED0Bkdi+cKCgpiiqJsZK8KGwhZZIfqIAACINA5Ae3VlK6M4G196zuvh7NmCcABMEvKZL0eXLKzs7fBCTAJDNVAAARAwJCAtqvpZPPII0eOHDOsigqmCeAVgGlU5ioe5dLU1DRMV7Sd5q5ALRAAARAAgY4JaLtIjV6Pwb9jQumegQOQLrlOrhNOgKJER6R0fXMn1XAKBEAABECgEwL8ILVVDP7I7d8JpAxO4RVABvBMXJrFuQKWspc10URdVAEBEAABEDhDgJdXr6mrqxdb+p4EFGcIYAbAGa6trZ7kdaqTiPTlrQfwCQIgAAIgYERAX86D/wSuhcHfCFUG5yMZXItLTRL44PiJFTnnnRfl5StXm7wE1UAABEAglAR0Rb//YN2hW0NpvMtGwwFwCfiJxsbncrvlvMXvXMYRKeDuEneIAQEQ8AsB/RQP/iUHD9b/3C8a+11PxAC43IOxWGxIVFGeIUXp4bJoiAMBEAABOQno+tFmXR9TX1+P1VMu9hBiAFyELUS13OCR1GAi7S2XRUMcCIAACEhIgH8L+TcRg7/7XYMZAPeZt0js3b17XnNOzib2wAZ5pALEggAIgICnBDh9+u5oY+PIA8eOHfFUkZAKxwyARx0vbngOChT7B6zySAWIBQEQAAHPCIjfPvEbiMHfsy4gzAB4x/4jyYl47JdE6m0fHcAfIAACIBBgAi2R/gcP3R1gE31hGqLRJegmXia4Pqdr17+pijJeAnWgAgiAAAg4RyCVKj94qP6nzglAy2YJYAbALCkX6vFugoMjiv47ng2IuyAOIkAABEDARQJaHe/mdxPv5rfLRaEQ1QkBOACdwPHiVH5+frxLRBFOAK8UQAEBEACBIBDQdp1K6Tc1NDTUBcGaoNgAB0DOnoz26pX/iKJH5smpHrQCARAAAXMEdCX1+MGDDSKzX7O5K1DLLQJwANwinYacRH5+GUXU33DmwC5pXI5LQAAEQMBDAvopSmm3JBsanvBQCYjuhAAcgE7gyHAKcQEy9AJ0AAEQsEYA7/ut8fKmNhwAb7hbkoq4AEu4UBkEQMBTAnjf7yl+C8LhAFiA5XXVgoLYbyOKerPXekA+CIAACLRHIKVrjx46VD+/vXM4Jh8BOADy9UmnGsXj8TG8j8ATKqmxTiviJAiAAAi4REAjrZ5XLpXV1dU945JIiLGBABwAGyC63QTHBcQURX+MnQAkDnIbPuSBAAicQ4AH/zW6rlTw+n52AlD8RAAOgJ96q42u7AjMY0fgF+wIdG1zCl9BAARAwFECPPCf4IH/X3jgf9xRQWjcMQJwABxD607D/EqgUFG0GkVXh7gjEVJAAATCTkBXtJ26rs7iKf/asLPws/3YC8DPvce6Hz9+/Ojx4ycW8V4CJ1WFruacAehTn/cp1AcBeQnonNCPvltXV1/Ovz3vy6snNDNDADMAZij5pA4vF7w8Eoks5T2e+/tEZagJAiDgEwK8fe/eVCo1g9P5vuwTlaGmAQE8LRoA8tPpxsbGOvbKF3TLzcnimYB/9pPu0BUEQEBmAtqPD9Ydms6/MQdk1hK6WSOAGQBrvHxTm2MDrlBJ4+AcdYBvlIaiIAACkhHQXtVIncfv+l+STDGoYwMBOAA2QJS4iWhBfv431EjkXu7obIn1hGogAAISEdCJmjRdv48j/H/MamETH4n6xk5V4ADYSVPStjg24KIzsQGDJFURaoEACEhCgN/17z7zrv9NSVSCGg4RgAPgEFgJm1V79Sr4qq7rP0TeAAl7ByqBgMcExLp+RVG+c/DgoYdYFfYDUIJOAA5A0Hu4jX2JxPl9UqmsxyKKckObU/gKAiAQUgIpXd8ciZysSCbf3x9SBKE0Gw5AKLudKFFQMF1TlId5yWDPkCKA2SAQegL8mH+YE4l9/eDB+urQwwghACwDDGGnC5M/OHHi9R6quqA5GjlfjSj/RBz1gwICIBASAuz5pzTt0S5//3tR8r0j/x0Sq2FmGwKYAWgDJIxfY7HYAFUlng1Qrw6j/bAZBMJEgN/1v6BpdHt9ff2rYbIbtn6SAByATzIJ7ZFELFZEKv2UcwdcGFoIMBwEAktAe4tD+76RrK9fHVgTYZglAnAALOEKfuVCzhfQFI/9K1v6TawWCH5/w8IwENCO8bv+H2TX1f+qltf3h8Fi2GiOABwAc5xCV+vTn/70P2Z16XK/TtpsdgRwn4TuDoDBfifAU/26Qmo1J/T5Bif0qfe7PdDffgL4YbefaaBaPJNSmNcFq4MDZRiMAYFAE9B2cQrfryKFb6A7OWPj4ABkjDAcDfTqFZuo6/QDng34fDgshpUg4D8C/NT/Z0Wh7/KyvlX+0x4au00ADoDbxP0tT+X8AVNJUb7PZvTztynQHgSCREB7i+f7v8cD/xK2Cln8gtS1DtoCB8BBuAFuOprIz5+rRZR7eEagMMB2wjQQkJoAj/T7Ob232LRnESuKTXuk7i35lIMDIF+f+EmjLI4RqOBth7/DMQJxPykOXUHA3wS0On7H/0N+x/8Y23HS37ZAe68IwAHwinyA5CYSiRxNa76VnYBvIbVwgDoWpkhI4PTAr6rqwmQy2SihglDJRwTgAPios2RXlbcdzu1C9BUtErkTjoDsvQX9/ESAp/oPq6nUz6hLl4cw8Pup5+TWFQ6A3P3jS+0KOZnQh70K5iq6cicbgGBBX/YilJaBgIjq55m1n2TX1S2rRRIfGbokUDrAAQhUd8pnDC8fHKno+jeJItfJpx00AgFZCaSe0yjyM37H/4ysGkIv/xOAA+D/PvSFBfx64PIuEfUujfSJvHIg6guloSQIuEiAn/abVVJWnUpp9zc0NLzsomiICikBOAAh7XivzE4kzu+j61l38tKlcnYEunqlB+SCgCwEeOA/wTEzi0g99eNk8v39sugFPYJPAA5A8PtYSgt7d++ed+q8825RFGU+//j1kVJJKAUCDhIQa/g5sO8R9cMPHz1w7NgRB0WhaRBolwAcgHax4KCbBEScgK6rN3MCs/F4PeAmechym4CY5uegvjWKoj3KWfs2uS0f8kDgbAJwAM6mgb89JVBQUBAjTStTImJWABkGPe0MCLeVAA/8tbquiKQ9j2NnPlvRorEMCMAByAAeLnWOAGYFnGOLlt0hgKd9dzhDSvoE4ACkzw5XukAAswIuQIYIWwngad9WnGjMQQJwAByEi6btJRCLxYZwCtRJHCsglhIW2ts6WgOB9AmIQZ/f7a/SNG1lfX39zvRbwpUg4B4BOADusYYkGwnwJkRXKIp+EycZmso/vBfa2DSaAgGTBLS3uOJK3pRnBSfsecnkRagGAtIQgAMgTVdAkXQJ8MzAgCjPDPCyqqm8pLB/uu3gOhAwIsD32F49lVrBnyuRrMeIFs7LTgAOgOw9BP0sEUgken5W01QxK8BLCmmQpYtRGQTaIcCD/W5+7bRGVbXlyeThv7ZTBYdAwJcE4AD4stugtBkCn/70p/8xKys6RtG1cRop1yHzoBlqqMPv8zkzn/6crijPaJqyCsv2cE8ElQAcgKD2LOw6h0AikcjhAC12ArRR/M52HLIPnoMn9F/4KX+/rmsbFUXlJ331OWy5G/pbIhQA4ACEopthZFsCIm6A0xCPVVV9DP/oDyEeAVBCRIA9QE46tSulK2t5X4p1HLn/aoish6kg0EIADgBuhNATEPsSaOeddwMp+lCGcRXHDwwIPZQAAhDv8nnlyE5Foz+of//7ZuTfD2AnwyRLBOAAWMKFymEgwFsX53ZR1cGaon+J07cOjSj6YHYKuofB9uDYqB3jp/tdEUXZRbr+e4pEdmJaPzi9C0vsIQAHwB6OaCXYBFR+ZXBJJEJDSFeH6KRdhUREcnW4SMSjKLSTN5XaybEev+cp/ddZQ7zYkauboI1kBOAASNYhUMcfBM68NhjIswSXKaTyf9plRMrF/F8Xf1jgVy31U0T6X3RSX2FH7BVVV17h6fw9mM73a39Cby8JwAHwkj5kB41AlGcKPsczBQP4SfQLvOWr+Lyc4816Bs1QN+zhx/fDzPBlZigC9F7lJ/s/8ZP9G/w3b6mLAgIgkCkBOACZEsT1IGBAgJcg9qFUqp+uUl+uWshPsBfoOvXmuILCsC9H5EF+P8/U1/IsyrtaKvUuqeq7EaLak6nUG4cPH04aoMVpEACBDAjAAcgAHi4FATsIJBLn99H1aCG/PuBP+gxHqvfhbIZ9OPgwzk5CHstgZ8GX5QAP7kc4GK+Os+jxOntlP7+nf4cdIP5srk0m3+fBHwUE/n97d6yDMAhFAVSs1snFaP//+9Q46CRV8dY4OenkckgIEIbXnKWU0lcC/xKwAPiXvLgEfhCYvkzoum56lbBLHVLTf2yzgzC00ja5uQ7JXrdO9rpVtsz7JDzq83Td5bDiMgfkMp4vXm0rfc4tLD+zIr6y37UyZq5mrmZ8e7djYtyTPKlmO77m50vXZFW8ZJGyL62cEmOfRcox1zPV9GeHWusp5Zy+QoAAAQIECBAgQIAAAQIECBAgQIAAAQIECBAgQIAAAQIECBAgQIAAAQIECBAgQIAAAQIECBAgQIAAAQIECBAgQIAAAQIECBAgQIDAFwJPTCxdDVRl0PwAAAAASUVORK5CYII=;fontStyle=1" parent="1" vertex="1">
          <mxGeometry x="87" y="480.72" width="72" height="72" as="geometry" />
        </mxCell>
        <mxCell id="7OaiBoL9M2Hf6ulV0mE1-4" value="&lt;b&gt;Worker node 02&lt;/b&gt;" style="image;aspect=fixed;html=1;points=[];align=center;fontSize=12;image=img/lib/azure2/compute/Virtual_Machine.svg;labelBackgroundColor=none;" parent="1" vertex="1">
          <mxGeometry x="470" y="552.72" width="59" height="54.72" as="geometry" />
        </mxCell>
        <mxCell id="7OaiBoL9M2Hf6ulV0mE1-5" value="&lt;b&gt;Master node&lt;/b&gt;" style="image;aspect=fixed;html=1;points=[];align=center;fontSize=12;image=img/lib/azure2/compute/Virtual_Machine.svg;labelBackgroundColor=none;" parent="1" vertex="1">
          <mxGeometry x="415.5" y="440" width="59" height="54.72" as="geometry" />
        </mxCell>
        <mxCell id="7OaiBoL9M2Hf6ulV0mE1-6" value="&lt;b&gt;Worker node 01&lt;/b&gt;" style="image;aspect=fixed;html=1;points=[];align=center;fontSize=12;image=img/lib/azure2/compute/Virtual_Machine.svg;labelBackgroundColor=none;" parent="1" vertex="1">
          <mxGeometry x="356.5" y="552.72" width="59" height="54.72" as="geometry" />
        </mxCell>
        <mxCell id="7OaiBoL9M2Hf6ulV0mE1-10" value="&lt;b&gt;Cluster Kubernetes&lt;/b&gt;" style="editableCssRules=.*;html=1;shape=image;verticalLabelPosition=bottom;labelBackgroundColor=none;verticalAlign=top;aspect=fixed;imageAspect=0;image=data:image/svg+xml,PHN2ZyB4bWxucz0iaHR0cDovL3d3dy53My5vcmcvMjAwMC9zdmciIHhtbG5zOnY9Imh0dHBzOi8vdmVjdGEuaW8vbmFubyIgd2lkdGg9IjcwMi44NDYzMTM0NzY1NjI1IiBoZWlnaHQ9IjY4MS45NjcxMDIwNTA3ODEyIiB2aWV3Qm94PSIxMC4wMDEwMjYxNTM1NjQ0NTMgMTAuMDAwOTMzNjQ3MTU1NzYyIDcwMi44NDYzMTM0NzY1NjI1IDY4MS45NjcxMDIwNTA3ODEyIj4mI3hhOwk8c3R5bGUgdHlwZT0idGV4dC9jc3MiPiYjeGE7CS5zdDB7ZmlsbDojMzI2Y2U1O30mI3hhOwkuc3Qxe2ZpbGw6I2ZmZjt9JiN4YTsJPC9zdHlsZT4mI3hhOwk8cGF0aCBjbGFzcz0ic3QwIiBkPSJNMzU4Ljk4NyAxMC4wNmMtNi4yMTMuMzEzLTEyLjMwMSAxLjg1NC0xNy45MDYgNC41MzFMOTYuNzM3IDEzMS4zNDJjLTEyLjgxMSA2LjExOC0yMi4xMTYgMTcuNjg5LTI1LjI4MSAzMS40MzhsLTYwLjI4MSAyNjIuMjVjLTIuODEyIDEyLjIwNy0uNTI0IDI1LjAyNCA2LjM0NCAzNS41MzFhNDYuMzUgNDYuMzUgMCAwIDAgMi42NTYgMy42ODhsMTY5LjEyNSAyMTAuMjgxYzguODY4IDExLjAyMiAyMi4zMTMgMTcuNDQgMzYuNTMxIDE3LjQzOGwyNzEuMjE5LS4wNjJjMTQuMjEyLjAxIDI3LjY1Ny02LjM5NiAzNi41MzEtMTcuNDA2bDE2OS4wNjMtMjEwLjMxM2M4Ljg3My0xMS4wMjggMTIuMTk3LTI1LjQ2NCA5LjAzMS0zOS4yMTlsLTYwLjM3NS0yNjIuMjVjLTMuMTY1LTEzLjc0OC0xMi40Ny0yNS4zMTktMjUuMjgxLTMxLjQzN0wzODEuNjQzIDE0LjU5MmMtNy4wNS0zLjM2OC0xNC44NDEtNC45MjYtMjIuNjU2LTQuNTMxeiIvPiYjeGE7CTxwYXRoIGNsYXNzPSJzdDEgc3QyIiBkPSJNMzYxLjQwOCA5OS4zMDhjLTguMDc3LjAwMS0xNC42MjYgNy4yNzYtMTQuNjI1IDE2LjI1IDAgLjEzOC4wMjguMjY5LjAzMS40MDYtLjAxMiAxLjIxOS0uMDcxIDIuNjg4LS4wMzEgMy43NS4xOTMgNS4xNzYgMS4zMjEgOS4xMzcgMiAxMy45MDYgMS4yMyAxMC4yMDcgMi4yNjEgMTguNjY3IDEuNjI1IDI2LjUzMS0uNjE5IDIuOTY1LTIuODAzIDUuNjc3LTQuNzUgNy41NjNsLS4zNDQgNi4xODhjLTguNzc3LjcyNy0xNy42MTIgMi4wNTktMjYuNDM3IDQuMDYzLTM3Ljk3NSA4LjYyMi03MC42NyAyOC4xODMtOTUuNTYyIDU0LjU5NC0xLjYxNS0xLjEwMi00LjQ0MS0zLjEyOS01LjI4MS0zLjc1LTIuNjExLjM1My01LjI1IDEuMTU4LTguNjg3LS44NDQtNi41NDUtNC40MDYtMTIuNTA2LTEwLjQ4Ny0xOS43MTktMTcuODEyLTMuMzA1LTMuNTA0LTUuNjk4LTYuODQxLTkuNjI1LTEwLjIxOS0uODkyLS43NjctMi4yNTMtMS44MDUtMy4yNS0yLjU5NC0zLjA3LTIuNDQ4LTYuNjkxLTMuNzI0LTEwLjE4Ny0zLjg0NC00LjQ5Ni0uMTU0LTguODI0IDEuNjA0LTExLjY1NiA1LjE1Ni01LjAzNSA2LjMxNS0zLjQyMyAxNS45NjggMy41OTQgMjEuNTYzLjA3MS4wNTcuMTQ3LjEwMS4yMTkuMTU2Ljk2NC43ODIgMi4xNDUgMS43ODMgMy4wMzEgMi40MzggNC4xNjcgMy4wNzcgNy45NzMgNC42NTEgMTIuMTI1IDcuMDk0IDguNzQ3IDUuNDAyIDE1Ljk5OCA5Ljg4MSAyMS43NSAxNS4yODEgMi4yNDYgMi4zOTQgMi42MzkgNi42MTMgMi45MzggOC40MzhsNC42ODggNC4xODhjLTI1LjA5MyAzNy43NjQtMzYuNzA3IDg0LjQwOS0yOS44NDQgMTMxLjkzOGwtNi4xMjUgMS43ODFjLTEuNjE0IDIuMDg1LTMuODk1IDUuMzY1LTYuMjgxIDYuMzQ0LTcuNTI1IDIuMzctMTUuOTk0IDMuMjQxLTI2LjIxOSA0LjMxMy00LjguMzk5LTguOTQyLjE2MS0xNC4wMzEgMS4xMjUtMS4xMi4yMTItMi42ODEuNjE5LTMuOTA2LjkwNi0uMDQzLjAwOS0uMDgyLjAyMi0uMTI1LjAzMS0uMDY3LjAxNS0uMTU1LjA0OC0uMjE5LjA2My04LjYyIDIuMDgzLTE0LjE1OCAxMC4wMDYtMTIuMzc1IDE3LjgxM3MxMC4yMDMgMTIuNTU3IDE4Ljg3NSAxMC42ODhjLjA2My0uMDE0LjE1NC0uMDE3LjIxOS0uMDMxLjA5OC0uMDIyLjE4NC0uMDcuMjgxLS4wOTQgMS4yMDktLjI2NSAyLjcyNC0uNTYxIDMuNzgxLS44NDQgNS4wMDMtMS4zNCA4LjYyNy0zLjMwOCAxMy4xMjUtNS4wMzEgOS42NzctMy40NzEgMTcuNjkyLTYuMzcgMjUuNS03LjUgMy4yNjEtLjI1NSA2LjY5NyAyLjAxMiA4LjQwNiAyLjk2OWw2LjM3NS0xLjA5NGMxNC42NyA0NS40ODMgNDUuNDE0IDgyLjI0NSA4NC4zNDQgMTA1LjMxMmwtMi42NTYgNi4zNzVjLjk1NyAyLjQ3NSAyLjAxMyA1LjgyNSAxLjMgOC4yNjktMi44MzkgNy4zNjEtNy43MDEgMTUuMTMxLTEzLjIzOCAyMy43OTMtMi42ODEgNC4wMDItNS40MjUgNy4xMDgtNy44NDQgMTEuNjg4LS41NzkgMS4wOTYtMS4zMTYgMi43NzktMS44NzUgMy45MzgtMy43NTkgOC4wNDItMS4wMDIgMTcuMzA1IDYuMjE5IDIwLjc4MSA3LjI2NiAzLjQ5OCAxNi4yODQtLjE5MSAyMC4xODctOC4yNS4wMDYtLjAxMS4wMjYtLjAyLjAzMS0uMDMxcy0uMDA0LS4wMjMgMC0uMDMxYy41NTYtMS4xNDMgMS4zNDQtMi42NDQgMS44MTMtMy43MTkgMi4wNzItNC43NDcgMi43NjItOC44MTUgNC4yMTktMTMuNDA2IDMuODctOS43MiA1Ljk5Ni0xOS45MTkgMTEuMzIzLTI2LjI3NCAxLjQ1OS0xLjc0IDMuODM3LTIuNDA5IDYuMzAyLTMuMDdsMy4zMTMtNmMzMy45MzggMTMuMDI3IDcxLjkyNyAxNi41MjIgMTA5Ljg3NSA3LjkwNmExODkuNzcgMTg5Ljc3IDAgMCAwIDI1LjA5NC03LjU2MmwzLjEyNSA1LjYyNWMyLjUwNi44MTUgNS4yNCAxLjIzNiA3LjQ2OSA0LjUzMSAzLjk4NSA2LjgwOSA2LjcxMSAxNC44NjQgMTAuMDMxIDI0LjU5NCAxLjQ1NyA0LjU5MSAyLjE3OCA4LjY1OSA0LjI1IDEzLjQwNi40NzIgMS4wODIgMS4yNTYgMi42MDUgMS44MTMgMy43NSAzLjg5NSA4LjA4NSAxMi45NDIgMTEuNzg3IDIwLjIxOSA4LjI4MSA3LjIxOS0zLjQ3OCA5Ljk4LTEyLjc0IDYuMjE5LTIwLjc4MWwtMS45MDYtMy45MzdjLTIuNDE5LTQuNTgtNS4xNjMtNy42NTQtNy44NDQtMTEuNjU2LTUuNTM3LTguNjYyLTEwLjEzLTE1Ljg1OC0xMi45NjktMjMuMjE5LTEuMTg3LTMuNzk3LjItNi4xNTggMS4xMjUtOC42MjUtLjU1NC0uNjM1LTEuNzM5LTQuMjItMi40MzctNS45MDYgNDAuNDU3LTIzLjg4OCA3MC4yOTktNjIuMDIxIDg0LjMxMy0xMDYuMDYyIDEuODkyLjI5NyA1LjE4Mi44NzkgNi4yNSAxLjA5NCAyLjItMS40NTEgNC4yMjItMy4zNDQgOC4xODgtMy4wMzEgNy44MDggMS4xMjkgMTUuODIzIDQuMDMgMjUuNSA3LjUgNC40OTggMS43MjMgOC4xMjIgMy43MjMgMTMuMTI1IDUuMDYzIDEuMDU3LjI4MyAyLjU3Mi41NDcgMy43ODEuODEzLjA5Ny4wMjQuMTgzLjA3MS4yODEuMDk0LjA2NS4wMTUuMTU2LjAxNy4yMTkuMDMxIDguNjcyIDEuODY3IDE3LjA5NC0yLjg3OSAxOC44NzUtMTAuNjg3cy0zLjc1NC0xNS43MzItMTIuMzc1LTE3LjgxMmMtMS4yNTQtLjI4NS0zLjAzMi0uNzY5LTQuMjUtMS01LjA4OS0uOTY0LTkuMjMxLS43MjYtMTQuMDMxLTEuMTI1LTEwLjIyNS0xLjA3MS0xOC42OTMtMS45NDMtMjYuMjE5LTQuMzEyLTMuMDY4LTEuMTktNS4yNTEtNC44NDEtNi4zMTMtNi4zNDRsLTUuOTA2LTEuNzE5YzMuMDYyLTIyLjE1NCAyLjIzNy00NS4yMTEtMy4wNjItNjguMjgxLTUuMzQ4LTIzLjI4NS0xNC44LTQ0LjU4MS0yNy40MDYtNjMuMzQ0bDUuMTg4LTQuNjU2Yy4yMzctMi42MjQuMDMzLTUuMzc2IDIuNzUtOC4yODEgNS43NTEtNS40MDEgMTMuMDAzLTkuODc5IDIxLjc1LTE1LjI4MSA0LjE1Mi0yLjQ0MyA3Ljk5LTQuMDE3IDEyLjE1Ni03LjA5NC45NDItLjY5NiAyLjIyOS0xLjc5OCAzLjIxOS0yLjU5NCA3LjAxNS01LjU5NiA4LjYzMS0xNS4yNDggMy41OTQtMjEuNTYycy0xNC43OTctNi45MDktMjEuODEyLTEuMzEyYy0uOTk5Ljc5MS0yLjM1NCAxLjgyMy0zLjI1IDIuNTk0LTMuOTI3IDMuMzc4LTYuMzUxIDYuNzE0LTkuNjU2IDEwLjIxOS03LjIxMiA3LjMyNi0xMy4xNzQgMTMuNDM4LTE5LjcxOSAxNy44NDQtMi44MzYgMS42NTEtNi45OSAxLjA4LTguODc1Ljk2OWwtNS41NjIgMy45NjljLTMxLjcxOS0zMy4yNjEtNzQuOTA1LTU0LjUyNS0xMjEuNDA2LTU4LjY1NmwtLjM0NC02LjUzMWMtMS45MDQtMS44MjItNC4yMDMtMy4zNzctNC43ODEtNy4zMTItLjYzNi03Ljg2NC40MjYtMTYuMzI1IDEuNjU2LTI2LjUzMS42NzktNC43NjkgMS44MDctOC43MyAyLTEzLjkwNi4wNDQtMS4xNzctLjAyNi0yLjg4NC0uMDMxLTQuMTU2LS4wMDEtOC45NzQtNi41NDgtMTYuMjUxLTE0LjYyNS0xNi4yNXptLTE4LjMxMiAxMTMuNDM4bC00LjM0NCA3Ni43MTktLjMxMi4xNTZjLS4yOTEgNi44NjMtNS45NCAxMi4zNDQtMTIuODc1IDEyLjM0NGExMi44MiAxMi44MiAwIDAgMS03LjU5NC0yLjQ2OWwtLjEyNS4wNjMtNjIuOTA2LTQ0LjU5NGMxOS4zMzQtMTkuMDExIDQ0LjA2My0zMy4wNiA3Mi41NjItMzkuNTMxIDUuMjA2LTEuMTgyIDEwLjQxLTIuMDU5IDE1LjU5NC0yLjY4N3ptMzYuNjU2IDBjMzMuMjczIDQuMDkyIDY0LjA0NSAxOS4xNTkgODcuNjI1IDQyLjI1bC02Mi41IDQ0LjMxMy0uMjE5LS4wOTRhMTIuOTEgMTIuOTEgMCAwIDEtMTcuNjg3LTIuMzc1Yy0xLjc3MS0yLjIyMS0yLjcwMS00LjgzMi0yLjgxMi03LjQ2OWwtLjA2Mi0uMDMxek0yMzIuMTI2IDI4My42Mmw1Ny40MzcgNTEuMzc1LS4wNjIuMzEzYTEyLjg4IDEyLjg4IDAgMCAxIDEuNjI1IDE3Ljc1IDEyLjg5IDEyLjg5IDAgMCAxLTYuNjg3IDQuNDA2bC0uMDYyLjI1LTczLjYyNSAyMS4yNWMtMy43NDctMzQuMjY1IDQuMzI5LTY3LjU3NCAyMS4zNzUtOTUuMzQ0em0yNTguMTU2LjAzMWM4LjUzNCAxMy44MzMgMTQuOTk3IDI5LjI4MiAxOC44NDQgNDYuMDMxIDMuODAxIDE2LjU0OCA0Ljc1NSAzMy4wNjcgMy4xODggNDkuMDMxbC03NC0yMS4zMTItLjA2Mi0uMzEyYy02LjYyNy0xLjgxMS0xMC42OTktOC41NTItOS4xNTYtMTUuMzEyLjYzMi0yLjc3IDIuMTAyLTUuMTEzIDQuMDk0LTYuODQ0bC0uMDMxLS4xNTYgNTcuMTI1LTUxLjEyNXptLTE0MC42NTYgNTUuMzEzaDIzLjUzMWwxNC42MjUgMTguMjgxLTUuMjUgMjIuODEzLTIxLjEyNSAxMC4xNTYtMjEuMTg3LTEwLjE4Ny01LjI1LTIyLjgxMnptNzUuNDM4IDYyLjU2M2ExMi44MyAxMi44MyAwIDAgMSAyLjk2OS4yMTlsLjEyNS0uMTU2IDc2LjE1NiAxMi44NzVjLTExLjE0NiAzMS4zMTMtMzIuNDczIDU4LjQ0LTYwLjk2OSA3Ni41OTRsLTI5LjU2Mi03MS40MDYuMDk0LS4xMjVjLTIuNzE2LTYuMzEuMDAyLTEzLjcxIDYuMjUtMTYuNzE5IDEuNi0uNzcgMy4yNzEtMS4xOTcgNC45MzgtMS4yODF6bS0xMjcuOTA2LjMxM2ExMi45IDEyLjkgMCAwIDEgMTIuMzc1IDEwLjAzMSAxMi43NyAxMi43NyAwIDAgMS0uNzE5IDcuOTM4bC4yMTkuMjgxLTI5LjI1IDcwLjY4OGMtMjcuMzQ3LTE3LjU0OS00OS4xMjktNDMuODI0LTYwLjc4MS03Ni4wNjJsNzUuNS0xMi44MTIuMTI1LjE1NmMuODQ1LS4xNTUgMS43MDEtLjIzIDIuNTMxLS4yMTl6bTYzLjc4MSAzMC45NjljMi4wMjQtLjA3NCA0LjA3OS4zNDEgNi4wMzEgMS4yODEgMi41NiAxLjIzMyA0LjUzNyAzLjE3MyA1Ljc4MSA1LjVoLjI4MWwzNy4yMTkgNjcuMjVjLTQuODMgMS42MTktOS43OTYgMy4wMDMtMTQuODc1IDQuMTU2LTI4LjQ2NSA2LjQ2My01Ni44MzkgNC41MDUtODIuNTMxLTQuMjVsMzcuMTI1LTY3LjEyNWguMDYzYTEyLjkxIDEyLjkxIDAgMCAxIDEwLjkwNi02LjgxMnoiIHN0cm9rZT0ibm9uZSIgc3Ryb2tlLXdpZHRoPSIuMjUiLz4mI3hhOzwvc3ZnPg==;fontColor=default;" parent="1" vertex="1">
          <mxGeometry x="670" y="486.22" width="70" height="66.5" as="geometry" />
        </mxCell>
        <mxCell id="7OaiBoL9M2Hf6ulV0mE1-19" value="" style="endArrow=classic;html=1;rounded=0;" parent="1" edge="1">
          <mxGeometry relative="1" as="geometry">
            <mxPoint x="215" y="525" as="sourcePoint" />
            <mxPoint x="305" y="524.5" as="targetPoint" />
          </mxGeometry>
        </mxCell>
        <mxCell id="7OaiBoL9M2Hf6ulV0mE1-20" value="Playbooks" style="text;html=1;align=center;verticalAlign=middle;resizable=0;points=[];autosize=1;strokeColor=none;fillColor=none;fontStyle=1" parent="1" vertex="1">
          <mxGeometry x="220" y="494.72" width="80" height="30" as="geometry" />
        </mxCell>
        <mxCell id="7OaiBoL9M2Hf6ulV0mE1-22" value="" style="endArrow=classic;html=1;rounded=0;" parent="1" edge="1">
          <mxGeometry relative="1" as="geometry">
            <mxPoint x="570" y="523.25" as="sourcePoint" />
            <mxPoint x="660" y="522.75" as="targetPoint" />
          </mxGeometry>
        </mxCell>
      </root>
    </mxGraphModel>
  </diagram>
</mxfile>
